<?xml version="1.0" encoding="UTF-8" standalone="no"?>
<!-- Created with Inkscape (http://www.inkscape.org/) -->

<svg
   xmlns:dc="http://purl.org/dc/elements/1.1/"
   xmlns:cc="http://creativecommons.org/ns#"
   xmlns:rdf="http://www.w3.org/1999/02/22-rdf-syntax-ns#"
   xmlns:svg="http://www.w3.org/2000/svg"
   xmlns="http://www.w3.org/2000/svg"
   xmlns:sodipodi="http://sodipodi.sourceforge.net/DTD/sodipodi-0.dtd"
   xmlns:inkscape="http://www.inkscape.org/namespaces/inkscape"
   width="226.55751mm"
   height="305.78757mm"
   viewBox="0 0 226.55751 305.78757"
   version="1.1"
   id="svg938"
   inkscape:version="0.92.3 (2405546, 2018-03-11)"
   sodipodi:docname="logo.svg">
  <defs
     id="defs932" />
  <sodipodi:namedview
     id="base"
     pagecolor="#ffffff"
     bordercolor="#666666"
     borderopacity="1.0"
     inkscape:pageopacity="0.0"
     inkscape:pageshadow="2"
     inkscape:zoom="0.35"
     inkscape:cx="69.568736"
     inkscape:cy="540.72342"
     inkscape:document-units="mm"
     inkscape:current-layer="layer1"
     showgrid="false"
     fit-margin-top="0"
     fit-margin-left="0"
     fit-margin-right="0"
     fit-margin-bottom="0"
     inkscape:window-width="2493"
     inkscape:window-height="1385"
     inkscape:window-x="2627"
     inkscape:window-y="27"
     inkscape:window-maximized="1" />
  <metadata
     id="metadata935">
    <rdf:RDF>
      <cc:Work
         rdf:about="">
        <dc:format>image/svg+xml</dc:format>
        <dc:type
           rdf:resource="http://purl.org/dc/dcmitype/StillImage" />
        <dc:title></dc:title>
      </cc:Work>
    </rdf:RDF>
  </metadata>
  <g
     inkscape:label="Layer 1"
     inkscape:groupmode="layer"
     id="layer1"
     transform="translate(44.487085,13.88784)">
    <g
       id="g919"
       transform="translate(-236.43997,275.37285)">
      <path
         id="path913"
         transform="scale(0.26458333)"
         d="m 1111.7891,-981.97266 c -23.034,-0.0252 -27.2549,0.22518 -37,2.20508 -39.2115,7.96657 -69.9519,23.97444 -96.52933,50.26563 -17.6544,17.46425 -28.90603,33.3115 -40.11524,56.5 -14.9557,30.93876 -21.6978,64.48426 -20.58008,102.40429 1.02093,34.63699 7.91717,62.56341 22.83399,92.4668 11.4994,23.05259 23.48703,39.37922 43.81836,59.68359 22.4399,22.41015 44.1007,37.78199 74.707,53.01368 l 16.1367,8.02929 -1.8144,4.70118 c -0.9981,2.58564 -6.9751,18.11724 -13.2813,34.51367 -6.3061,16.39638 -11.6636,30.0093 -11.9062,30.25195 -0.2427,0.24265 -5.8028,-0.002 -12.3555,-0.54492 -25.2654,-2.0931 -60.33045,-1.04085 -85.91404,2.57812 -122.24292,17.29229 -204.61963,93.5084 -222.0039,205.40235 -2.55239,16.42836 -3.07584,49.52319 -1.0586,66.90429 6.25709,53.91304 26.5527,100.93981 62.57617,144.990238 63.92731,78.1719564 167.87739,124.531763 292.48637,130.44336 84.4379,4.005806 167.2992,-11.252559 233.4746,-42.990235 78.753,-37.769902 136.8228,-99.037044 166.8164,-176.003903 17.0857,-43.84415 24.0804,-87.77601 22.9004,-143.84375 -0.9926,-47.15868 -4.3609,-70.8038 -21.2774,-149.35547 -13.7723,-63.95135 -18.0041,-92.37108 -19.0781,-128.14453 -1.6098,-53.61755 8.0805,-110.34489 30.1484,-176.5 5.1372,-15.39999 9.6534,-28.78966 10.0371,-29.75586 0.6622,-1.66708 -2.9094,-1.74378 -70.0097,-1.5 l -70.707,0.25586 -3.3106,11.5 c -12.8334,44.59906 -34.0975,71.91468 -69.6797,89.50781 -10.2012,5.04382 -32.4396,13.20109 -33.3926,12.24805 -0.2488,-0.24877 3.883,-12.5578 9.1817,-27.35352 11.3284,-31.63268 13.4924,-38.38914 16.7949,-52.41406 11.4763,-48.7375 7.2117,-100.03172 -11.5254,-138.61914 -20.5224,-42.26419 -57.1833,-71.9228 -104.2734,-84.35352 -21.7846,-5.75062 -27.8936,-6.45609 -56.0996,-6.48633 z m -6.6797,133.70508 c 5.1404,0.0459 10.4265,0.95825 15.7422,2.78711 23.856,8.20766 36.9626,32.97662 33.541,63.38477 -2.0045,17.81367 -4.6777,26.39212 -22.6211,72.59375 -5.8742,15.12499 -10.9127,28.2875 -11.1973,29.25 -0.2847,0.96249 -1.0737,1.75 -1.7519,1.75 -2.518,0 -20.1322,-11.94261 -27.2911,-18.50391 -13.4467,-12.32447 -28.5505,-34.39603 -34.6425,-50.62109 -8.3078,-22.12611 -6.8776,-48.31522 3.8437,-70.375 9.5026,-19.55247 26.0184,-30.42945 44.377,-30.26563 z m 215.5918,280.76563 c 0.1501,0 0.5589,7.76251 0.9082,17.25 1.4614,39.69199 6.6529,75.74765 22.5703,156.75 12.3298,62.74565 14.7743,81.83247 13.7695,107.5 -2.8126,71.85025 -33.6611,129.52644 -89.1172,166.61914 -13.5693,9.07608 -36.0752,19.835419 -53.9121,25.773435 -26.5177,8.828031 -50.305,13.230004 -81.6308,15.103516 -39.812,2.380875 -79.9744,-1.370426 -117.4473,-10.966797 -43.46045,-11.129534 -77.17998,-29.537024 -103.23438,-56.357424 -21.71845,-22.35711 -35.36425,-48.3023 -40.85156,-77.67187 -2.52983,-13.54031 -2.56692,-34.43072 -0.0762,-43 2.70546,-9.30796 8.49657,-21.42869 14.61328,-30.58399 6.49723,-9.72487 22.90131,-26.15441 33.03906,-33.08984 20.90234,-14.29962 45.48527,-22.71896 70.2168,-24.04883 l 10.7578,-0.57812 -1.40429,3.90039 c -1.75234,4.87067 -54.4702,146.43235 -57.96679,155.65625 l -2.5625,6.75781 69.56248,-0.25781 69.5606,-0.25586 3.3418,-9 c 1.8376,-4.94997 12.7778,-34.42503 24.3105,-65.5 27.9135,-75.214 25.0303,-68.15229 27.5371,-67.46094 1.1568,0.31903 8.4036,3.68708 16.1036,7.48437 21.0646,10.38826 39.2598,23.02546 60.2343,41.83594 l 9.9121,8.88867 20.1524,-50.625 c 11.0839,-27.8431 22.01,-55.38993 24.2812,-61.21679 l 4.1289,-10.59571 -5.6933,-5.40429 c -14.5448,-13.80945 -35.5315,-27.14916 -66.8223,-42.47461 l -19.584,-9.5918 2.9786,-8.16992 c 6.4798,-17.77565 29.3184,-79.19419 29.5878,-79.56836 0.1576,-0.21876 5.1318,-1.00697 11.0547,-1.75195 26.0829,-3.28071 56.0498,-10.24032 83.5899,-19.41407 9.8007,-3.26464 17.9417,-5.93554 18.0918,-5.93554 z"
         style="fill:#0055a7;fill-opacity:1;stroke-width:0.99999994"
         inkscape:connector-curvature="0" />
      <path
         id="path826-6"
         d="m 373.23959,-226.86202 c -16.23749,-12.61275 -22.91011,-19.20603 -27.77708,-27.44684 -1.69507,-2.87011 -2.73544,-5.24067 -3.70939,-8.4521 -0.63107,-2.08083 -0.71607,-2.80966 -0.73715,-6.32078 -0.0208,-3.46254 0.0552,-4.22186 0.59579,-5.95313 1.0726,-3.4351 2.30067,-5.44991 4.92823,-8.08545 2.07534,-2.08164 2.75506,-2.57685 5.16778,-3.76505 5.55633,-2.73634 10.65457,-3.09476 16.30708,-1.14642 4.3136,1.48683 8.63088,5.00208 10.74015,8.74493 l 0.92661,1.64424 0.81269,-1.44002 c 2.60257,-4.61149 7.57493,-8.31418 12.91382,-9.61631 2.76081,-0.67334 7.35357,-0.61269 10.0257,0.13242 7.307,2.03751 12.50776,7.05191 14.45854,13.94046 0.86292,3.04712 0.81787,7.73683 -0.10791,11.23287 -1.23538,4.66523 -3.61898,9.28077 -7.42698,14.38146 -4.34152,5.8153 -17.00553,17.05142 -29.67789,26.33164 l -1.05841,0.77508 z"
         style="fill:#e12727;fill-opacity:1;stroke-width:0.26458332"
         inkscape:connector-curvature="0" />
    </g>
  </g>
</svg>
