<?xml version="1.0" encoding="UTF-8" standalone="no"?>
<!-- Created with Inkscape (http://www.inkscape.org/) -->

<svg
   xmlns:dc="http://purl.org/dc/elements/1.1/"
   xmlns:cc="http://creativecommons.org/ns#"
   xmlns:rdf="http://www.w3.org/1999/02/22-rdf-syntax-ns#"
   xmlns:svg="http://www.w3.org/2000/svg"
   xmlns="http://www.w3.org/2000/svg"
   xmlns:sodipodi="http://sodipodi.sourceforge.net/DTD/sodipodi-0.dtd"
   xmlns:inkscape="http://www.inkscape.org/namespaces/inkscape"
   width="2048"
   height="2048"
   viewBox="0 0 541.86667 541.86665"
   version="1.1"
   id="svg7023"
   inkscape:version="0.92.5 (2060ec1f9f, 2020-04-08)"
   sodipodi:docname="icon.svg">
  <defs
     id="defs7017" />
  <sodipodi:namedview
     id="base"
     pagecolor="#ffffff"
     bordercolor="#666666"
     borderopacity="1.0"
     inkscape:pageopacity="0.0"
     inkscape:pageshadow="2"
     inkscape:zoom="0.34929476"
     inkscape:cx="161.551"
     inkscape:cy="688.9536"
     inkscape:document-units="mm"
     inkscape:current-layer="layer1"
     showgrid="false"
     fit-margin-top="0"
     fit-margin-left="0"
     fit-margin-right="0"
     fit-margin-bottom="0"
     inkscape:snap-page="true"
     inkscape:window-width="3368"
     inkscape:window-height="1376"
     inkscape:window-x="72"
     inkscape:window-y="27"
     inkscape:window-maximized="1"
     units="px" />
  <metadata
     id="metadata7020">
    <rdf:RDF>
      <cc:Work
         rdf:about="">
        <dc:format>image/svg+xml</dc:format>
        <dc:type
           rdf:resource="http://purl.org/dc/dcmitype/StillImage" />
        <dc:title></dc:title>
      </cc:Work>
    </rdf:RDF>
  </metadata>
  <g
     inkscape:label="Layer 1"
     inkscape:groupmode="layer"
     id="layer1"
     transform="translate(330.32645,170.48402)">
    <rect
       style="opacity:1;vector-effect:none;fill:#004578;fill-opacity:1;stroke:none;stroke-width:0.50524521;stroke-linecap:butt;stroke-linejoin:miter;stroke-miterlimit:4;stroke-dasharray:2.02098088, 0.50524522;stroke-dashoffset:0;stroke-opacity:1;paint-order:stroke fill markers"
       id="rect7591"
       width="541.86664"
       height="541.86664"
       x="-330.32645"
       y="-170.48401" />
    <g
       id="g7595"
       transform="matrix(0.91856802,0,0,0.91856802,-3.1472265,4.7049983)">
      <path
         d="m 3.4105021,335.1961 -4.28378996,-17.8068 c 5.71393996,1.48519 11.61025986,2.85149 17.66392986,4.14054 -4.3956,4.98086 -8.8405999,9.62732 -13.3801399,13.66626 m -15.5903101,11.68752 -5.76829,-33.88572 c 2.14985,0.5447 4.3039,1.0908 6.47595,1.66302 l 6.5539101,27.25912 c -2.39501,1.7953 -4.82248,3.41595 -7.2615701,4.96358 m -17.07375,8.78734 -4.70569,-46.33806 c 1.92685,0.37854 3.86432,0.84031 5.79612,1.26931 l 7.04075,41.36813 c -2.68782,1.34514 -5.38657,2.64017 -8.13118,3.70062 m -18.13737,4.81896 -1.80763,-53.46594 c 1.79141,0.18309 3.57822,0.4766 5.36257,0.72565 l 5.18266,51.02754 c -2.8716,0.75565 -5.80107,1.25026 -8.7376,1.71275 m -14.12452,1.22979 c -1.51765,0 -2.9859,-0.20815 -4.48626,-0.28189 l 1.85879,-54.96488 c 0.90027,-0.0214 1.78152,-0.15029 2.68534,-0.151 0.86325,0.003 1.70638,0.12594 2.56611,0.14711 l 1.85844,54.96949 c -1.4986,0.0737 -2.96582,0.27974 -4.48242,0.28117 m -14.12838,-1.23016 c -2.93582,-0.46212 -5.86352,-0.95742 -8.73337,-1.71307 l 5.18266,-51.03071 c 1.78364,-0.24871 3.56764,-0.54682 5.35869,-0.7292 z m -18.13348,-4.81893 c -2.74603,-1.06117 -5.44584,-2.35691 -8.134712,-3.7024 l 7.044622,-41.3685 c 1.93217,-0.42931 3.86856,-0.89112 5.79649,-1.27069 z m -17.076212,-8.78946 c -2.43875,-1.54728 -4.86445,-3.16653 -7.25876,-4.96112 l 6.55602,-27.26055 c 2.17029,-0.57185 4.3233,-1.11829 6.47277,-1.66264 z m -15.58749,-11.6854 c -4.5399,-4.03932 -8.98525,-8.68506 -13.38192,-13.66626 6.05402,-1.28976 11.9507,-2.65573 17.66429,-4.14091 z m -50.79188,-18.73076 8.66246,-16.48706 c 3.39336,4.93395 6.92608,9.92222 10.71632,14.91404 -6.70348,0.9077 -13.21717,1.51976 -19.37878,1.57302 m -10.6927,-0.44272 c -3.01307,-0.23567 -5.92737,-0.63746 -8.80286,-1.10101 l 18.17441,-29.54761 c 1.26788,1.84573 2.53752,3.683 3.81,5.55977 z m -27.49161,-5.96583 27.20586,-38.1494 c 1.21567,1.59952 2.39148,3.25192 3.57646,4.8895 l -22.13433,35.98545 c -2.94534,-0.79904 -5.85717,-1.65697 -8.64799,-2.72555 m -16.85361,-8.7362 34.06881,-41.45631 c 1.26682,1.38324 2.44792,2.84128 3.65901,4.26825 l -29.9152,41.94916 c -2.70158,-1.40864 -5.26733,-3.06599 -7.81262,-4.7611 m -11.02183,-8.51392 c -1.27459,-1.15395 -2.34139,-2.51777 -3.54013,-3.74793 l 37.66149,-39.86106 c 0.75424,0.6844 1.5547,1.28976 2.29624,1.99707 0.6417,0.57539 1.1811,1.21957 1.80622,1.80552 l -34.9123,42.48256 c -1.0922,-0.91403 -2.25072,-1.7018 -3.31152,-2.67616 m -9.97938,-11.01301 c -1.93852,-2.5199 -3.76908,-5.14387 -5.4483,-7.91353 l 37.48263,-34.47661 c 1.57798,1.15464 3.17536,2.28634 4.71276,3.49707 z m -13.82078,-25.99198 32.28305,-25.71221 c 1.85561,1.18711 3.64737,2.41654 5.46417,3.62762 l -33.98484,31.26494 c -1.38007,-2.94852 -2.63525,-6.00429 -3.76238,-9.18035 m -5.28002,-19.84092 22.44231,-15.34972 c 1.61537,1.0093 3.24097,2.03342 4.84223,3.02754 0.5401,0.3355 1.05763,0.66604 1.5949,1.00013 l -26.75007,21.30602 c -0.82268,-3.24099 -1.54305,-6.55709 -2.12937,-9.98397 m -2.06834,-31.86078 c 5.2511,3.9229 10.47009,7.49054 15.64817,10.85358 l -14.94755,10.22702 c -0.6343,-6.63504 -0.84455,-13.67685 -0.70062,-21.0806 m -27.25525,-39.76227 c -1.79388,-2.60845 -3.40537,-5.25357 -4.9403,-7.91282 l 32.38076,-5.9944 c -0.56198,2.38091 -1.12677,4.76779 -1.71344,7.17479 z m 19.21721,22.36575 c -4.75333,-4.59353 -9.20679,-9.23573 -13.05771,-13.98201 l 17.04022,-4.4605 c -1.42734,5.96688 -2.74073,12.12321 -3.98251,18.44251 m -32.47672,-48.09667 44.27608,-4.89373 c -0.39335,2.15125 -0.88018,4.31199 -1.33244,6.46782 l -39.2878,7.27286 c -1.34197,-2.92168 -2.60915,-5.86033 -3.65584,-8.84695 m -4.57094,-18.91876 51.0226,-1.87325 c -0.17745,2.00694 -0.46567,4.00613 -0.72249,6.00358 l -48.5835,5.36961 c -0.756,-3.12137 -1.26435,-6.30378 -1.71661,-9.49994 m -1.12889,-14.51928 c 0,-1.64923 0.2039,-3.24451 0.2794,-4.87397 l 52.2993,1.92016 c 0.0138,1.00894 0.14535,1.99284 0.13335,3.00779 0.0116,0.97755 -0.11641,1.92722 -0.12947,2.89983 l -52.30318,1.92053 c -0.0755,-1.62983 -0.27834,-3.22511 -0.2794,-4.87434 m 2.8455,-24.019222 48.57856,5.36927 c 0.25718,1.99673 0.54751,3.99556 0.72531,6.00428 l -51.02048,-1.8736 c 0.45226,-3.19617 0.96061,-6.37858 1.71661,-9.49995 m 6.51017,-18.26578 39.28674,7.27251 c 0.4512,2.15512 0.93768,4.31553 1.33103,6.46783 l -44.27361,-4.89338 c 1.04669,-2.98662 2.31387,-5.92525 3.65584,-8.84696 m 9.59908,-16.87795 25.73161,6.72712 c 0.58667,2.40701 1.15146,4.7939 1.71309,7.17409 l -32.38041,-5.99404 c 1.53352,-2.65748 3.1443,-5.30084 4.93571,-7.90717 m 19.21969,-22.36999 c 1.24107,6.31966 2.55446,12.47493 3.98286,18.44181 l -17.04305,-4.45699 c 3.85163,-4.74733 8.30615,-9.38989 13.06019,-13.98482 m 8.74077,-40.34578 14.9539,10.2249099 c -5.17984,3.36374 -10.40025,6.93313996 -15.65416,10.85744 -0.14359,-7.40551 0.066,-14.4476599 0.70026,-21.0823499 m 3.49991,-20.76732 26.7529,21.30778 c -0.5394,0.33513 -1.05869,0.6671 -1.60055,1.00365 -1.6002,0.99342 -3.22475,2.01718 -4.8387,3.02507 l -22.44584,-15.34725 c 0.58667,-3.42864 1.3081,-6.74687 2.13219,-9.98925 m 6.91338,-19.03448 33.98979,31.26493 c -1.81716,1.21074 -3.60821,2.43875 -5.46629,3.62691 l -32.28587,-25.71468 c 1.12642,-3.17429 2.3816,-6.22935 3.76237,-9.17716 m 10.0577,-16.806684 36.74886,38.895514 c -1.53494,1.20791 -3.13408,2.33891 -4.711,3.4932 l -37.48299,-34.482964 c 1.67781,-2.766132 3.50803,-5.387975 5.44513,-7.90575 m 10.00372,-11.038417 c 1.05198,-0.965904 2.20133,-1.746602 3.28471,-2.653242 l 34.90912,42.478673 c -0.6611,0.62125 -1.23119,1.29999 -1.91099,1.90959 -0.70415,0.67169 -1.46897,1.24848 -2.18546,1.90006 l -37.6622,-39.862123 c 1.20685,-1.238953 2.28141,-2.610908 3.56482,-3.772958 m 18.81116,-13.254567 29.90709,41.944928 c -1.21109,1.42734 -2.38866,2.88642 -3.65689,4.27178 l -34.0674,-41.453853 c 2.5467,-1.696157 5.11316,-3.354213 7.8172,-4.762855 m 17.68793,-6.69431 22.13186,35.973808 c -1.18568,1.637946 -2.3622,3.291417 -3.57963,4.892321 l -27.19705,-38.143749 c 2.79012,-1.06715 5.70053,-1.92405 8.64482,-2.72238 m 18.84362,-3.23956 13.17978,25.077917 c -1.27247,1.876425 -2.54282,3.714395 -3.81035,5.560128 l -18.17159,-29.537025 c 2.87585,-0.4632 5.78944,-0.86536 8.80216,-1.10102 m 30.06514,1.12607 c -3.78919,4.9911 -7.32155,9.975497 -10.71316,14.906623 l -8.65893,-16.476133 c 6.16056,0.0536 12.67248,0.66463 19.37209,1.56951 m 31.4145,-20.30765 4.28484,17.80716 c -5.71571,-1.4852 -11.61203,-2.85009 -17.66676,-4.13879 4.39632,-4.98193 8.84167,-9.62872 13.38192,-13.66837 m 15.5889,-11.68788 5.7718,33.89453 c -2.14666,-0.54645 -4.29966,-1.09502 -6.47277,-1.66829 l -6.5592,-27.26266 c 2.39466,-1.79599 4.82177,-3.41665 7.26017,-4.96358 m 17.077272,-8.79087 4.70887,46.37651 c -1.92687,-0.38064 -3.86503,-0.84737 -5.79578,-1.28058 l -7.049212,-41.39283 c 2.689232,-1.3462 5.390092,-2.6423 8.136122,-3.7031 m 18.13348,-4.81895 1.80869,53.493459 c -1.79317,-0.180269 -3.57576,-0.467784 -5.35693,-0.715434 l -5.18513,-51.065285 c 2.86985,-0.756 5.79826,-1.2506 8.73337,-1.71274 m 14.12452,-1.23013 c 1.51765,0 2.9859,0.20814 4.48628,0.28151 l -1.85844,54.97795 c -0.90101,0.01553 -1.77906,0.144992 -2.6857,0.137583 -0.86784,0 -1.70392,-0.122415 -2.56575,-0.140758 l -1.85879,-54.975125 c 1.49859,-0.0737 2.96581,-0.27975 4.4824,-0.28116 m 14.12838,1.23013 c 2.93619,0.4632 5.86634,0.95779 8.7376,1.71415 l -5.18864,51.096684 c -1.78294,0.248004 -3.56552,0.543983 -5.35871,0.722138 z m 18.13703,4.82071 c 2.74495,1.06045 5.44441,2.35656 8.13258,3.7024 l -7.0485,41.41117 c -1.93112,0.43568 -3.8675,0.90453 -5.79544,1.28835 z m 17.07444,8.78946 c 2.4373401,1.54658 4.8633801,3.16583 7.2569901,4.96041 l -6.5535501,27.26619 c -2.1717,0.57397 -4.3254,1.12501 -6.47382,1.67428 z m 15.5867801,11.684 c 4.54166,4.04072 8.9891199,8.68892 13.3879199,13.6719 -6.05544,1.28799 -11.9528199,2.65324 -17.66886986,4.13808 z M 27.828712,307.83112 c -1.33739,1.77237 -2.58056,3.55002 -3.97862,5.31461 -10.52478,-2.0133 -20.5627299,-4.58894 -30.2341199,-7.1628 -18.5480101,-4.91596 -36.1053901,-9.57051 -55.0735501,-9.32392 -19.04894,-0.18486 -36.64514,4.40796 -55.193142,9.32392 -9.66682,2.57386 -19.70475,5.14913 -30.232,7.16245 -6.92608,-8.74149 -13.05524,-17.62302 -18.9043,-26.24949 -10.5417,-15.55044 -20.4978,-30.23024 -34.52248,-42.79829 -12.07488,-11.52808 -25.48325,-19.85788 -39.67726,-28.6738 -11.05324,-6.86503 -22.45678,-14.02572 -33.76331,-23.00851 1.89372,-10.35968 4.20864,-20.30658 6.54579,-29.86899 4.71241,-19.31104 9.16658,-37.55073 8.93128,-57.32391 0.2353,-19.873392 -4.21887,-38.113052 -8.93128,-57.416352 -2.46062,-10.07639 -4.92901,-20.53237 -6.8654,-31.50305 11.41095,-9.1037901 22.92561,-16.32515014 34.08292,-23.2547601 14.19401,-8.8155599 27.60238,-17.1457099 39.56967,-28.5732399 14.13227,-12.6686 24.08449,-27.35579 34.62196,-42.898478 5.84976,-8.622948 11.97716,-17.505892 18.90889,-26.2509 10.52371,2.01295 20.55812,4.58858 30.22388,7.155744 18.548002,4.924073 35.889852,9.547579 55.085192,9.323916 19.24156,0.41628 36.65677,-4.399843 55.2012601,-9.323916 9.66822,-2.567164 19.7040499,-5.142794 30.2326999,-7.155744 1.46544,1.84961 2.77248,3.7151 4.1716,5.57389 l 3.82588,-16.60137 c -1.37938,0.19897 -2.68605,0.2794 -4.08623,0.51118 -26.6530699,-32.00824 -55.86979,-47.70508 -89.28735,-47.72766 -33.4197,0.0226 -62.638522,15.72083 -89.278532,47.7273 -41.59638,-6.88834 -74.06146,0.79269 -98.98309,23.690442 -14.14427,12.799483 -24.08873,29.767736 -29.56737,50.427466 -4.08551,15.48624 -5.52838,32.8037499 -4.55365,52.71382 -31.15945,27.93223 -46.40192,58.53535 -46.4245,93.527732 0.0226,34.97228 15.24953,65.55952 46.37335,93.47906 -0.79481,19.12549 0.64664,35.89444 4.6048,50.90547 5.47864,20.65163 15.4231,37.62023 29.5402,50.39643 24.94633,22.90691 57.40823,30.60311 99.01519,23.71267 26.63966,32.00294 55.854962,47.69837 89.277462,47.7206 33.42111,-0.0222 62.6413501,-15.71909 89.27677,-47.72025 1.49966,0.2487 2.91465,0.36123 4.39314,0.57573 z"
         style="fill:#ffffff;fill-opacity:1;fill-rule:nonzero;stroke:none;stroke-width:0.35277775"
         id="path144"
         inkscape:connector-curvature="0" />
      <path
         d="m 160.01211,186.70355 c -1.24177,-6.31968 -2.55553,-12.47669 -3.98391,-18.44358 l 17.04409,4.46122 c -3.85091,4.74628 -8.3058,9.38882 -13.06018,13.98236 m -8.22396,-36.27332 32.38359,5.99475 c -1.53424,2.65887 -3.14642,5.30402 -4.93995,7.91244 l -25.73195,-6.73381 c -0.58632,-2.40702 -1.15078,-4.79319 -1.71169,-7.17338 m -1.07985,74.74866 -14.9479,-10.22668 c 5.17843,-3.36301 10.39672,-6.93171 15.64852,-10.85427 0.14287,7.40659 -0.0674,14.44943 -0.70062,21.08095 m -3.49745,20.76661 -26.75043,-21.30777 c 0.53695,-0.33372 1.05376,-0.66429 1.59316,-0.99941 1.6016,-0.99449 3.22826,-2.0193 4.84399,-3.0286 l 22.44302,15.35464 c -0.58632,3.42725 -1.30704,6.7423 -2.12974,9.98114 m -6.91409,19.03696 -33.98448,-31.26812 c 1.81681,-1.21107 3.60714,-2.4384 5.46489,-3.62653 l 32.28445,25.71043 c -1.12749,3.17712 -2.38373,6.23464 -3.76486,9.18422 m -10.05946,16.80705 -36.749908,-38.8927 c 1.53636,-1.20967 3.13584,-2.34174 4.71559,-3.4971 l 37.482618,34.47981 c -1.67886,2.76754 -3.50977,5.39044 -5.4483,7.90999 m -10.0023,11.03982 c -1.05268,0.96625 -2.20274,1.74765 -3.28647,2.65464 L 82.043632,253.00072 c 0.6604,-0.61984 1.22944,-1.29751 1.90818,-1.90643 0.70379,-0.67132 1.46791,-1.2474 2.18369,-1.89828 l 37.663618,39.86001 c -1.20685,1.23931 -2.28071,2.61054 -3.56412,3.77331 m -18.81151,13.25139 -29.908498,-41.94493 c 1.21179,-1.42803 2.39041,-2.88748 3.66006,-4.27355 l 34.062458,41.45881 c -2.54564,1.69473 -5.11175,3.35137 -7.81402,4.75967 m -17.689698,6.69361 -22.13186,-35.97452 c 1.18567,-1.6383 2.3622,-3.2907 3.57928,-4.89162 l 27.19882,38.14445 c -2.78976,1.06752 -5.70161,1.92371 -8.64624,2.72169 m -18.84786,3.23744 -13.17625,-25.07826 c 1.27284,-1.87608 2.54284,-3.71301 3.81072,-5.55943 l 18.17121,29.53771 c -2.87689,0.46287 -5.79189,0.86466 -8.80568,1.09998 m -30.06124,-1.12254 c 3.78952,-4.99145 7.32155,-9.97763 10.71208,-14.90946 l 8.65611,16.47507 c -6.15844,-0.0529 -12.66825,-0.66251 -19.36819,-1.56561 M 149.54697,140.18096 c -0.45085,-2.15511 -0.93663,-4.31551 -1.33033,-6.46747 l 44.27326,4.89267 c -1.04635,2.98699 -2.31352,5.92561 -3.65548,8.84767 z m -3.50486,-22.36644 51.01907,1.87325 c -0.45262,3.19616 -0.95956,6.37786 -1.71627,9.49922 l -48.57784,-5.36855 c -0.25683,-1.99673 -0.5475,-3.99486 -0.72496,-6.00392 m -0.56269,-12.70778 c -0.0116,-0.97473 0.11607,-1.92262 0.12843,-2.89206 l 52.30389,-1.92053 c 0.0755,1.62912 0.27869,3.22509 0.27974,4.87434 0,1.64923 -0.20425,3.24519 -0.27974,4.87431 l -52.29897,-1.92016 c -0.0138,-1.01176 -0.14534,-1.99779 -0.13335,-3.0159 m 1.2827,-18.587852 48.58279,-5.36928 c 0.75671,3.12173 1.26365,6.30343 1.71627,9.4996 l -51.02119,1.8736 c 0.17709,-2.00695 0.46461,-4.0072 0.72213,-6.00392 m 2.7859,-16.3636 39.2864,-7.27216 c 1.34196,2.9217 2.60913,5.8607 3.65548,8.84766 l -44.27397,4.89268 c 0.39404,-2.15018 0.88053,-4.31236 1.33209,-6.46818 m 3.955,-17.42228 25.73266,-6.72818 c 1.7921,2.60667 3.40288,5.25004 4.93606,7.90716 l -32.38042,5.99405 c 0.56163,-2.37949 1.12572,-4.76603 1.7117,-7.17303 m 6.51121,-29.09817 c 4.75509,4.59493 9.21067,9.23854 13.063,13.98658 l -17.04551,4.45699 c 1.42803,-5.96653 2.74108,-12.12285 3.98251,-18.44357 M 135.75299,-6.4846221 150.70724,-16.714832 c 0.63394,6.63611 0.84455,13.6803699 0.70168,21.0894099 -5.25428,-3.92500004 -10.47504,-7.49511 -15.65593,-10.8592 m -13.69941,-8.6815099 c -0.54081,-0.3362 -1.0601,-0.66746 -1.59845,-1.00224 l 26.75609,-21.31025 c 0.82233,3.23885 1.54234,6.55391 2.12794,9.97973 l -22.44548,15.35854 c -1.6143,-1.00824 -3.23955,-2.03236 -4.8401,-3.02578 m -10.28136,-6.45336 c -1.85632,-1.1871 -3.64808,-2.41689 -5.46489,-3.62832 l 33.98943,-31.26705 c 1.38078,2.94816 2.63631,6.00392 3.76309,9.17928 z M 93.491632,-34.429212 130.23979,-73.32049 c 1.93709,2.517423 3.76449,5.139267 5.44264,7.905044 l -37.479098,34.482964 c -1.57763,-1.15534 -3.17429,-2.2867 -4.7117,-3.49673 m -9.64743,-8.2931 c -0.64169,-0.57573 -1.1811,-1.21955 -1.8062,-1.80551 l 34.910528,-42.483971 c 1.09254,0.914751 2.25179,1.702503 3.31329,2.677935 1.27424,1.153935 2.34067,2.517068 3.53941,3.74791 l -37.663248,39.858946 c -0.7539,-0.68368 -1.55294,-1.28834 -2.29378,-1.99531 m -8.67304,-8.67022 c -1.26682,-1.38324 -2.44827,-2.84092 -3.65866,-4.2679 l 29.909218,-41.953041 c 2.70264,1.408996 5.26944,3.06705 7.8165,4.763558 z m -9.98995,-12.043476 c -1.21708,-1.601613 -2.39501,-3.255788 -3.58106,-4.89585 l 22.13928,-35.980162 c 2.94322,0.79869 5.85295,1.65559 8.64166,2.72274 z m -13.47258,-19.031657 13.18331,-25.084615 c 3.01413,0.23565 5.92913,0.63711 8.80639,1.10102 l -18.17865,29.543727 c -1.26753,-1.845734 -2.53788,-3.683352 -3.81105,-5.560132 m -16.87971,-23.953255 c 6.70066,-0.90664 13.21046,-1.51942 19.36925,-1.57339 l -8.66034,16.478602 c -3.39053,-4.93254 -6.92113,-9.917642 -10.70891,-14.905212 M 207.86216,105.16849 c -0.0268,-35.216402 -15.42661,-65.986742 -46.97727,-94.050562 0.91969,-19.6885301 -0.51789,-36.85646 -4.56742,-52.19876 -5.47476,-20.64421 -15.42309,-37.612461 -29.5402,-50.396424 -24.94526,-22.913974 -57.396938,-30.602064 -99.009198,-23.713374 -10.04922,1.39948 -3.91126,10.51631 -3.91126,10.51631 6.92468,8.740422 13.05597,17.625837 18.90361,26.250902 10.53748,15.542676 20.48968,30.229876 34.51825,42.797936 12.07522,11.52808 25.479378,19.85045 39.673378,28.6660199 11.31747,7.03649996 23.00536,14.345 34.57506,23.6424601 -1.92511,10.82957 -4.35928,21.17231 -6.79133,31.13087 -4.71207,19.30294 -9.16622,37.53521 -8.92704,57.292872 -0.23918,19.88891 4.21497,38.12116 8.92704,57.43188 2.30823,9.45126 4.58928,19.27437 6.47205,29.49681 -11.46458,9.1761 -23.04203,16.42428 -34.25578,23.39621 -14.194,8.81557 -27.598158,17.13796 -39.561558,28.56547 -14.14039,12.66825 -24.09648,27.34839 -34.63396,42.89885 -5.84798,8.62471 -11.97573,17.50412 -18.90641,26.24985 0,0 -6.78109,9.02263 3.91125,10.51628 9.73384,1.61222 19.02812,2.5259 27.77525,2.5259 28.64662,-0.008 52.126088,-8.68468 71.213848,-26.21526 14.14391,-12.80726 24.09224,-29.77552 29.567,-50.42712 3.91866,-14.85265 5.36117,-31.45896 4.61891,-50.37527 31.51399,-28.05146 46.89898,-58.80557 46.92578,-94.00185"
         style="fill:#00cabb;fill-opacity:1;fill-rule:nonzero;stroke:none;stroke-width:0.35277775"
         id="path148"
         inkscape:connector-curvature="0" />
    </g>
  </g>
</svg>
