<?xml version="1.0" encoding="utf-8"?>
<!-- Generator: Adobe Illustrator 25.3.1, SVG Export Plug-In . SVG Version: 6.00 Build 0)  -->
<svg version="1.1" id="Layer_1" xmlns="http://www.w3.org/2000/svg" xmlns:xlink="http://www.w3.org/1999/xlink" x="0px" y="0px"
	 viewBox="0 0 1743.32 619.45" style="enable-background:new 0 0 1743.32 619.45;" xml:space="preserve">
<style type="text/css">
	.st0{fill:#649747;}
	.st1{fill:#FFFFFF;}
	.st2{fill:#524C40;}
	.st3{fill:#5687A1;}
	.st4{fill:#EB6E23;}
	.st5{fill:#87C440;}
</style>
<path class="st0" d="M1080.59,321c-0.02,43.48-11.57,83.69-36.41,119.34c-44.12,63.32-105.44,95.17-182.51,94.45
	c-99.74-0.94-186.66-75.08-205.12-173.33c-2.51-13.37-4.16-26.82-3.78-40.46c7.86-0.24,15.66,0.45,23.45,1.32
	c71.13,9.34,125.14,44.78,162.05,106.3c0.37,0.62,0.79,1.2,1.18,1.8c14.39,26.41,23.29,54.56,27.15,84.67
	c2.63-15.1,5.92-29.9,9.82-44.56c1.24-3.45,2.48-6.89,3.73-10.34c2.18-5.42,4.37-10.84,6.55-16.25
	c7.24-13.11,14.32-26.3,23.57-38.18c36.21-46.54,83.4-74.24,141.79-82.78c1.61-0.24,3.19-0.61,4.79-0.92
	C1064.76,321.7,1072.68,321.35,1080.59,321z"/>
<path class="st0" d="M886.71,443.93c-2.18,5.42-4.37,10.84-6.55,16.25c-10.08-17.66-17.97-36.1-21.46-56.33
	c-2-11.61-5.82-22.75-13.05-32.36c-1.15-1.53-1.89-3.99-5.04-3.64c5.03,11.44,7,23.31,8.62,35.22c3.37,24.8,12,47.44,27.21,67.45
	c-3.91,14.66-7.19,29.47-9.82,44.56c-3.86-30.11-12.77-58.26-27.15-84.67c6.05-20.41,3.85-40.32-3.79-59.85
	c-3.04-7.76-7.44-14.8-12.34-21.67c10.89-1.41,20.23,5.55,31.95,23.9c1.23-9.97,0.31-19.13-2.22-28.08
	c-6.7-23.7-20.54-41.99-42.22-53.89c-16.17-8.88-33.17-16.16-48.14-27.29c-10.52-7.82-19.84-16.77-28.82-26.18
	c-17.08-17.92-29.08-38.93-36.78-62.33c-2.91-8.85-6.15-18.15-6.18-27.25c-0.04-9.87-2.56-19.52-0.8-29.71
	c1.68-9.65,3.12-19.4,5.04-29.24c8.92,23.93,21.22,45.7,38.62,64.39c5.01,6.23,10.18,12.3,16.81,16.91c0.54,2.14,2.5,3.03,3.95,4.31
	c11,9.73,22.99,18.1,35.39,25.97c35.67,22.63,60.05,53.78,70.84,95.01c2.52,9.61,3.61,19.48,5.1,29.32
	c3.17-8.47,4.56-17.2,4.99-26.03c1.91-38.9-4.58-76.35-19.9-112.19c-7.33-17.15-12.18-35.06-16.74-53.07
	c-0.88-7.87-1.76-15.73-2.63-23.6c-1.73-25.29,1.48-49.82,11.17-73.37c4.12-10.02,9.27-19.48,16.15-28.15
	c-0.72,4.1-1.57,8.19-2.15,12.32c-4.14,29.41,1.95,57.6,10.32,85.5c6.69,22.31,15.57,43.9,21.3,66.55
	c12.37,48.94,8.3,96.67-9.38,143.59c2,0.65,2.25-0.96,2.81-1.93c19.39-33.74,45.13-61.87,75.41-86.13
	c16.09-12.89,29.69-28.09,39.57-46.37c4.48-7,8.08-14.41,10.48-22.39c4.77-11.12,6.47-22.86,6.97-34.84
	c0.08-1.98,0.17-3.95,0.26-5.93l-0.09,0.09c5.02,9.92,7.24,20.71,8.63,31.53c8.9,69.38-16.74,122.64-75.54,160.16
	c-18.53,11.82-36.72,24.16-50.9,41.2c-22.31,26.82-25.58,56.51-11.68,88.29C885.48,441.31,886.11,442.62,886.71,443.93z
	 M840.23,290.76c0.29,0.56,0.59,1.12,0.88,1.67c0.71-0.78,0.42-1.59,0.07-2.4c-14.36-26.06-34.94-46.32-58.82-63.63
	c-31.98-23.18-56.03-53.08-73.73-88.26c-0.48-0.95-0.22-3.16-2.81-2.55c1.31,4.32,2.5,8.58,3.88,12.77
	c12.08,36.48,34.88,65.14,65.35,87.8C797.86,253.11,821.01,269.56,840.23,290.76z M880.86,343.97
	c13.71-16.47,28.89-31.44,45.76-44.66c10.4-8.15,21.3-15.69,31.38-24.21c24.14-20.4,42.68-44.69,50.54-75.99
	c1.95-7.75,1.99-8.95,0.76-13.62c-6.25,21.33-18.64,38.48-33.52,54.07c-11.28,11.82-23.8,22.25-36.5,32.49
	c-24.51,19.74-45.61,42.35-59.37,71.08c-0.33,0.49-0.66,0.97-0.99,1.46C879.78,345.06,880.43,344.86,880.86,343.97z M880.93,249.02
	c0.57,0.01,1.14,0.03,1.72,0.04c0.43-4.05,1.01-8.09,1.27-12.16c1.85-29.27-3.85-57.18-15.56-83.94
	c-7.61-17.39-14.53-35.02-18.56-53.63c-1.15-5.29-2.05-10.65-2.75-16.01c-0.67-5.15-0.95-10.35-1.4-15.53
	c-1.07,2.09-1.63,4.16-1.9,6.27c-3.52,26.87,1.34,52.57,11.35,77.43c9.11,22.62,18.39,45.16,22.92,69.27
	C879.76,230.08,880.89,239.48,880.93,249.02z"/>
<path class="st0" d="M750.59,172.13c-6.63-4.61-11.8-10.69-16.81-16.91c28.83-22.96,61.4-37.49,97.8-43.37
	c0.88,7.87,1.76,15.73,2.63,23.6C803.38,140.93,775.57,153.3,750.59,172.13z"/>
<path class="st0" d="M1007.26,161.48c-2.4,7.97-6,15.39-10.48,22.39c-20.35-18.37-43.25-32.47-69.34-41.17
	c-2.22-0.74-3.19-1.99-3.75-4.06c-1.81-6.61-3.64-13.21-5.59-19.78c-1.1-3.72,0.24-3.87,3.4-3.01
	C953.56,124.56,982.26,139.54,1007.26,161.48z"/>
<path class="st0" d="M1080.59,321c-7.91,0.35-15.83,0.7-23.74,1.04c0.16-16.51-1.95-32.75-6.06-48.72
	c-0.51-1.98-0.92-3.72,0.61-5.55c5.66-6.78,10.41-14.21,15.43-22.83C1076.14,270.1,1081.04,295.04,1080.59,321z"/>
<path class="st0" d="M899.18,109c-2.68-11.6-6.43-22.94-8.01-34.84c-0.67-5.02,0.26-8.26,4.51-10.79c2.14-1.27,4.04-2.93,6.54-4.77
	c1.03,9.26,1.65,18.01,3.02,26.64c3.19,20.08,9.24,39.37,16.52,58.34c7.23,18.85,11.27,38.2,6.8,58.45
	c-1.55,7.02-3.8,13.81-8.37,19.78c9.02-30.57,1.81-58.93-11.06-86.56C905.81,126.5,902.49,117.75,899.18,109z"/>
<path class="st0" d="M694.75,238.94c14.37,18.15,32.3,31.99,52.37,43.26c8.17,4.59,16.81,8.19,26.05,11.92
	c-2.88,1.56-4.99,0.27-7.01-0.27c-44.99-12.2-79.57-37.86-101.95-79.18c-0.6-1.11-1.17-2.25-1.68-3.4
	c-4.28-9.55-4.21-10.18,2.36-20.06c4.67,9.1,8.22,18.52,14.28,26.53C683.67,225.3,688.71,232.49,694.75,238.94z"/>
<path class="st0" d="M1055.55,219.34c2.39-9.69,4.1-19.47,4.31-29.77c3.17,8.68,6.52,17.3,9.38,26.08c0.58,1.79-0.41,4.23-1.03,6.26
	c-11.63,38.14-35.26,66.72-69.41,86.86c-1.37,0.81-2.73,1.92-4.6,0.99c21.08-15.99,37.48-35.84,49.44-59.39
	C1049.12,240.62,1052.62,230.09,1055.55,219.34z"/>
<path class="st0" d="M1055.55,219.34c-2.93,10.75-6.43,21.27-11.91,31.04c-5.02-10.75-9.91-21.57-16.46-31.51
	c-0.87-1.32-1.14-2.61-0.77-4.09c2.43-9.72,4.02-19.58,4.73-30.7C1041.24,195.41,1048.27,207.47,1055.55,219.34z"/>
<path class="st0" d="M676.22,322.32c-7.79-0.87-15.6-1.57-23.45-1.32c-0.42-13.22,1.28-26.24,3.44-39.24
	c0.51-3.09,1.56-3.76,4.61-2.63c5.22,1.94,10.61,3.46,15.98,4.99c2.39,0.68,3.15,1.92,2.66,4.32
	C677.17,299.61,676.88,310.98,676.22,322.32z"/>
<path class="st0" d="M659.24,267.64c3.05-10.52,6.15-21.03,11.03-31.55c5.3,6.57,10.69,12.56,16.69,17.94
	c1.76,1.58,0.6,2.97,0.13,4.37c-2.27,6.83-4.45,13.68-5.77,20.77C673.96,275.34,666.6,271.49,659.24,267.64z"/>
<path class="st0" d="M694.75,238.94c-6.04-6.45-11.08-13.64-15.58-21.22c4.57-8.55,9.83-16.65,15.78-24.57
	c4.2,7.28,8.08,14.13,12.12,20.89c0.92,1.53,0.61,2.55-0.19,3.91C702.78,224.92,698.78,231.94,694.75,238.94z"/>
<path class="st0" d="M899.18,111c3.32,8.75,6.64,17.5,9.95,26.24c-8.18-1.24-16.26-3.23-24.57-3.57c-2.34-0.09-3.09-1.63-3.58-3.38
	c-1.93-6.91-3.77-13.85-5.86-21.58C883.53,109.52,891.35,110.26,899.18,111z"/>
<path class="st0" d="M659.24,267.64c7.36,3.85,14.72,7.69,22.08,11.54c8.35,4.2,16.71,8.41,25.06,12.61
	c-0.17,0.41-0.35,0.82-0.52,1.24c-28.91-11.39-57.81-22.78-86.97-34.27c6.35-5.13,12.07-5.93,18.99-1.55
	C644.54,261.41,652.09,264.22,659.24,267.64z"/>
<path class="st0" d="M1014.48,120.72c-0.23-0.17-0.45-0.33-0.68-0.5c0.14-0.11,0.28-0.22,0.42-0.34c0.06,0.31,0.12,0.61,0.17,0.92
	C1014.39,120.8,1014.48,120.72,1014.48,120.72z"/>
<g>
	<path class="st1" d="M48.44,278.58c2.76,0,5.41,0.26,7.95,0.78s4.78,1.41,6.71,2.66s3.48,2.91,4.64,4.96
		c1.16,2.06,1.75,4.61,1.75,7.67c0,1.72-0.28,3.39-0.83,5.01c-0.55,1.62-1.33,3.09-2.34,4.41c-1.01,1.32-2.21,2.43-3.58,3.35
		c-1.38,0.92-2.93,1.56-4.64,1.93v0.18c4.23,0.55,7.59,2.28,10.11,5.19c2.51,2.91,3.77,6.51,3.77,10.79c0,1.04-0.09,2.22-0.28,3.54
		c-0.18,1.32-0.55,2.66-1.1,4.04c-0.55,1.38-1.35,2.74-2.39,4.09c-1.04,1.35-2.43,2.53-4.18,3.54c-1.75,1.01-3.89,1.84-6.43,2.48
		c-2.54,0.64-5.59,0.97-9.14,0.97H20.69v-65.6H48.44z M48.44,307.34c2.51,0,4.69-0.29,6.52-0.87c1.84-0.58,3.37-1.38,4.59-2.39
		c1.22-1.01,2.14-2.19,2.76-3.54c0.61-1.35,0.92-2.79,0.92-4.32c0-8.21-4.93-12.31-14.79-12.31h-21.5v23.43H48.44z M48.44,338.86
		c2.33,0,4.53-0.2,6.62-0.6c2.08-0.4,3.92-1.11,5.51-2.16c1.59-1.04,2.85-2.43,3.77-4.18c0.92-1.75,1.38-3.93,1.38-6.57
		c0-4.23-1.49-7.4-4.46-9.51c-2.97-2.11-7.24-3.17-12.82-3.17h-21.5v26.19H48.44z"/>
	<path class="st1" d="M90.52,278.58v65.6h-6.25v-65.6H90.52z"/>
	<path class="st1" d="M104.49,298.43c1.29-4.1,3.22-7.73,5.79-10.89c2.57-3.15,5.8-5.66,9.69-7.53c3.89-1.87,8.41-2.8,13.55-2.8
		c5.14,0,9.65,0.93,13.51,2.8c3.86,1.87,7.07,4.38,9.65,7.53c2.57,3.16,4.5,6.79,5.79,10.89c1.29,4.1,1.93,8.42,1.93,12.95
		c0,4.54-0.64,8.85-1.93,12.96c-1.29,4.1-3.22,7.72-5.79,10.84c-2.57,3.12-5.79,5.62-9.65,7.49c-3.86,1.87-8.36,2.8-13.51,2.8
		c-5.15,0-9.66-0.94-13.55-2.8c-3.89-1.87-7.12-4.36-9.69-7.49c-2.57-3.12-4.5-6.74-5.79-10.84c-1.29-4.1-1.93-8.42-1.93-12.96
		C102.56,306.85,103.2,302.53,104.49,298.43z M110.23,321.9c0.95,3.46,2.42,6.56,4.41,9.28c1.99,2.73,4.55,4.92,7.67,6.57
		c3.12,1.65,6.86,2.48,11.21,2.48c4.35,0,8.07-0.83,11.16-2.48c3.09-1.66,5.64-3.84,7.63-6.57c1.99-2.72,3.46-5.82,4.41-9.28
		c0.95-3.46,1.42-6.97,1.42-10.52c0-3.61-0.47-7.13-1.42-10.57c-0.95-3.43-2.42-6.51-4.41-9.23c-1.99-2.72-4.53-4.92-7.63-6.57
		c-3.09-1.65-6.82-2.48-11.16-2.48c-4.35,0-8.09,0.83-11.21,2.48c-3.12,1.65-5.68,3.84-7.67,6.57c-1.99,2.73-3.46,5.81-4.41,9.23
		c-0.95,3.43-1.42,6.95-1.42,10.57C108.81,314.94,109.28,318.44,110.23,321.9z"/>
	<path class="st1" d="M182.77,278.58l38.22,55.5h0.18v-55.5h6.25v65.6h-6.98l-38.22-55.5h-0.18v55.5h-6.25v-65.6H182.77z"/>
	<path class="st1" d="M247.92,278.58v40.61c0,3.8,0.43,7.03,1.29,9.69c0.86,2.66,2.11,4.84,3.77,6.52c1.65,1.69,3.67,2.91,6.06,3.68
		c2.39,0.76,5.08,1.15,8.09,1.15c3.06,0,5.79-0.38,8.18-1.15c2.39-0.77,4.41-1.99,6.06-3.68c1.65-1.68,2.91-3.86,3.77-6.52
		s1.29-5.89,1.29-9.69v-40.61h6.25v41.99c0,3.37-0.47,6.57-1.42,9.6c-0.95,3.03-2.45,5.68-4.5,7.95c-2.05,2.26-4.69,4.06-7.9,5.38
		c-3.22,1.32-7.12,1.97-11.72,1.97c-4.53,0-8.41-0.66-11.62-1.97c-3.22-1.32-5.85-3.11-7.9-5.38c-2.05-2.26-3.55-4.92-4.5-7.95
		c-0.95-3.03-1.42-6.23-1.42-9.6v-41.99H247.92z"/>
	<path class="st1" d="M351.93,278.58v5.33h-22.88v60.28h-6.25v-60.28h-22.79v-5.33H351.93z"/>
	<path class="st1" d="M389.96,278.58c2.69,0,5.25,0.34,7.67,1.01c2.42,0.67,4.53,1.7,6.34,3.08c1.81,1.38,3.25,3.16,4.32,5.33
		c1.07,2.18,1.61,4.73,1.61,7.67c0,4.17-1.07,7.78-3.22,10.84c-2.14,3.06-5.33,5.02-9.55,5.88v0.18c2.14,0.31,3.92,0.87,5.33,1.7
		c1.41,0.83,2.56,1.88,3.45,3.17c0.89,1.29,1.53,2.77,1.93,4.45c0.4,1.69,0.66,3.51,0.78,5.47c0.06,1.1,0.12,2.45,0.18,4.04
		c0.06,1.59,0.18,3.2,0.37,4.82c0.18,1.62,0.47,3.16,0.87,4.6c0.4,1.44,0.93,2.56,1.61,3.35h-6.89c-0.37-0.61-0.66-1.36-0.87-2.25
		c-0.21-0.89-0.37-1.81-0.46-2.76c-0.09-0.95-0.17-1.88-0.23-2.8c-0.06-0.92-0.12-1.72-0.18-2.39c-0.12-2.33-0.32-4.64-0.6-6.94
		c-0.28-2.3-0.86-4.35-1.75-6.16c-0.89-1.81-2.18-3.26-3.86-4.36c-1.69-1.1-4-1.59-6.94-1.47h-23.7v29.13h-6.25v-65.6H389.96z
		 M389.5,309.73c1.9,0,3.71-0.29,5.42-0.87c1.71-0.58,3.22-1.42,4.5-2.53c1.29-1.1,2.31-2.44,3.08-4c0.77-1.56,1.15-3.36,1.15-5.38
		c0-4.04-1.16-7.23-3.49-9.55c-2.33-2.33-5.88-3.49-10.66-3.49h-23.34v25.82H389.5z"/>
	<path class="st1" d="M429.75,278.58v65.6h-6.25v-65.6H429.75z"/>
	<path class="st1" d="M490.57,278.58v5.33h-39.05v23.71h36.57v5.33h-36.57v25.91h39.51v5.33h-45.76v-65.6H490.57z"/>
	<path class="st1" d="M508.49,278.58l38.22,55.5h0.18v-55.5h6.25v65.6h-6.98l-38.22-55.5h-0.18v55.5h-6.25v-65.6H508.49z"/>
	<path class="st1" d="M613.05,278.58v5.33h-22.88v60.28h-6.25v-60.28h-22.79v-5.33H613.05z"/>
	<path class="st1" d="M48.44,278.58c2.76,0,5.41,0.26,7.95,0.78s4.78,1.41,6.71,2.66s3.48,2.91,4.64,4.96
		c1.16,2.06,1.75,4.61,1.75,7.67c0,1.72-0.28,3.39-0.83,5.01c-0.55,1.62-1.33,3.09-2.34,4.41c-1.01,1.32-2.21,2.43-3.58,3.35
		c-1.38,0.92-2.93,1.56-4.64,1.93v0.18c4.23,0.55,7.59,2.28,10.11,5.19c2.51,2.91,3.77,6.51,3.77,10.79c0,1.04-0.09,2.22-0.28,3.54
		c-0.18,1.32-0.55,2.66-1.1,4.04c-0.55,1.38-1.35,2.74-2.39,4.09c-1.04,1.35-2.43,2.53-4.18,3.54c-1.75,1.01-3.89,1.84-6.43,2.48
		c-2.54,0.64-5.59,0.97-9.14,0.97H20.69v-65.6H48.44z M48.44,307.34c2.51,0,4.69-0.29,6.52-0.87c1.84-0.58,3.37-1.38,4.59-2.39
		c1.22-1.01,2.14-2.19,2.76-3.54c0.61-1.35,0.92-2.79,0.92-4.32c0-8.21-4.93-12.31-14.79-12.31h-21.5v23.43H48.44z M48.44,338.86
		c2.33,0,4.53-0.2,6.62-0.6c2.08-0.4,3.92-1.11,5.51-2.16c1.59-1.04,2.85-2.43,3.77-4.18c0.92-1.75,1.38-3.93,1.38-6.57
		c0-4.23-1.49-7.4-4.46-9.51c-2.97-2.11-7.24-3.17-12.82-3.17h-21.5v26.19H48.44z"/>
	<path class="st1" d="M90.52,278.58v65.6h-6.25v-65.6H90.52z"/>
	<path class="st1" d="M104.49,298.43c1.29-4.1,3.22-7.73,5.79-10.89c2.57-3.15,5.8-5.66,9.69-7.53c3.89-1.87,8.41-2.8,13.55-2.8
		c5.14,0,9.65,0.93,13.51,2.8c3.86,1.87,7.07,4.38,9.65,7.53c2.57,3.16,4.5,6.79,5.79,10.89c1.29,4.1,1.93,8.42,1.93,12.95
		c0,4.54-0.64,8.85-1.93,12.96c-1.29,4.1-3.22,7.72-5.79,10.84c-2.57,3.12-5.79,5.62-9.65,7.49c-3.86,1.87-8.36,2.8-13.51,2.8
		c-5.15,0-9.66-0.94-13.55-2.8c-3.89-1.87-7.12-4.36-9.69-7.49c-2.57-3.12-4.5-6.74-5.79-10.84c-1.29-4.1-1.93-8.42-1.93-12.96
		C102.56,306.85,103.2,302.53,104.49,298.43z M110.23,321.9c0.95,3.46,2.42,6.56,4.41,9.28c1.99,2.73,4.55,4.92,7.67,6.57
		c3.12,1.65,6.86,2.48,11.21,2.48c4.35,0,8.07-0.83,11.16-2.48c3.09-1.66,5.64-3.84,7.63-6.57c1.99-2.72,3.46-5.82,4.41-9.28
		c0.95-3.46,1.42-6.97,1.42-10.52c0-3.61-0.47-7.13-1.42-10.57c-0.95-3.43-2.42-6.51-4.41-9.23c-1.99-2.72-4.53-4.92-7.63-6.57
		c-3.09-1.65-6.82-2.48-11.16-2.48c-4.35,0-8.09,0.83-11.21,2.48c-3.12,1.65-5.68,3.84-7.67,6.57c-1.99,2.73-3.46,5.81-4.41,9.23
		c-0.95,3.43-1.42,6.95-1.42,10.57C108.81,314.94,109.28,318.44,110.23,321.9z"/>
	<path class="st1" d="M182.77,278.58l38.22,55.5h0.18v-55.5h6.25v65.6h-6.98l-38.22-55.5h-0.18v55.5h-6.25v-65.6H182.77z"/>
	<path class="st1" d="M247.92,278.58v40.61c0,3.8,0.43,7.03,1.29,9.69c0.86,2.66,2.11,4.84,3.77,6.52c1.65,1.69,3.67,2.91,6.06,3.68
		c2.39,0.76,5.08,1.15,8.09,1.15c3.06,0,5.79-0.38,8.18-1.15c2.39-0.77,4.41-1.99,6.06-3.68c1.65-1.68,2.91-3.86,3.77-6.52
		s1.29-5.89,1.29-9.69v-40.61h6.25v41.99c0,3.37-0.47,6.57-1.42,9.6c-0.95,3.03-2.45,5.68-4.5,7.95c-2.05,2.26-4.69,4.06-7.9,5.38
		c-3.22,1.32-7.12,1.97-11.72,1.97c-4.53,0-8.41-0.66-11.62-1.97c-3.22-1.32-5.85-3.11-7.9-5.38c-2.05-2.26-3.55-4.92-4.5-7.95
		c-0.95-3.03-1.42-6.23-1.42-9.6v-41.99H247.92z"/>
	<path class="st1" d="M351.93,278.58v5.33h-22.88v60.28h-6.25v-60.28h-22.79v-5.33H351.93z"/>
	<path class="st1" d="M389.96,278.58c2.69,0,5.25,0.34,7.67,1.01c2.42,0.67,4.53,1.7,6.34,3.08c1.81,1.38,3.25,3.16,4.32,5.33
		c1.07,2.18,1.61,4.73,1.61,7.67c0,4.17-1.07,7.78-3.22,10.84c-2.14,3.06-5.33,5.02-9.55,5.88v0.18c2.14,0.31,3.92,0.87,5.33,1.7
		c1.41,0.83,2.56,1.88,3.45,3.17c0.89,1.29,1.53,2.77,1.93,4.45c0.4,1.69,0.66,3.51,0.78,5.47c0.06,1.1,0.12,2.45,0.18,4.04
		c0.06,1.59,0.18,3.2,0.37,4.82c0.18,1.62,0.47,3.16,0.87,4.6c0.4,1.44,0.93,2.56,1.61,3.35h-6.89c-0.37-0.61-0.66-1.36-0.87-2.25
		c-0.21-0.89-0.37-1.81-0.46-2.76c-0.09-0.95-0.17-1.88-0.23-2.8c-0.06-0.92-0.12-1.72-0.18-2.39c-0.12-2.33-0.32-4.64-0.6-6.94
		c-0.28-2.3-0.86-4.35-1.75-6.16c-0.89-1.81-2.18-3.26-3.86-4.36c-1.69-1.1-4-1.59-6.94-1.47h-23.7v29.13h-6.25v-65.6H389.96z
		 M389.5,309.73c1.9,0,3.71-0.29,5.42-0.87c1.71-0.58,3.22-1.42,4.5-2.53c1.29-1.1,2.31-2.44,3.08-4c0.77-1.56,1.15-3.36,1.15-5.38
		c0-4.04-1.16-7.23-3.49-9.55c-2.33-2.33-5.88-3.49-10.66-3.49h-23.34v25.82H389.5z"/>
	<path class="st1" d="M429.75,278.58v65.6h-6.25v-65.6H429.75z"/>
	<path class="st1" d="M490.57,278.58v5.33h-39.05v23.71h36.57v5.33h-36.57v25.91h39.51v5.33h-45.76v-65.6H490.57z"/>
	<path class="st1" d="M508.49,278.58l38.22,55.5h0.18v-55.5h6.25v65.6h-6.98l-38.22-55.5h-0.18v55.5h-6.25v-65.6H508.49z"/>
	<path class="st1" d="M613.05,278.58v5.33h-22.88v60.28h-6.25v-60.28h-22.79v-5.33H613.05z"/>
</g>
<g>
	<polygon class="st1" points="1125.51,345.4 1128.85,345.4 1128.85,321.18 1154.28,321.18 1154.28,317.84 1128.85,317.84 
		1128.85,298.96 1156.95,298.96 1156.95,295.63 1125.51,295.63 	"/>
	<path class="st1" d="M1197.71,302.28c-1.93-2.38-4.37-4.29-7.23-5.69c-2.87-1.4-6.2-2.11-9.91-2.11c-3.7,0-7.04,0.71-9.91,2.11
		c-2.86,1.4-5.3,3.31-7.23,5.69c-1.92,2.36-3.4,5.15-4.39,8.29c-0.99,3.11-1.48,6.46-1.48,9.94c0,3.48,0.5,6.83,1.48,9.94
		c0.99,3.14,2.47,5.93,4.39,8.3c1.94,2.38,4.37,4.29,7.24,5.66c2.87,1.38,6.2,2.07,9.9,2.07c3.7,0,7.03-0.7,9.9-2.07
		c2.86-1.37,5.29-3.27,7.23-5.66c1.92-2.36,3.4-5.15,4.39-8.29c0.99-3.12,1.49-6.46,1.49-9.94c0-3.47-0.5-6.82-1.49-9.94
		C1201.11,307.43,1199.63,304.64,1197.71,302.28z M1180.58,343.2c-3.05,0-5.81-0.57-8.21-1.68c-2.4-1.12-4.46-2.68-6.11-4.66
		c-1.67-1.99-2.98-4.39-3.9-7.16c-0.92-2.78-1.41-5.88-1.46-9.19c0.04-3.31,0.53-6.4,1.46-9.19c0.91-2.77,2.23-5.18,3.9-7.17
		c1.66-1.97,3.71-3.54,6.11-4.65c2.4-1.11,5.16-1.68,8.21-1.68c3.05,0,5.81,0.57,8.21,1.68c2.4,1.12,4.46,2.68,6.11,4.66
		c1.67,1.99,2.98,4.4,3.9,7.16c0.92,2.79,1.41,5.88,1.45,9.17c-0.04,3.32-0.53,6.42-1.45,9.2c-0.92,2.77-2.23,5.18-3.9,7.16
		c-1.66,1.97-3.71,3.54-6.11,4.65S1183.62,343.2,1180.58,343.2z"/>
	<path class="st1" d="M1247.3,302.28c-1.93-2.38-4.37-4.29-7.23-5.69c-2.87-1.4-6.2-2.11-9.91-2.11c-3.7,0-7.04,0.71-9.91,2.11
		c-2.87,1.4-5.3,3.31-7.23,5.69c-1.92,2.36-3.4,5.15-4.39,8.29c-0.99,3.12-1.49,6.46-1.49,9.94c0,3.48,0.5,6.82,1.49,9.94
		c0.99,3.14,2.47,5.93,4.39,8.29c1.94,2.38,4.37,4.29,7.23,5.66c2.87,1.37,6.2,2.07,9.9,2.07c3.7,0,7.03-0.7,9.9-2.07
		c2.86-1.37,5.29-3.27,7.24-5.66c1.92-2.37,3.4-5.16,4.39-8.29c0.98-3.12,1.48-6.46,1.48-9.94c0-3.47-0.5-6.82-1.48-9.94
		C1250.7,307.44,1249.22,304.65,1247.3,302.28z M1230.16,343.2c-3.05,0-5.81-0.57-8.21-1.68c-2.4-1.12-4.46-2.68-6.11-4.66
		c-1.67-1.98-2.98-4.39-3.9-7.16c-0.92-2.79-1.41-5.88-1.45-9.19c0.04-3.31,0.53-6.4,1.45-9.19c0.92-2.77,2.23-5.18,3.9-7.17
		c1.65-1.97,3.71-3.54,6.11-4.65c2.4-1.11,5.17-1.68,8.21-1.68c3.05,0,5.81,0.57,8.21,1.68c2.4,1.12,4.46,2.68,6.11,4.66
		c1.67,1.99,2.98,4.4,3.9,7.16c0.92,2.79,1.41,5.89,1.45,9.17c-0.04,3.31-0.53,6.41-1.45,9.2c-0.92,2.77-2.23,5.18-3.9,7.16
		c-1.66,1.97-3.71,3.54-6.11,4.65S1233.21,343.2,1230.16,343.2z"/>
	<path class="st1" d="M1290.29,300.81c-2.04-1.9-4.38-3.26-6.95-4.04c-2.51-0.76-5.03-1.15-7.48-1.15h-17.73v49.77h15.65
		c3,0,5.92-0.47,8.68-1.39c2.8-0.93,5.33-2.41,7.51-4.39c2.2-1.98,3.97-4.59,5.27-7.75c1.29-3.14,1.95-6.96,1.95-11.35
		c0-4.79-0.64-8.83-1.91-12.01C1294.01,305.3,1292.33,302.71,1290.29,300.81z M1274.12,342.06h-12.65v-43.1h14.06
		c2.3,0,4.58,0.32,6.78,0.96c2.13,0.62,4.08,1.75,5.78,3.35c1.71,1.61,3.11,3.82,4.17,6.56c1.07,2.77,1.61,6.36,1.61,10.68
		c0,3.7-0.53,6.94-1.57,9.64c-1.04,2.69-2.46,4.93-4.25,6.67c-1.79,1.75-3.9,3.06-6.27,3.92
		C1279.37,341.62,1276.8,342.06,1274.12,342.06z"/>
	<path class="st1" d="M1338.02,295.63l-20.15,49.77h3.63l6.36-15.72h23l6.29,15.72h3.62l-19.66-49.77H1338.02z M1329.2,326.34
		l10.35-25.82l10,25.82H1329.2z"/>
	<path class="st1" d="M1393.34,322.33c-1.55-0.94-3.38-1.69-5.44-2.25c-1.99-0.54-4.1-1.09-6.35-1.68
		c-2.06-0.49-4.07-0.96-6.03-1.41c-1.86-0.42-3.55-1.02-5.01-1.78c-1.4-0.73-2.54-1.69-3.41-2.85c-0.82-1.11-1.24-2.64-1.24-4.56
		c0-1.93,0.42-3.53,1.24-4.77c0.85-1.27,1.94-2.3,3.25-3.07c1.34-0.79,2.87-1.34,4.53-1.66c3.92-0.73,7.58-0.6,10.76,0.16
		c1.73,0.41,3.23,1.1,4.47,2.06c1.23,0.95,2.24,2.2,2.99,3.73c0.76,1.54,1.18,3.48,1.27,5.78l0.04,0.96h3.35l-0.05-1.05
		c-0.14-2.8-0.69-5.21-1.64-7.18c-0.96-1.99-2.26-3.62-3.88-4.84c-1.59-1.21-3.47-2.1-5.57-2.65c-3.74-0.97-8.32-1.1-12.77-0.18
		c-2.04,0.42-3.91,1.14-5.56,2.13c-1.69,1.01-3.09,2.4-4.15,4.11c-1.08,1.74-1.62,3.9-1.62,6.45c0,2.51,0.53,4.59,1.56,6.2
		c1.02,1.58,2.39,2.86,4.06,3.81c1.61,0.91,3.43,1.63,5.43,2.14c1.95,0.5,3.89,0.97,5.77,1.41c1.85,0.45,3.79,0.89,5.75,1.31
		c1.89,0.4,3.63,1.01,5.18,1.79c1.48,0.75,2.72,1.78,3.67,3.05c0.91,1.22,1.37,2.95,1.37,5.12c0,1.85-0.41,3.45-1.22,4.76
		c-0.83,1.34-1.93,2.45-3.27,3.3c-1.37,0.87-2.94,1.51-4.67,1.91c-1.77,0.41-3.58,0.61-5.36,0.61c-2.45,0-4.71-0.27-6.74-0.8
		c-1.97-0.52-3.69-1.37-5.11-2.52c-1.41-1.14-2.51-2.64-3.29-4.47c-0.79-1.85-1.19-4.16-1.19-6.87v-1h-3.32l-0.01,0.99
		c-0.05,3.16,0.42,5.91,1.39,8.17c0.97,2.28,2.37,4.18,4.17,5.64c1.77,1.44,3.9,2.51,6.32,3.17c2.37,0.64,4.99,0.97,7.79,0.97
		c2.11,0,4.24-0.25,6.32-0.73c2.12-0.5,4.05-1.31,5.74-2.41c1.72-1.12,3.13-2.57,4.19-4.3c1.07-1.76,1.62-3.89,1.62-6.34
		c0-2.67-0.49-4.84-1.44-6.46C1396.25,324.62,1394.95,323.31,1393.34,322.33z"/>
	<path class="st1" d="M1435.56,322.33c-1.55-0.94-3.38-1.69-5.44-2.25c-1.99-0.54-4.1-1.09-6.35-1.68
		c-2.05-0.49-4.07-0.96-6.03-1.41c-1.86-0.42-3.55-1.02-5.01-1.78c-1.4-0.73-2.54-1.69-3.41-2.85c-0.82-1.11-1.24-2.64-1.24-4.56
		c0-1.93,0.42-3.53,1.24-4.77c0.85-1.27,1.94-2.3,3.25-3.07c1.34-0.79,2.87-1.34,4.53-1.66c3.92-0.73,7.58-0.6,10.76,0.16
		c1.73,0.41,3.23,1.11,4.47,2.06c1.23,0.95,2.24,2.2,2.99,3.73c0.76,1.54,1.18,3.48,1.27,5.78l0.04,0.96h3.35l-0.05-1.05
		c-0.14-2.8-0.69-5.21-1.64-7.18c-0.96-1.99-2.26-3.62-3.88-4.84c-1.59-1.21-3.47-2.1-5.57-2.65c-3.74-0.97-8.32-1.1-12.77-0.18
		c-2.04,0.42-3.91,1.14-5.56,2.13c-1.69,1.01-3.09,2.4-4.15,4.11c-1.08,1.74-1.62,3.91-1.62,6.45c0,2.51,0.53,4.59,1.56,6.2
		c1.02,1.58,2.39,2.86,4.06,3.81c1.61,0.91,3.43,1.63,5.43,2.14c1.95,0.5,3.89,0.97,5.77,1.41c1.85,0.45,3.78,0.89,5.75,1.31
		c1.89,0.4,3.63,1.01,5.18,1.79c1.48,0.75,2.71,1.78,3.67,3.05c0.91,1.22,1.37,2.95,1.37,5.12c0,1.85-0.41,3.45-1.22,4.76
		c-0.83,1.34-1.93,2.45-3.27,3.3c-1.37,0.87-2.94,1.51-4.67,1.91c-1.77,0.41-3.58,0.61-5.36,0.61c-2.45,0-4.71-0.27-6.74-0.8
		c-1.97-0.52-3.69-1.37-5.11-2.52c-1.41-1.14-2.51-2.64-3.29-4.47c-0.79-1.85-1.19-4.16-1.19-6.87v-1h-3.32l-0.02,0.99
		c-0.05,3.16,0.42,5.91,1.38,8.17c0.97,2.28,2.38,4.18,4.17,5.64c1.77,1.44,3.9,2.51,6.32,3.17c2.37,0.64,4.99,0.97,7.79,0.97
		c2.11,0,4.24-0.25,6.32-0.73c2.12-0.5,4.05-1.31,5.74-2.41c1.72-1.12,3.13-2.57,4.19-4.3c1.07-1.76,1.62-3.89,1.62-6.34
		c0-2.67-0.48-4.84-1.44-6.46C1438.47,324.62,1437.17,323.31,1435.56,322.33z"/>
	<path class="st1" d="M1485.5,302.28c-1.93-2.38-4.37-4.29-7.23-5.69c-2.87-1.4-6.2-2.11-9.91-2.11c-3.7,0-7.04,0.71-9.91,2.11
		c-2.87,1.4-5.3,3.31-7.23,5.69c-1.92,2.37-3.4,5.16-4.39,8.29c-0.99,3.12-1.49,6.46-1.49,9.94c0,3.48,0.5,6.82,1.49,9.94
		c0.99,3.14,2.47,5.93,4.39,8.29c1.94,2.38,4.37,4.29,7.23,5.66c2.87,1.37,6.2,2.07,9.9,2.07c3.7,0,7.03-0.7,9.9-2.07
		c2.86-1.37,5.29-3.27,7.24-5.66c1.92-2.36,3.4-5.15,4.39-8.29c0.98-3.11,1.48-6.46,1.48-9.94c0-3.48-0.5-6.82-1.48-9.94
		C1488.9,307.43,1487.42,304.64,1485.5,302.28z M1468.37,297.83c3.05,0,5.81,0.57,8.21,1.68c2.4,1.12,4.46,2.68,6.11,4.66
		c1.67,1.99,2.98,4.4,3.9,7.16c0.92,2.79,1.41,5.89,1.46,9.17c-0.04,3.32-0.53,6.41-1.46,9.2c-0.92,2.77-2.23,5.18-3.9,7.16
		c-1.66,1.97-3.71,3.54-6.11,4.65s-5.16,1.68-8.21,1.68s-5.81-0.57-8.21-1.68c-2.4-1.12-4.46-2.68-6.11-4.66
		c-1.67-1.99-2.98-4.4-3.9-7.16c-0.92-2.79-1.41-5.88-1.46-9.19c0.04-3.31,0.53-6.4,1.46-9.19c0.92-2.77,2.23-5.18,3.9-7.17
		c1.65-1.97,3.71-3.54,6.11-4.65C1462.56,298.39,1465.32,297.83,1468.37,297.83z"/>
	<path class="st1" d="M1535.76,325.53c-0.34,2.52-1.01,4.91-1.99,7.08c-0.98,2.16-2.26,4.04-3.81,5.59
		c-1.55,1.55-3.42,2.78-5.56,3.66c-2.15,0.88-4.61,1.33-7.31,1.33c-3.04,0-5.78-0.62-8.14-1.83c-2.38-1.22-4.42-2.87-6.07-4.89
		c-1.65-2.04-2.92-4.42-3.77-7.1c-0.86-2.7-1.29-5.55-1.29-8.46c0-2.4,0.36-5,1.07-7.71c0.7-2.69,1.86-5.2,3.44-7.48
		c1.56-2.25,3.65-4.16,6.21-5.66c2.53-1.49,5.7-2.24,9.43-2.24c2.45,0,4.7,0.39,6.7,1.17c2,0.78,3.75,1.81,5.19,3.07
		c1.44,1.25,2.59,2.68,3.42,4.23c0.82,1.54,1.3,3.13,1.42,4.73l0.07,0.92h3.3l-0.03-1.03c-0.05-1.6-0.51-3.37-1.36-5.26
		c-0.85-1.88-2.12-3.68-3.78-5.35c-1.66-1.66-3.75-3.06-6.22-4.16c-2.48-1.1-5.41-1.66-8.7-1.66c-4.21,0-7.86,0.83-10.85,2.47
		c-2.97,1.63-5.42,3.75-7.29,6.31c-1.85,2.54-3.21,5.4-4.07,8.52c-0.85,3.08-1.27,6.15-1.27,9.13c0,3.67,0.56,7.1,1.66,10.2
		c1.11,3.12,2.67,5.84,4.64,8.09c1.98,2.26,4.39,4.05,7.16,5.33c2.77,1.28,5.85,1.93,9.15,1.93c3.15,0,6.02-0.52,8.54-1.55
		c2.52-1.02,4.73-2.47,6.58-4.3c1.84-1.82,3.36-4.03,4.52-6.55c1.15-2.51,1.95-5.3,2.36-8.27l0.16-1.14h-3.36L1535.76,325.53z"/>
	<rect x="1543.58" y="295.63" class="st1" width="3.34" height="49.77"/>
	<path class="st1" d="M1571.89,295.63h-3.09l-20.15,49.77h3.63l6.36-15.72h23l6.29,15.72h3.62l-19.41-49.14L1571.89,295.63z
		 M1559.97,326.34l10.35-25.82l10,25.82H1559.97z"/>
	<polygon class="st1" points="1583.66,298.96 1600.79,298.96 1600.79,345.4 1604.13,345.4 1604.13,298.96 1621.32,298.96 
		1621.32,295.63 1583.66,295.63 	"/>
	<rect x="1623.14" y="295.63" class="st1" width="3.34" height="49.77"/>
	<path class="st1" d="M1671.72,302.28c-1.93-2.38-4.37-4.29-7.23-5.69c-2.87-1.4-6.2-2.11-9.91-2.11c-3.7,0-7.04,0.71-9.91,2.11
		c-2.87,1.4-5.3,3.31-7.23,5.69c-1.92,2.36-3.4,5.15-4.39,8.29c-0.99,3.12-1.49,6.46-1.49,9.94c0,3.48,0.5,6.82,1.49,9.94
		c0.99,3.14,2.47,5.93,4.39,8.29c1.94,2.38,4.37,4.29,7.23,5.66c2.87,1.37,6.2,2.07,9.9,2.07c3.7,0,7.03-0.7,9.9-2.07
		c2.86-1.37,5.29-3.27,7.24-5.66c1.92-2.36,3.4-5.15,4.39-8.29c0.99-3.12,1.48-6.46,1.48-9.94c0-3.47-0.5-6.82-1.48-9.94
		C1675.12,307.43,1673.64,304.65,1671.72,302.28z M1654.58,343.2c-3.05,0-5.81-0.57-8.21-1.68c-2.41-1.12-4.46-2.69-6.11-4.66
		c-1.67-1.99-2.98-4.4-3.9-7.16c-0.92-2.79-1.41-5.88-1.46-9.19c0.04-3.31,0.53-6.4,1.46-9.19c0.91-2.76,2.23-5.18,3.9-7.17
		c1.65-1.97,3.71-3.54,6.11-4.65c2.4-1.11,5.16-1.68,8.21-1.68s5.81,0.57,8.21,1.68c2.4,1.12,4.46,2.68,6.11,4.66
		c1.67,1.99,2.98,4.4,3.9,7.17c0.92,2.79,1.41,5.89,1.46,9.17c-0.04,3.32-0.53,6.41-1.46,9.2c-0.92,2.77-2.23,5.18-3.9,7.16
		c-1.66,1.97-3.71,3.54-6.11,4.65C1660.39,342.64,1657.63,343.2,1654.58,343.2z"/>
	<polygon class="st1" points="1717.42,295.63 1717.42,339.78 1686.15,295.63 1682.62,295.63 1682.62,345.4 1685.96,345.4 
		1685.96,301.25 1717.23,345.4 1720.75,345.4 1720.75,295.63 	"/>
</g>
<path class="st2" d="M1080.59,321c-0.02,43.48-11.57,83.69-36.41,119.34c-44.12,63.32-105.44,95.17-182.51,94.45
	c-99.74-0.94-186.66-75.08-205.12-173.33c-2.51-13.37-4.16-26.82-3.78-40.46c7.86-0.24,15.66,0.45,23.45,1.32
	c71.13,9.34,125.14,44.78,162.05,106.3c0.37,0.62,0.79,1.2,1.18,1.8c14.39,26.41,23.29,54.56,27.15,84.67
	c2.63-15.1,5.92-29.9,9.82-44.56c1.24-3.45,2.48-6.89,3.73-10.34c2.18-5.42,4.37-10.84,6.55-16.25
	c7.24-13.11,14.32-26.3,23.57-38.18c36.21-46.54,83.4-74.24,141.79-82.78c1.61-0.24,3.19-0.61,4.79-0.92
	C1064.76,321.7,1072.68,321.35,1080.59,321z"/>
<path class="st1" d="M886.71,443.93c-2.18,5.42-4.37,10.84-6.55,16.25c-10.08-17.66-17.97-36.1-21.46-56.33
	c-2-11.61-5.82-22.75-13.05-32.36c-1.15-1.53-1.89-3.99-5.04-3.64c5.03,11.44,7,23.31,8.62,35.22c3.37,24.8,12,47.44,27.21,67.45
	c-3.91,14.66-7.19,29.47-9.82,44.56c-3.86-30.11-12.77-58.26-27.15-84.67c6.05-20.41,3.85-40.32-3.79-59.85
	c-3.04-7.76-7.44-14.8-12.34-21.67c10.89-1.41,20.23,5.55,31.95,23.9c1.23-9.97,0.31-19.13-2.22-28.08
	c-6.7-23.7-20.54-41.99-42.22-53.89c-16.17-8.88-33.17-16.16-48.14-27.29c-10.52-7.82-19.84-16.77-28.82-26.18
	c-17.08-17.92-29.08-38.93-36.78-62.33c-2.91-8.85-6.15-18.15-6.18-27.25c-0.04-9.87-2.56-19.52-0.8-29.71
	c1.68-9.65,3.12-19.4,5.04-29.24c8.92,23.93,21.22,45.7,38.62,64.39c5.01,6.23,10.18,12.3,16.81,16.91c0.54,2.14,2.5,3.03,3.95,4.31
	c11,9.73,22.99,18.1,35.39,25.97c35.67,22.63,60.05,53.78,70.84,95.01c2.52,9.61,3.61,19.48,5.1,29.32
	c3.17-8.47,4.56-17.2,4.99-26.03c1.91-38.9-4.58-76.35-19.9-112.19c-7.33-17.15-12.18-35.06-16.74-53.07
	c-0.88-7.87-1.76-15.73-2.63-23.6c-1.73-25.29,1.48-49.82,11.17-73.37c4.12-10.02,9.27-19.48,16.15-28.15
	c-0.72,4.1-1.57,8.19-2.15,12.32c-4.14,29.41,1.95,57.6,10.32,85.5c6.69,22.31,15.57,43.9,21.3,66.55
	c12.37,48.94,8.3,96.67-9.38,143.59c2,0.65,2.25-0.96,2.81-1.93c19.39-33.74,45.13-61.87,75.41-86.13
	c16.09-12.89,29.69-28.09,39.57-46.37c4.48-7,8.08-14.41,10.48-22.39c4.77-11.12,6.47-22.86,6.97-34.84
	c0.08-1.98,0.17-3.95,0.26-5.93l-0.09,0.09c5.02,9.92,7.24,20.71,8.63,31.53c8.9,69.38-16.74,122.64-75.54,160.16
	c-18.53,11.82-36.72,24.16-50.9,41.2c-22.31,26.82-25.58,56.51-11.68,88.29C885.48,441.31,886.11,442.62,886.71,443.93z
	 M840.23,290.76c0.29,0.56,0.59,1.12,0.88,1.67c0.71-0.78,0.42-1.59,0.07-2.4c-14.36-26.06-34.94-46.32-58.82-63.63
	c-31.98-23.18-56.03-53.08-73.73-88.26c-0.48-0.95-0.22-3.16-2.81-2.55c1.31,4.32,2.5,8.58,3.88,12.77
	c12.08,36.48,34.88,65.14,65.35,87.8C797.86,253.11,821.01,269.56,840.23,290.76z M880.86,343.97
	c13.71-16.47,28.89-31.44,45.76-44.66c10.4-8.15,21.3-15.69,31.38-24.21c24.14-20.4,42.68-44.69,50.54-75.99
	c1.95-7.75,1.99-8.95,0.76-13.62c-6.25,21.33-18.64,38.48-33.52,54.07c-11.28,11.82-23.8,22.25-36.5,32.49
	c-24.51,19.74-45.61,42.35-59.37,71.08c-0.33,0.49-0.66,0.97-0.99,1.46C879.78,345.06,880.43,344.86,880.86,343.97z M880.93,249.02
	c0.57,0.01,1.14,0.03,1.72,0.04c0.43-4.05,1.01-8.09,1.27-12.16c1.85-29.27-3.85-57.18-15.56-83.94
	c-7.61-17.39-14.53-35.02-18.56-53.63c-1.15-5.29-2.05-10.65-2.75-16.01c-0.67-5.15-0.95-10.35-1.4-15.53
	c-1.07,2.09-1.63,4.16-1.9,6.27c-3.52,26.87,1.34,52.57,11.35,77.43c9.11,22.62,18.39,45.16,22.92,69.27
	C879.76,230.08,880.89,239.48,880.93,249.02z"/>
<g>
	<path class="st3" d="M750.59,170.13c-6.63-4.61-11.8-10.69-16.81-16.91c28.83-22.96,61.4-37.49,97.8-43.37
		c0.88,7.87,1.76,15.73,2.63,23.6C803.38,138.93,775.57,151.3,750.59,170.13z"/>
	<path class="st3" d="M1007.26,159.48c-2.4,7.97-6,15.39-10.48,22.39c-20.35-18.37-43.25-32.47-69.34-41.17
		c-2.22-0.74-3.19-1.99-3.75-4.06c-1.81-6.61-3.64-13.21-5.59-19.78c-1.1-3.72,0.24-3.87,3.4-3.01
		C953.56,122.56,982.26,137.54,1007.26,159.48z"/>
	<path class="st3" d="M1080.59,321c-7.91,0.35-15.83,0.7-23.74,1.04c0.16-16.51-1.95-32.75-6.06-48.72
		c-0.51-1.98-0.92-3.72,0.61-5.55c5.66-6.78,10.41-14.21,15.43-22.83C1076.14,270.1,1081.04,295.04,1080.59,321z"/>
	<path class="st3" d="M1055.55,219.34c-2.93,10.75-6.43,21.27-11.91,31.04c-5.02-10.75-9.91-21.57-16.46-31.51
		c-0.87-1.32-1.14-2.61-0.77-4.09c2.43-9.72,4.02-19.58,4.73-30.7C1041.24,195.41,1048.27,207.47,1055.55,219.34z"/>
	<path class="st3" d="M676.22,322.32c-7.79-0.87-15.6-1.57-23.45-1.32c-0.42-13.22,1.28-26.24,3.44-39.24
		c0.51-3.09,1.56-3.76,4.61-2.63c5.22,1.94,10.61,3.46,15.98,4.99c2.39,0.68,3.15,1.92,2.66,4.32
		C677.17,299.61,676.88,310.98,676.22,322.32z"/>
	<path class="st3" d="M659.24,267.64c3.05-10.52,6.15-21.03,11.03-31.55c5.3,6.57,10.69,12.56,16.69,17.94
		c1.76,1.58,0.6,2.97,0.13,4.37c-2.27,6.83-4.45,13.68-5.77,20.77C673.96,275.34,666.6,271.49,659.24,267.64z"/>
	<path class="st3" d="M694.75,238.94c-6.04-6.45-11.08-13.64-15.58-21.22c4.57-8.55,9.83-16.65,15.78-24.57
		c4.2,7.28,8.08,14.13,12.12,20.89c0.92,1.53,0.61,2.55-0.19,3.91C702.78,224.92,698.78,231.94,694.75,238.94z"/>
	<path class="st3" d="M899.18,109c3.32,8.75,6.64,17.5,9.95,26.24c-8.18-1.24-16.26-3.23-24.57-3.57c-2.34-0.09-3.09-1.63-3.58-3.38
		c-1.93-6.91-3.77-13.85-5.86-21.58C883.53,107.52,891.35,108.26,899.18,109z"/>
</g>
<g>
	<path class="st4" d="M899.18,109c-2.68-11.6-6.43-22.94-8.01-34.84c-0.67-5.02,0.26-8.26,4.51-10.79c2.14-1.27,4.04-2.93,6.54-4.77
		c1.03,9.26,1.65,18.01,3.02,26.64c3.19,20.08,9.24,39.37,16.52,58.34c7.23,18.85,11.27,38.2,6.8,58.45
		c-1.55,7.02-3.8,13.81-8.37,19.78c9.02-30.57,1.81-58.93-11.06-86.56C905.81,126.5,902.49,117.75,899.18,109z"/>
	<path class="st4" d="M694.75,238.94c14.37,18.15,32.3,31.99,52.37,43.26c8.17,4.59,16.81,8.19,26.05,11.92
		c-2.88,1.56-4.99,0.27-7.01-0.27c-44.99-12.2-79.57-37.86-101.95-79.18c-0.6-1.11-1.17-2.25-1.68-3.4
		c-4.28-9.55-4.21-10.18,2.36-20.06c4.67,9.1,8.22,18.52,14.28,26.53C683.67,225.3,688.71,232.49,694.75,238.94z"/>
	<path class="st4" d="M1055.55,219.34c2.39-9.69,4.1-19.47,4.31-29.77c3.17,8.68,6.52,17.3,9.38,26.08
		c0.58,1.79-0.41,4.23-1.03,6.26c-11.63,38.14-35.26,66.72-69.41,86.86c-1.37,0.81-2.73,1.92-4.6,0.99
		c21.08-15.99,37.48-35.84,49.44-59.39C1049.12,240.62,1052.62,230.09,1055.55,219.34z"/>
	<path class="st4" d="M659.24,267.64c7.36,3.85,14.72,7.69,22.08,11.54c8.35,4.2,16.71,8.41,25.06,12.61
		c-0.17,0.41-0.35,0.82-0.52,1.24c-28.91-11.39-57.81-22.78-86.97-34.27c6.35-5.13,12.07-5.93,18.99-1.55
		C644.54,261.41,652.09,264.22,659.24,267.64z"/>
</g>
<path class="st5" d="M1014.48,120.72c-0.23-0.17-0.45-0.33-0.68-0.5c0.14-0.11,0.28-0.22,0.42-0.34c0.06,0.31,0.12,0.61,0.17,0.92
	C1014.39,120.8,1014.48,120.72,1014.48,120.72z"/>
<path class="st1" d="M815.93,429.1l-9.25,5.34v10.69l9.25,5.34l9.25-5.34v-10.69L815.93,429.1z"/>
<path class="st1" d="M810.47,472.28l-6.49,3.75v7.5l6.49,3.75l6.49-3.75v-7.5L810.47,472.28z"/>
<path class="st1" d="M776.99,453l-4.49,2.59v5.18l4.49,2.59l4.49-2.59v-5.18L776.99,453z"/>
<path class="st1" d="M902.88,461.1l-9.83,5.68v11.35l9.83,5.68l9.83-5.68v-11.35L902.88,461.1z"/>
<path class="st1" d="M925.21,425.24l-6.33,3.65v7.3l6.33,3.65l6.33-3.65v-7.3L925.21,425.24z"/>
<path class="st1" d="M944.14,456.86l-8.29,4.79v9.57l8.29,4.79l8.29-4.79v-9.57L944.14,456.86z"/>
<path class="st1" d="M852.53,1436.54c2.76,0,5.41,0.26,7.95,0.78c2.54,0.52,4.78,1.41,6.71,2.66c1.93,1.26,3.48,2.91,4.64,4.96
	c1.16,2.06,1.75,4.61,1.75,7.67c0,1.72-0.28,3.39-0.83,5.01c-0.55,1.62-1.33,3.09-2.34,4.41c-1.01,1.32-2.21,2.43-3.58,3.35
	c-1.38,0.92-2.93,1.56-4.64,1.93v0.18c4.23,0.55,7.59,2.28,10.11,5.19c2.51,2.91,3.77,6.51,3.77,10.79c0,1.04-0.09,2.22-0.28,3.54
	c-0.18,1.32-0.55,2.66-1.1,4.04c-0.55,1.38-1.35,2.74-2.39,4.09c-1.04,1.35-2.43,2.53-4.18,3.54c-1.75,1.01-3.89,1.84-6.43,2.48
	c-2.54,0.64-5.59,0.97-9.14,0.97h-27.75v-65.6H852.53z M852.53,1465.3c2.51,0,4.69-0.29,6.52-0.87c1.84-0.58,3.37-1.38,4.59-2.39
	c1.22-1.01,2.14-2.19,2.76-3.54c0.61-1.35,0.92-2.79,0.92-4.32c0-8.21-4.93-12.31-14.79-12.31h-21.5v23.43H852.53z M852.53,1496.81
	c2.33,0,4.53-0.2,6.62-0.6c2.08-0.4,3.92-1.11,5.51-2.16c1.59-1.04,2.85-2.43,3.77-4.18c0.92-1.75,1.38-3.93,1.38-6.57
	c0-4.23-1.49-7.4-4.46-9.51c-2.97-2.11-7.24-3.17-12.82-3.17h-21.5v26.19H852.53z"/>
<path class="st1" d="M894.61,1436.54v65.6h-6.25v-65.6H894.61z"/>
<path class="st1" d="M908.57,1456.39c1.29-4.1,3.22-7.73,5.79-10.89c2.57-3.15,5.8-5.66,9.69-7.53c3.89-1.87,8.41-2.8,13.55-2.8
	c5.14,0,9.65,0.93,13.51,2.8c3.86,1.87,7.07,4.38,9.65,7.53c2.57,3.16,4.5,6.79,5.79,10.89c1.29,4.1,1.93,8.42,1.93,12.95
	c0,4.54-0.64,8.85-1.93,12.96c-1.29,4.1-3.22,7.72-5.79,10.84c-2.57,3.12-5.79,5.62-9.65,7.49c-3.86,1.87-8.36,2.8-13.51,2.8
	c-5.15,0-9.66-0.94-13.55-2.8c-3.89-1.87-7.12-4.36-9.69-7.49c-2.57-3.12-4.5-6.74-5.79-10.84c-1.29-4.1-1.93-8.42-1.93-12.96
	C906.64,1464.81,907.29,1460.49,908.57,1456.39z M914.32,1479.86c0.95,3.46,2.42,6.56,4.41,9.28c1.99,2.73,4.55,4.92,7.67,6.57
	c3.12,1.65,6.86,2.48,11.21,2.48c4.35,0,8.07-0.83,11.16-2.48c3.09-1.66,5.64-3.84,7.63-6.57c1.99-2.72,3.46-5.82,4.41-9.28
	c0.95-3.46,1.42-6.97,1.42-10.52c0-3.61-0.47-7.13-1.42-10.57c-0.95-3.43-2.42-6.51-4.41-9.23c-1.99-2.72-4.53-4.92-7.63-6.57
	c-3.09-1.65-6.82-2.48-11.16-2.48c-4.35,0-8.09,0.83-11.21,2.48c-3.12,1.65-5.68,3.84-7.67,6.57c-1.99,2.73-3.46,5.81-4.41,9.23
	c-0.95,3.43-1.42,6.95-1.42,10.57C912.89,1472.89,913.37,1476.4,914.32,1479.86z"/>
<path class="st1" d="M986.86,1436.54l38.22,55.5h0.18v-55.5h6.25v65.6h-6.98l-38.22-55.5h-0.18v55.5h-6.25v-65.6H986.86z"/>
<path class="st1" d="M1052,1436.54v40.61c0,3.8,0.43,7.03,1.29,9.69c0.86,2.66,2.11,4.84,3.77,6.52c1.65,1.69,3.67,2.91,6.06,3.68
	c2.39,0.76,5.08,1.15,8.09,1.15c3.06,0,5.79-0.38,8.18-1.15c2.39-0.77,4.41-1.99,6.06-3.68c1.65-1.68,2.91-3.86,3.77-6.52
	c0.86-2.66,1.29-5.89,1.29-9.69v-40.61h6.25v41.99c0,3.37-0.47,6.57-1.42,9.6c-0.95,3.03-2.45,5.68-4.5,7.95
	c-2.05,2.26-4.69,4.06-7.9,5.38c-3.22,1.32-7.12,1.97-11.72,1.97c-4.53,0-8.41-0.66-11.62-1.97c-3.22-1.32-5.85-3.11-7.9-5.38
	c-2.05-2.27-3.55-4.92-4.5-7.95c-0.95-3.03-1.42-6.23-1.42-9.6v-41.99H1052z"/>
<path class="st1" d="M1156.01,1436.54v5.33h-22.88v60.28h-6.25v-60.28h-22.79v-5.33H1156.01z"/>
<path class="st1" d="M1194.05,1436.54c2.69,0,5.25,0.34,7.67,1.01c2.42,0.67,4.53,1.7,6.34,3.08c1.81,1.38,3.25,3.16,4.32,5.33
	c1.07,2.18,1.61,4.73,1.61,7.67c0,4.17-1.07,7.78-3.22,10.84c-2.14,3.06-5.33,5.02-9.55,5.88v0.18c2.14,0.31,3.92,0.87,5.33,1.7
	c1.41,0.83,2.56,1.88,3.45,3.17c0.89,1.29,1.53,2.77,1.93,4.45c0.4,1.69,0.66,3.51,0.78,5.47c0.06,1.1,0.12,2.45,0.18,4.04
	c0.06,1.59,0.18,3.2,0.37,4.82c0.18,1.62,0.47,3.16,0.87,4.6s0.93,2.56,1.61,3.35h-6.89c-0.37-0.61-0.66-1.36-0.87-2.25
	c-0.21-0.89-0.37-1.81-0.46-2.76c-0.09-0.95-0.17-1.88-0.23-2.8c-0.06-0.92-0.12-1.72-0.18-2.39c-0.12-2.33-0.32-4.64-0.6-6.94
	c-0.28-2.3-0.86-4.35-1.75-6.16c-0.89-1.81-2.18-3.26-3.86-4.36c-1.69-1.1-4-1.59-6.94-1.47h-23.7v29.13H1164v-65.6H1194.05z
	 M1193.59,1467.69c1.9,0,3.71-0.29,5.42-0.87c1.71-0.58,3.22-1.42,4.5-2.53c1.29-1.1,2.31-2.44,3.08-4
	c0.77-1.56,1.15-3.36,1.15-5.38c0-4.04-1.16-7.23-3.49-9.55c-2.33-2.33-5.88-3.49-10.66-3.49h-23.34v25.82H1193.59z"/>
<path class="st1" d="M1233.84,1436.54v65.6h-6.25v-65.6H1233.84z"/>
<path class="st1" d="M1294.66,1436.54v5.33h-39.05v23.71h36.57v5.33h-36.57v25.91h39.51v5.33h-45.76v-65.6H1294.66z"/>
<path class="st1" d="M1312.58,1436.54l38.22,55.5h0.18v-55.5h6.25v65.6h-6.98l-38.22-55.5h-0.18v55.5h-6.25v-65.6H1312.58z"/>
<path class="st1" d="M1417.14,1436.54v5.33h-22.88v60.28h-6.25v-60.28h-22.79v-5.33H1417.14z"/>
<path class="st2" d="M852.39,1542.29v1.34h-25.43v24.22h-1.34v-47.77h29.44v1.34h-28.1v20.88H852.39z"/>
<path class="st2" d="M857.68,1543.97c0-3.39,0.48-6.6,1.44-9.64c0.96-3.03,2.36-5.69,4.22-7.96c1.85-2.28,4.15-4.08,6.89-5.42
	c2.74-1.34,5.9-2.01,9.47-2.01c3.57,0,6.72,0.67,9.47,2.01c2.74,1.34,5.04,3.14,6.89,5.42s3.26,4.93,4.22,7.96
	c0.96,3.03,1.44,6.25,1.44,9.64c0,3.39-0.48,6.6-1.44,9.64c-0.96,3.04-2.36,5.69-4.22,7.96c-1.85,2.27-4.15,4.07-6.89,5.39
	c-2.74,1.31-5.9,1.97-9.47,1.97c-3.57,0-6.72-0.66-9.47-1.97s-5.04-3.11-6.89-5.39c-1.85-2.28-3.26-4.93-4.22-7.96
	C858.16,1550.57,857.68,1547.36,857.68,1543.97z M859.02,1543.97c0.04,3.44,0.55,6.6,1.51,9.5c0.96,2.9,2.32,5.4,4.08,7.49
	c1.76,2.1,3.91,3.74,6.46,4.92c2.54,1.18,5.42,1.77,8.63,1.77c3.21,0,6.09-0.59,8.63-1.77s4.69-2.82,6.46-4.92
	c1.76-2.09,3.12-4.59,4.08-7.49c0.96-2.9,1.46-6.07,1.5-9.5c-0.05-3.43-0.55-6.6-1.5-9.5c-0.96-2.9-2.32-5.4-4.08-7.49
	s-3.91-3.73-6.46-4.92c-2.54-1.18-5.42-1.77-8.63-1.77c-3.21,0-6.09,0.59-8.63,1.77c-2.54,1.18-4.69,2.82-6.46,4.92
	c-1.76,2.1-3.12,4.6-4.08,7.49C859.56,1537.36,859.06,1540.53,859.02,1543.97z"/>
<path class="st2" d="M907.26,1543.97c0-3.39,0.48-6.6,1.44-9.64c0.96-3.03,2.36-5.69,4.22-7.96c1.85-2.28,4.15-4.08,6.89-5.42
	c2.74-1.34,5.9-2.01,9.47-2.01c3.57,0,6.72,0.67,9.47,2.01c2.74,1.34,5.04,3.14,6.89,5.42c1.85,2.28,3.26,4.93,4.22,7.96
	c0.96,3.03,1.44,6.25,1.44,9.64c0,3.39-0.48,6.6-1.44,9.64c-0.96,3.04-2.37,5.69-4.22,7.96c-1.85,2.27-4.15,4.07-6.89,5.39
	c-2.74,1.31-5.9,1.97-9.47,1.97c-3.57,0-6.72-0.66-9.47-1.97c-2.74-1.31-5.04-3.11-6.89-5.39c-1.85-2.28-3.26-4.93-4.22-7.96
	C907.74,1550.57,907.26,1547.36,907.26,1543.97z M908.6,1543.97c0.04,3.44,0.55,6.6,1.5,9.5c0.96,2.9,2.32,5.4,4.08,7.49
	c1.76,2.1,3.91,3.74,6.46,4.92c2.54,1.18,5.42,1.77,8.63,1.77c3.21,0,6.09-0.59,8.63-1.77s4.69-2.82,6.46-4.92
	c1.76-2.09,3.12-4.59,4.08-7.49c0.96-2.9,1.46-6.07,1.5-9.5c-0.04-3.43-0.55-6.6-1.5-9.5c-0.96-2.9-2.32-5.4-4.08-7.49
	c-1.76-2.1-3.91-3.73-6.46-4.92c-2.54-1.18-5.42-1.77-8.63-1.77c-3.21,0-6.09,0.59-8.63,1.77c-2.54,1.18-4.69,2.82-6.46,4.92
	c-1.76,2.1-3.12,4.6-4.08,7.49C909.14,1537.36,908.64,1540.53,908.6,1543.97z"/>
<path class="st2" d="M974.98,1520.08c2.36,0,4.76,0.37,7.19,1.1c2.43,0.74,4.62,2.01,6.56,3.81c1.94,1.81,3.52,4.25,4.75,7.33
	c1.23,3.08,1.84,6.96,1.84,11.64c0,4.28-0.63,7.94-1.88,10.97s-2.92,5.5-5.02,7.39c-2.1,1.9-4.48,3.29-7.16,4.18
	c-2.68,0.89-5.47,1.34-8.36,1.34h-14.65v-47.77H974.98z M973.24,1566.52c2.81,0,5.48-0.46,8-1.37c2.52-0.91,4.73-2.3,6.63-4.15
	c1.9-1.85,3.39-4.19,4.48-7.03c1.09-2.83,1.64-6.17,1.64-10c0-4.46-0.56-8.14-1.67-11.04c-1.11-2.9-2.59-5.21-4.42-6.93
	c-1.83-1.72-3.89-2.91-6.19-3.58c-2.3-0.67-4.65-1-7.06-1h-15.06v45.1H973.24z"/>
<path class="st2" d="M1019.94,1567.85h-1.47l19.34-47.77h1.74l18.87,47.77h-1.47l-6.29-15.72h-24.36L1019.94,1567.85z
	 M1038.74,1521.42h-0.13l-11.78,29.38h23.29L1038.74,1521.42z"/>
<path class="st2" d="M1093.11,1527.27c-0.83-1.67-1.92-3.03-3.28-4.08s-2.98-1.8-4.85-2.24c-1.87-0.45-3.88-0.67-6.02-0.67
	c-1.65,0-3.37,0.17-5.15,0.5c-1.78,0.33-3.4,0.93-4.85,1.77s-2.64,1.97-3.58,3.38c-0.94,1.41-1.41,3.18-1.41,5.32
	c0,2.14,0.48,3.86,1.44,5.15c0.96,1.29,2.21,2.34,3.75,3.14c1.54,0.8,3.29,1.43,5.25,1.87c1.96,0.45,3.97,0.91,6.02,1.41
	c2.23,0.58,4.34,1.14,6.32,1.67c1.98,0.53,3.71,1.25,5.18,2.14c1.47,0.89,2.64,2.07,3.51,3.55c0.87,1.47,1.3,3.46,1.3,5.95
	c0,2.28-0.49,4.22-1.47,5.82c-0.98,1.61-2.28,2.93-3.88,3.98c-1.61,1.05-3.41,1.81-5.42,2.28c-2.01,0.47-4.04,0.7-6.09,0.7
	c-2.72,0-5.23-0.31-7.53-0.94c-2.3-0.63-4.28-1.62-5.95-2.98s-2.97-3.11-3.88-5.25c-0.91-2.14-1.35-4.73-1.3-7.76h1.34
	c0,2.86,0.42,5.28,1.27,7.26c0.85,1.98,2.04,3.6,3.58,4.85c1.54,1.25,3.37,2.15,5.49,2.71c2.12,0.56,4.45,0.84,6.99,0.84
	c1.87,0,3.73-0.21,5.59-0.64c1.85-0.42,3.51-1.1,4.98-2.04c1.47-0.94,2.67-2.14,3.58-3.61c0.91-1.47,1.37-3.23,1.37-5.29
	c0-2.41-0.52-4.32-1.57-5.72c-1.05-1.4-2.39-2.52-4.02-3.34c-1.63-0.83-3.44-1.45-5.42-1.87c-1.99-0.42-3.89-0.86-5.72-1.3
	c-1.92-0.45-3.84-0.91-5.75-1.41c-1.92-0.49-3.65-1.17-5.19-2.04c-1.54-0.87-2.78-2.03-3.71-3.48c-0.94-1.45-1.4-3.33-1.4-5.65
	c0-2.36,0.49-4.34,1.47-5.92c0.98-1.58,2.25-2.84,3.81-3.78c1.56-0.94,3.31-1.61,5.25-2.01c1.94-0.4,3.87-0.6,5.79-0.6
	c2.36,0,4.54,0.26,6.52,0.77c1.98,0.51,3.72,1.34,5.22,2.48c1.49,1.14,2.69,2.63,3.58,4.48c0.89,1.85,1.41,4.11,1.54,6.79h-1.34
	C1094.39,1531.01,1093.93,1528.94,1093.11,1527.27z"/>
<path class="st2" d="M1135.33,1527.27c-0.83-1.67-1.92-3.03-3.28-4.08s-2.98-1.8-4.85-2.24c-1.87-0.45-3.88-0.67-6.02-0.67
	c-1.65,0-3.37,0.17-5.15,0.5c-1.78,0.33-3.4,0.93-4.85,1.77s-2.64,1.97-3.58,3.38c-0.94,1.41-1.41,3.18-1.41,5.32
	c0,2.14,0.48,3.86,1.44,5.15c0.96,1.29,2.21,2.34,3.75,3.14c1.54,0.8,3.29,1.43,5.25,1.87c1.96,0.45,3.97,0.91,6.02,1.41
	c2.23,0.58,4.34,1.14,6.32,1.67c1.98,0.53,3.71,1.25,5.18,2.14c1.47,0.89,2.64,2.07,3.51,3.55c0.87,1.47,1.3,3.46,1.3,5.95
	c0,2.28-0.49,4.22-1.47,5.82c-0.98,1.61-2.28,2.93-3.88,3.98c-1.61,1.05-3.41,1.81-5.42,2.28c-2.01,0.47-4.04,0.7-6.09,0.7
	c-2.72,0-5.23-0.31-7.53-0.94c-2.3-0.63-4.28-1.62-5.95-2.98s-2.97-3.11-3.88-5.25c-0.91-2.14-1.35-4.73-1.3-7.76h1.34
	c0,2.86,0.42,5.28,1.27,7.26c0.85,1.98,2.04,3.6,3.58,4.85c1.54,1.25,3.37,2.15,5.49,2.71c2.12,0.56,4.45,0.84,6.99,0.84
	c1.87,0,3.73-0.21,5.59-0.64c1.85-0.42,3.51-1.1,4.98-2.04c1.47-0.94,2.67-2.14,3.58-3.61c0.91-1.47,1.37-3.23,1.37-5.29
	c0-2.41-0.52-4.32-1.57-5.72c-1.05-1.4-2.39-2.52-4.02-3.34c-1.63-0.83-3.44-1.45-5.42-1.87c-1.99-0.42-3.89-0.86-5.72-1.3
	c-1.92-0.45-3.84-0.91-5.75-1.41c-1.92-0.49-3.65-1.17-5.19-2.04c-1.54-0.87-2.78-2.03-3.71-3.48c-0.94-1.45-1.4-3.33-1.4-5.65
	c0-2.36,0.49-4.34,1.47-5.92c0.98-1.58,2.25-2.84,3.81-3.78c1.56-0.94,3.31-1.61,5.25-2.01c1.94-0.4,3.87-0.6,5.79-0.6
	c2.36,0,4.54,0.26,6.52,0.77c1.98,0.51,3.72,1.34,5.22,2.48c1.49,1.14,2.69,2.63,3.58,4.48c0.89,1.85,1.41,4.11,1.54,6.79h-1.34
	C1136.61,1531.01,1136.15,1528.94,1135.33,1527.27z"/>
<path class="st2" d="M1145.47,1543.97c0-3.39,0.48-6.6,1.44-9.64c0.96-3.03,2.36-5.69,4.22-7.96c1.85-2.28,4.15-4.08,6.89-5.42
	c2.74-1.34,5.9-2.01,9.47-2.01c3.57,0,6.72,0.67,9.47,2.01c2.74,1.34,5.04,3.14,6.89,5.42s3.26,4.93,4.22,7.96
	c0.96,3.03,1.44,6.25,1.44,9.64c0,3.39-0.48,6.6-1.44,9.64c-0.96,3.04-2.36,5.69-4.22,7.96c-1.85,2.27-4.15,4.07-6.89,5.39
	c-2.74,1.31-5.9,1.97-9.47,1.97c-3.57,0-6.72-0.66-9.47-1.97c-2.74-1.31-5.04-3.11-6.89-5.39c-1.85-2.28-3.26-4.93-4.22-7.96
	C1145.95,1550.57,1145.47,1547.36,1145.47,1543.97z M1146.81,1543.97c0.04,3.44,0.55,6.6,1.51,9.5c0.96,2.9,2.32,5.4,4.08,7.49
	c1.76,2.1,3.91,3.74,6.46,4.92s5.42,1.77,8.63,1.77s6.09-0.59,8.63-1.77s4.69-2.82,6.46-4.92c1.76-2.09,3.12-4.59,4.08-7.49
	c0.96-2.9,1.46-6.07,1.51-9.5c-0.05-3.43-0.55-6.6-1.51-9.5c-0.96-2.9-2.32-5.4-4.08-7.49s-3.91-3.73-6.46-4.92
	c-2.54-1.18-5.42-1.77-8.63-1.77s-6.09,0.59-8.63,1.77c-2.54,1.18-4.7,2.82-6.46,4.92c-1.76,2.1-3.12,4.6-4.08,7.49
	C1147.35,1537.36,1146.85,1540.53,1146.81,1543.97z"/>
<path class="st2" d="M1234.93,1557.11c-1.11,2.43-2.55,4.52-4.31,6.26c-1.76,1.74-3.85,3.1-6.26,4.08
	c-2.41,0.98-5.13,1.47-8.16,1.47c-3.17,0-6.08-0.61-8.73-1.84c-2.66-1.23-4.93-2.92-6.83-5.08c-1.9-2.16-3.38-4.75-4.45-7.76
	c-1.07-3.01-1.61-6.3-1.61-9.87c0-2.9,0.41-5.86,1.24-8.87c0.83-3.01,2.13-5.74,3.91-8.2c1.78-2.45,4.1-4.46,6.96-6.02
	c2.86-1.56,6.31-2.34,10.37-2.34c3.17,0,5.93,0.52,8.3,1.57c2.36,1.05,4.34,2.36,5.92,3.95c1.58,1.58,2.78,3.27,3.58,5.05
	c0.8,1.78,1.23,3.41,1.27,4.89h-1.34c-0.13-1.74-0.65-3.45-1.54-5.12c-0.89-1.67-2.11-3.18-3.65-4.52
	c-1.54-1.34-3.37-2.42-5.49-3.25s-4.47-1.24-7.06-1.24c-3.93,0-7.24,0.79-9.94,2.38c-2.7,1.58-4.88,3.57-6.52,5.95
	c-1.65,2.39-2.84,4.98-3.58,7.8c-0.74,2.81-1.1,5.47-1.1,7.96c0,3.03,0.45,5.95,1.34,8.77c0.89,2.81,2.21,5.29,3.95,7.43
	c1.74,2.14,3.87,3.86,6.39,5.15c2.52,1.29,5.39,1.94,8.6,1.94c2.85,0,5.42-0.47,7.69-1.41c2.28-0.94,4.24-2.23,5.89-3.88
	c1.65-1.65,2.99-3.61,4.02-5.89c1.03-2.28,1.72-4.73,2.07-7.36h1.34C1236.8,1552.02,1236.04,1554.68,1234.93,1557.11z"/>
<path class="st2" d="M1245.03,1520.08v47.77h-1.34v-47.77H1245.03z"/>
<path class="st2" d="M1250.72,1567.85h-1.47l19.34-47.77h1.74l18.87,47.77h-1.47l-6.29-15.72h-24.36L1250.72,1567.85z
	 M1269.52,1521.42h-0.13l-11.78,29.38h23.29L1269.52,1521.42z"/>
<path class="st2" d="M1283.77,1520.08h35.66v1.34h-17.2v46.44h-1.34v-46.44h-17.13V1520.08z"/>
<path class="st2" d="M1324.59,1520.08v47.77h-1.34v-47.77H1324.59z"/>
<path class="st2" d="M1331.68,1543.97c0-3.39,0.48-6.6,1.44-9.64c0.96-3.03,2.36-5.69,4.22-7.96c1.85-2.28,4.15-4.08,6.89-5.42
	c2.74-1.34,5.9-2.01,9.47-2.01c3.57,0,6.72,0.67,9.47,2.01c2.74,1.34,5.04,3.14,6.89,5.42s3.26,4.93,4.22,7.96
	c0.96,3.03,1.44,6.25,1.44,9.64c0,3.39-0.48,6.6-1.44,9.64c-0.96,3.04-2.36,5.69-4.22,7.96c-1.85,2.27-4.15,4.07-6.89,5.39
	c-2.74,1.31-5.9,1.97-9.47,1.97c-3.57,0-6.72-0.66-9.47-1.97c-2.74-1.31-5.04-3.11-6.89-5.39c-1.85-2.28-3.26-4.93-4.22-7.96
	C1332.16,1550.57,1331.68,1547.36,1331.68,1543.97z M1333.02,1543.97c0.04,3.44,0.55,6.6,1.51,9.5c0.96,2.9,2.32,5.4,4.08,7.49
	c1.76,2.1,3.91,3.74,6.46,4.92s5.42,1.77,8.63,1.77c3.21,0,6.09-0.59,8.63-1.77s4.69-2.82,6.46-4.92c1.76-2.09,3.12-4.59,4.08-7.49
	c0.96-2.9,1.46-6.07,1.51-9.5c-0.05-3.43-0.55-6.6-1.51-9.5c-0.96-2.9-2.32-5.4-4.08-7.49s-3.91-3.73-6.46-4.92
	c-2.54-1.18-5.42-1.77-8.63-1.77c-3.21,0-6.09,0.59-8.63,1.77c-2.54,1.18-4.7,2.82-6.46,4.92c-1.76,2.1-3.12,4.6-4.08,7.49
	C1333.57,1537.36,1333.06,1540.53,1333.02,1543.97z"/>
<path class="st2" d="M1384.74,1520.08l32.65,46.1h0.13v-46.1h1.34v47.77h-2.01l-32.65-46.1h-0.13v46.1h-1.34v-47.77H1384.74z"/>
<path class="st0" d="M749.71,1521.63c-0.02,43.48-11.57,83.69-36.41,119.34c-44.12,63.32-105.44,95.17-182.51,94.45
	c-99.74-0.94-186.66-75.08-205.12-173.33c-2.51-13.37-4.16-26.82-3.78-40.46c7.86-0.24,15.66,0.45,23.45,1.32
	c71.13,9.34,125.14,44.78,162.05,106.3c0.37,0.62,0.79,1.2,1.18,1.8c14.39,26.41,23.29,54.56,27.15,84.67
	c2.63-15.1,5.92-29.9,9.82-44.56c1.24-3.45,2.48-6.89,3.73-10.34c2.18-5.42,4.37-10.84,6.55-16.25
	c7.24-13.11,14.32-26.3,23.57-38.18c36.21-46.54,83.4-74.24,141.79-82.78c1.61-0.23,3.19-0.61,4.79-0.92
	C733.88,1522.33,741.79,1521.98,749.71,1521.63z"/>
<path class="st0" d="M555.82,1644.56c-2.18,5.42-4.37,10.84-6.55,16.25c-10.08-17.66-17.97-36.09-21.46-56.33
	c-2-11.61-5.82-22.75-13.05-32.36c-1.15-1.53-1.89-3.99-5.04-3.64c5.03,11.44,7,23.31,8.62,35.22c3.37,24.8,12,47.44,27.21,67.45
	c-3.91,14.66-7.19,29.47-9.82,44.56c-3.86-30.11-12.77-58.26-27.15-84.67c6.05-20.41,3.85-40.32-3.79-59.85
	c-3.04-7.76-7.44-14.8-12.34-21.67c10.89-1.41,20.23,5.55,31.95,23.9c1.23-9.97,0.31-19.13-2.22-28.08
	c-6.7-23.7-20.54-41.99-42.22-53.89c-16.17-8.88-33.17-16.16-48.14-27.29c-10.52-7.82-19.84-16.77-28.82-26.18
	c-17.08-17.92-29.08-38.93-36.78-62.33c-2.91-8.85-6.15-18.15-6.18-27.25c-0.04-9.87-2.56-19.52-0.8-29.71
	c1.68-9.65,3.12-19.4,5.04-29.24c8.92,23.93,21.22,45.7,38.62,64.39c5.01,6.23,10.18,12.3,16.81,16.91c0.54,2.14,2.5,3.03,3.95,4.31
	c11,9.73,22.99,18.1,35.39,25.97c35.67,22.63,60.05,53.78,70.84,95.01c2.52,9.61,3.61,19.48,5.1,29.32
	c3.17-8.47,4.56-17.2,4.99-26.03c1.91-38.9-4.58-76.35-19.9-112.19c-7.33-17.15-12.18-35.06-16.74-53.07
	c-0.88-7.87-1.76-15.73-2.63-23.6c-1.73-25.29,1.48-49.82,11.17-73.37c4.12-10.02,9.27-19.48,16.15-28.15
	c-0.72,4.1-1.57,8.19-2.15,12.32c-4.14,29.41,1.95,57.6,10.32,85.5c6.69,22.31,15.57,43.9,21.3,66.55
	c12.37,48.94,8.3,96.67-9.38,143.59c2,0.65,2.25-0.96,2.81-1.93c19.39-33.74,45.13-61.87,75.41-86.13
	c16.09-12.89,29.69-28.09,39.57-46.37c4.48-7,8.08-14.41,10.48-22.39c4.77-11.12,6.47-22.86,6.97-34.84
	c0.08-1.98,0.17-3.95,0.26-5.93l-0.09,0.09c5.02,9.92,7.24,20.71,8.63,31.53c8.9,69.38-16.74,122.64-75.54,160.16
	c-18.53,11.82-36.72,24.16-50.9,41.2c-22.31,26.82-25.58,56.51-11.68,88.29C554.6,1641.94,555.22,1643.24,555.82,1644.56z
	 M509.34,1491.38c0.29,0.56,0.59,1.12,0.88,1.67c0.71-0.78,0.42-1.59,0.07-2.4c-14.36-26.06-34.94-46.32-58.82-63.63
	c-31.98-23.18-56.03-53.08-73.73-88.26c-0.48-0.95-0.22-3.16-2.81-2.55c1.31,4.32,2.5,8.58,3.88,12.77
	c12.08,36.48,34.88,65.14,65.35,87.8C466.97,1453.74,490.12,1470.19,509.34,1491.38z M549.97,1544.6
	c13.71-16.47,28.89-31.44,45.76-44.66c10.4-8.15,21.3-15.69,31.38-24.21c24.14-20.4,42.68-44.69,50.54-75.99
	c1.95-7.75,1.99-8.95,0.76-13.62c-6.25,21.33-18.64,38.48-33.52,54.07c-11.28,11.82-23.8,22.25-36.5,32.49
	c-24.51,19.74-45.61,42.35-59.37,71.08c-0.33,0.49-0.66,0.97-0.99,1.46C548.89,1545.69,549.54,1545.49,549.97,1544.6z
	 M550.04,1449.64c0.57,0.01,1.14,0.03,1.72,0.04c0.43-4.05,1.01-8.09,1.27-12.16c1.85-29.27-3.85-57.18-15.56-83.94
	c-7.61-17.39-14.53-35.02-18.56-53.63c-1.15-5.29-2.05-10.65-2.75-16.01c-0.68-5.15-0.95-10.35-1.4-15.53
	c-1.07,2.09-1.63,4.16-1.9,6.27c-3.52,26.87,1.34,52.57,11.35,77.43c9.11,22.62,18.39,45.16,22.92,69.27
	C548.88,1430.71,550.01,1440.11,550.04,1449.64z"/>
<path class="st0" d="M419.71,1370.75c-6.63-4.61-11.8-10.69-16.81-16.91c28.83-22.96,61.4-37.49,97.8-43.37
	c0.88,7.87,1.76,15.73,2.63,23.6C472.5,1339.56,444.69,1351.93,419.71,1370.75z"/>
<path class="st0" d="M676.37,1360.11c-2.4,7.97-6,15.39-10.48,22.39c-20.35-18.37-43.25-32.47-69.34-41.17
	c-2.22-0.74-3.19-1.99-3.75-4.06c-1.81-6.61-3.64-13.21-5.59-19.78c-1.1-3.72,0.24-3.87,3.4-3.01
	C622.68,1323.19,651.37,1338.16,676.37,1360.11z"/>
<path class="st0" d="M749.71,1521.63c-7.91,0.35-15.83,0.7-23.74,1.04c0.16-16.51-1.95-32.75-6.06-48.72
	c-0.51-1.98-0.92-3.72,0.61-5.55c5.66-6.78,10.41-14.21,15.43-22.83C745.26,1470.72,750.15,1495.67,749.71,1521.63z"/>
<path class="st0" d="M568.29,1309.63c-2.68-11.6-6.43-22.94-8.01-34.84c-0.67-5.02,0.26-8.26,4.51-10.79
	c2.14-1.27,4.04-2.93,6.54-4.77c1.03,9.26,1.65,18.01,3.02,26.64c3.19,20.08,9.24,39.37,16.52,58.34
	c7.23,18.85,11.27,38.2,6.8,58.45c-1.55,7.02-3.8,13.81-8.37,19.78c9.02-30.57,1.81-58.93-11.06-86.56
	C574.93,1327.13,571.61,1318.38,568.29,1309.63z"/>
<path class="st0" d="M363.86,1439.57c14.37,18.15,32.3,31.99,52.37,43.26c8.17,4.59,16.81,8.19,26.05,11.92
	c-2.88,1.56-4.99,0.27-7.01-0.27c-44.99-12.2-79.57-37.86-101.95-79.18c-0.6-1.11-1.17-2.25-1.68-3.4
	c-4.28-9.55-4.21-10.18,2.36-20.06c4.67,9.1,8.22,18.52,14.28,26.53C352.78,1425.93,357.83,1433.11,363.86,1439.57z"/>
<path class="st0" d="M724.66,1419.97c2.39-9.69,4.1-19.47,4.31-29.77c3.17,8.68,6.52,17.3,9.38,26.08c0.58,1.79-0.41,4.23-1.03,6.26
	c-11.63,38.14-35.26,66.72-69.41,86.86c-1.37,0.81-2.73,1.92-4.6,0.99c21.08-15.99,37.48-35.84,49.44-59.39
	C718.23,1441.24,721.74,1430.72,724.66,1419.97z"/>
<path class="st0" d="M724.66,1419.97c-2.93,10.75-6.43,21.27-11.91,31.04c-5.02-10.75-9.91-21.57-16.46-31.51
	c-0.87-1.32-1.14-2.61-0.77-4.09c2.43-9.72,4.02-19.58,4.73-30.7C710.36,1396.04,717.38,1408.09,724.66,1419.97z"/>
<path class="st0" d="M345.34,1522.94c-7.79-0.87-15.6-1.57-23.45-1.32c-0.42-13.22,1.28-26.24,3.44-39.24
	c0.51-3.09,1.56-3.76,4.61-2.63c5.22,1.94,10.61,3.46,15.98,4.99c2.39,0.68,3.15,1.92,2.66,4.32
	C346.29,1500.24,346,1511.61,345.34,1522.94z"/>
<path class="st0" d="M328.36,1468.27c3.05-10.52,6.15-21.03,11.03-31.55c5.3,6.57,10.69,12.56,16.69,17.94
	c1.76,1.58,0.6,2.97,0.13,4.37c-2.27,6.83-4.45,13.68-5.77,20.77C343.08,1475.96,335.72,1472.12,328.36,1468.27z"/>
<path class="st0" d="M363.86,1439.57c-6.04-6.45-11.08-13.64-15.58-21.22c4.57-8.55,9.83-16.65,15.78-24.57
	c4.2,7.28,8.08,14.13,12.12,20.89c0.92,1.53,0.61,2.55-0.19,3.91C371.9,1425.54,367.9,1432.57,363.86,1439.57z"/>
<path class="st0" d="M568.29,1309.63c3.32,8.75,6.64,17.5,9.95,26.24c-8.18-1.24-16.26-3.23-24.57-3.57
	c-2.34-0.09-3.09-1.63-3.58-3.38c-1.93-6.91-3.77-13.85-5.86-21.58C552.64,1308.14,560.47,1308.89,568.29,1309.63z"/>
<path class="st0" d="M328.36,1468.27c7.36,3.85,14.72,7.69,22.08,11.54c8.35,4.2,16.71,8.41,25.06,12.61
	c-0.17,0.41-0.35,0.82-0.52,1.24c-28.91-11.39-57.81-22.78-86.97-34.27c6.35-5.13,12.07-5.93,18.99-1.55
	C313.65,1462.04,321.2,1464.85,328.36,1468.27z"/>
<path class="st0" d="M683.6,1319.35c-0.23-0.17-0.45-0.33-0.68-0.5c0.14-0.11,0.28-0.22,0.42-0.33c0.06,0.31,0.12,0.61,0.17,0.92
	C683.51,1319.43,683.6,1319.35,683.6,1319.35z"/>
<path class="st1" d="M852.53,1436.54c2.76,0,5.41,0.26,7.95,0.78c2.54,0.52,4.78,1.41,6.71,2.66c1.93,1.26,3.48,2.91,4.64,4.96
	c1.16,2.06,1.75,4.61,1.75,7.67c0,1.72-0.28,3.39-0.83,5.01c-0.55,1.62-1.33,3.09-2.34,4.41c-1.01,1.32-2.21,2.43-3.58,3.35
	c-1.38,0.92-2.93,1.56-4.64,1.93v0.18c4.23,0.55,7.59,2.28,10.11,5.19c2.51,2.91,3.77,6.51,3.77,10.79c0,1.04-0.09,2.22-0.28,3.54
	c-0.18,1.32-0.55,2.66-1.1,4.04c-0.55,1.38-1.35,2.74-2.39,4.09c-1.04,1.35-2.43,2.53-4.18,3.54c-1.75,1.01-3.89,1.84-6.43,2.48
	c-2.54,0.64-5.59,0.97-9.14,0.97h-27.75v-65.6H852.53z M852.53,1465.3c2.51,0,4.69-0.29,6.52-0.87c1.84-0.58,3.37-1.38,4.59-2.39
	c1.22-1.01,2.14-2.19,2.76-3.54c0.61-1.35,0.92-2.79,0.92-4.32c0-8.21-4.93-12.31-14.79-12.31h-21.5v23.43H852.53z M852.53,1496.81
	c2.33,0,4.53-0.2,6.62-0.6c2.08-0.4,3.92-1.11,5.51-2.16c1.59-1.04,2.85-2.43,3.77-4.18c0.92-1.75,1.38-3.93,1.38-6.57
	c0-4.23-1.49-7.4-4.46-9.51c-2.97-2.11-7.24-3.17-12.82-3.17h-21.5v26.19H852.53z"/>
<path class="st1" d="M894.61,1436.54v65.6h-6.25v-65.6H894.61z"/>
<path class="st1" d="M908.57,1456.39c1.29-4.1,3.22-7.73,5.79-10.89c2.57-3.15,5.8-5.66,9.69-7.53c3.89-1.87,8.41-2.8,13.55-2.8
	c5.14,0,9.65,0.93,13.51,2.8c3.86,1.87,7.07,4.38,9.65,7.53c2.57,3.16,4.5,6.79,5.79,10.89c1.29,4.1,1.93,8.42,1.93,12.95
	c0,4.54-0.64,8.85-1.93,12.96c-1.29,4.1-3.22,7.72-5.79,10.84c-2.57,3.12-5.79,5.62-9.65,7.49c-3.86,1.87-8.36,2.8-13.51,2.8
	c-5.15,0-9.66-0.94-13.55-2.8c-3.89-1.87-7.12-4.36-9.69-7.49c-2.57-3.12-4.5-6.74-5.79-10.84c-1.29-4.1-1.93-8.42-1.93-12.96
	C906.64,1464.81,907.29,1460.49,908.57,1456.39z M914.32,1479.86c0.95,3.46,2.42,6.56,4.41,9.28c1.99,2.73,4.55,4.92,7.67,6.57
	c3.12,1.65,6.86,2.48,11.21,2.48c4.35,0,8.07-0.83,11.16-2.48c3.09-1.66,5.64-3.84,7.63-6.57c1.99-2.72,3.46-5.82,4.41-9.28
	c0.95-3.46,1.42-6.97,1.42-10.52c0-3.61-0.47-7.13-1.42-10.57c-0.95-3.43-2.42-6.51-4.41-9.23c-1.99-2.72-4.53-4.92-7.63-6.57
	c-3.09-1.65-6.82-2.48-11.16-2.48c-4.35,0-8.09,0.83-11.21,2.48c-3.12,1.65-5.68,3.84-7.67,6.57c-1.99,2.73-3.46,5.81-4.41,9.23
	c-0.95,3.43-1.42,6.95-1.42,10.57C912.89,1472.89,913.37,1476.4,914.32,1479.86z"/>
<path class="st1" d="M986.86,1436.54l38.22,55.5h0.18v-55.5h6.25v65.6h-6.98l-38.22-55.5h-0.18v55.5h-6.25v-65.6H986.86z"/>
<path class="st1" d="M1052,1436.54v40.61c0,3.8,0.43,7.03,1.29,9.69c0.86,2.66,2.11,4.84,3.77,6.52c1.65,1.69,3.67,2.91,6.06,3.68
	c2.39,0.76,5.08,1.15,8.09,1.15c3.06,0,5.79-0.38,8.18-1.15c2.39-0.77,4.41-1.99,6.06-3.68c1.65-1.68,2.91-3.86,3.77-6.52
	c0.86-2.66,1.29-5.89,1.29-9.69v-40.61h6.25v41.99c0,3.37-0.47,6.57-1.42,9.6c-0.95,3.03-2.45,5.68-4.5,7.95
	c-2.05,2.26-4.69,4.06-7.9,5.38c-3.22,1.32-7.12,1.97-11.72,1.97c-4.53,0-8.41-0.66-11.62-1.97c-3.22-1.32-5.85-3.11-7.9-5.38
	c-2.05-2.27-3.55-4.92-4.5-7.95c-0.95-3.03-1.42-6.23-1.42-9.6v-41.99H1052z"/>
<path class="st1" d="M1156.01,1436.54v5.33h-22.88v60.28h-6.25v-60.28h-22.79v-5.33H1156.01z"/>
<path class="st1" d="M1194.05,1436.54c2.69,0,5.25,0.34,7.67,1.01c2.42,0.67,4.53,1.7,6.34,3.08c1.81,1.38,3.25,3.16,4.32,5.33
	c1.07,2.18,1.61,4.73,1.61,7.67c0,4.17-1.07,7.78-3.22,10.84c-2.14,3.06-5.33,5.02-9.55,5.88v0.18c2.14,0.31,3.92,0.87,5.33,1.7
	c1.41,0.83,2.56,1.88,3.45,3.17c0.89,1.29,1.53,2.77,1.93,4.45c0.4,1.69,0.66,3.51,0.78,5.47c0.06,1.1,0.12,2.45,0.18,4.04
	c0.06,1.59,0.18,3.2,0.37,4.82c0.18,1.62,0.47,3.16,0.87,4.6s0.93,2.56,1.61,3.35h-6.89c-0.37-0.61-0.66-1.36-0.87-2.25
	c-0.21-0.89-0.37-1.81-0.46-2.76c-0.09-0.95-0.17-1.88-0.23-2.8c-0.06-0.92-0.12-1.72-0.18-2.39c-0.12-2.33-0.32-4.64-0.6-6.94
	c-0.28-2.3-0.86-4.35-1.75-6.16c-0.89-1.81-2.18-3.26-3.86-4.36c-1.69-1.1-4-1.59-6.94-1.47h-23.7v29.13H1164v-65.6H1194.05z
	 M1193.59,1467.69c1.9,0,3.71-0.29,5.42-0.87c1.71-0.58,3.22-1.42,4.5-2.53c1.29-1.1,2.31-2.44,3.08-4
	c0.77-1.56,1.15-3.36,1.15-5.38c0-4.04-1.16-7.23-3.49-9.55c-2.33-2.33-5.88-3.49-10.66-3.49h-23.34v25.82H1193.59z"/>
<path class="st1" d="M1233.84,1436.54v65.6h-6.25v-65.6H1233.84z"/>
<path class="st1" d="M1294.66,1436.54v5.33h-39.05v23.71h36.57v5.33h-36.57v25.91h39.51v5.33h-45.76v-65.6H1294.66z"/>
<path class="st1" d="M1312.58,1436.54l38.22,55.5h0.18v-55.5h6.25v65.6h-6.98l-38.22-55.5h-0.18v55.5h-6.25v-65.6H1312.58z"/>
<path class="st1" d="M1417.14,1436.54v5.33h-22.88v60.28h-6.25v-60.28h-22.79v-5.33H1417.14z"/>
<path class="st2" d="M852.39,1542.29v1.34h-25.43v24.22h-1.34v-47.77h29.44v1.34h-28.1v20.88H852.39z"/>
<path class="st2" d="M857.68,1543.97c0-3.39,0.48-6.6,1.44-9.64c0.96-3.03,2.36-5.69,4.22-7.96c1.85-2.28,4.15-4.08,6.89-5.42
	c2.74-1.34,5.9-2.01,9.47-2.01c3.57,0,6.72,0.67,9.47,2.01c2.74,1.34,5.04,3.14,6.89,5.42s3.26,4.93,4.22,7.96
	c0.96,3.03,1.44,6.25,1.44,9.64c0,3.39-0.48,6.6-1.44,9.64c-0.96,3.04-2.36,5.69-4.22,7.96c-1.85,2.27-4.15,4.07-6.89,5.39
	c-2.74,1.31-5.9,1.97-9.47,1.97c-3.57,0-6.72-0.66-9.47-1.97s-5.04-3.11-6.89-5.39c-1.85-2.28-3.26-4.93-4.22-7.96
	C858.16,1550.57,857.68,1547.36,857.68,1543.97z M859.02,1543.97c0.04,3.44,0.55,6.6,1.51,9.5c0.96,2.9,2.32,5.4,4.08,7.49
	c1.76,2.1,3.91,3.74,6.46,4.92c2.54,1.18,5.42,1.77,8.63,1.77c3.21,0,6.09-0.59,8.63-1.77s4.69-2.82,6.46-4.92
	c1.76-2.09,3.12-4.59,4.08-7.49c0.96-2.9,1.46-6.07,1.5-9.5c-0.05-3.43-0.55-6.6-1.5-9.5c-0.96-2.9-2.32-5.4-4.08-7.49
	s-3.91-3.73-6.46-4.92c-2.54-1.18-5.42-1.77-8.63-1.77c-3.21,0-6.09,0.59-8.63,1.77c-2.54,1.18-4.69,2.82-6.46,4.92
	c-1.76,2.1-3.12,4.6-4.08,7.49C859.56,1537.36,859.06,1540.53,859.02,1543.97z"/>
<path class="st2" d="M907.26,1543.97c0-3.39,0.48-6.6,1.44-9.64c0.96-3.03,2.36-5.69,4.22-7.96c1.85-2.28,4.15-4.08,6.89-5.42
	c2.74-1.34,5.9-2.01,9.47-2.01c3.57,0,6.72,0.67,9.47,2.01c2.74,1.34,5.04,3.14,6.89,5.42c1.85,2.28,3.26,4.93,4.22,7.96
	c0.96,3.03,1.44,6.25,1.44,9.64c0,3.39-0.48,6.6-1.44,9.64c-0.96,3.04-2.37,5.69-4.22,7.96c-1.85,2.27-4.15,4.07-6.89,5.39
	c-2.74,1.31-5.9,1.97-9.47,1.97c-3.57,0-6.72-0.66-9.47-1.97c-2.74-1.31-5.04-3.11-6.89-5.39c-1.85-2.28-3.26-4.93-4.22-7.96
	C907.74,1550.57,907.26,1547.36,907.26,1543.97z M908.6,1543.97c0.04,3.44,0.55,6.6,1.5,9.5c0.96,2.9,2.32,5.4,4.08,7.49
	c1.76,2.1,3.91,3.74,6.46,4.92c2.54,1.18,5.42,1.77,8.63,1.77c3.21,0,6.09-0.59,8.63-1.77s4.69-2.82,6.46-4.92
	c1.76-2.09,3.12-4.59,4.08-7.49c0.96-2.9,1.46-6.07,1.5-9.5c-0.04-3.43-0.55-6.6-1.5-9.5c-0.96-2.9-2.32-5.4-4.08-7.49
	c-1.76-2.1-3.91-3.73-6.46-4.92c-2.54-1.18-5.42-1.77-8.63-1.77c-3.21,0-6.09,0.59-8.63,1.77c-2.54,1.18-4.69,2.82-6.46,4.92
	c-1.76,2.1-3.12,4.6-4.08,7.49C909.14,1537.36,908.64,1540.53,908.6,1543.97z"/>
<path class="st2" d="M974.98,1520.08c2.36,0,4.76,0.37,7.19,1.1c2.43,0.74,4.62,2.01,6.56,3.81c1.94,1.81,3.52,4.25,4.75,7.33
	c1.23,3.08,1.84,6.96,1.84,11.64c0,4.28-0.63,7.94-1.88,10.97s-2.92,5.5-5.02,7.39c-2.1,1.9-4.48,3.29-7.16,4.18
	c-2.68,0.89-5.47,1.34-8.36,1.34h-14.65v-47.77H974.98z M973.24,1566.52c2.81,0,5.48-0.46,8-1.37c2.52-0.91,4.73-2.3,6.63-4.15
	c1.9-1.85,3.39-4.19,4.48-7.03c1.09-2.83,1.64-6.17,1.64-10c0-4.46-0.56-8.14-1.67-11.04c-1.11-2.9-2.59-5.21-4.42-6.93
	c-1.83-1.72-3.89-2.91-6.19-3.58c-2.3-0.67-4.65-1-7.06-1h-15.06v45.1H973.24z"/>
<path class="st2" d="M1019.94,1567.85h-1.47l19.34-47.77h1.74l18.87,47.77h-1.47l-6.29-15.72h-24.36L1019.94,1567.85z
	 M1038.74,1521.42h-0.13l-11.78,29.38h23.29L1038.74,1521.42z"/>
<path class="st2" d="M1093.11,1527.27c-0.83-1.67-1.92-3.03-3.28-4.08s-2.98-1.8-4.85-2.24c-1.87-0.45-3.88-0.67-6.02-0.67
	c-1.65,0-3.37,0.17-5.15,0.5c-1.78,0.33-3.4,0.93-4.85,1.77s-2.64,1.97-3.58,3.38c-0.94,1.41-1.41,3.18-1.41,5.32
	c0,2.14,0.48,3.86,1.44,5.15c0.96,1.29,2.21,2.34,3.75,3.14c1.54,0.8,3.29,1.43,5.25,1.87c1.96,0.45,3.97,0.91,6.02,1.41
	c2.23,0.58,4.34,1.14,6.32,1.67c1.98,0.53,3.71,1.25,5.18,2.14c1.47,0.89,2.64,2.07,3.51,3.55c0.87,1.47,1.3,3.46,1.3,5.95
	c0,2.28-0.49,4.22-1.47,5.82c-0.98,1.61-2.28,2.93-3.88,3.98c-1.61,1.05-3.41,1.81-5.42,2.28c-2.01,0.47-4.04,0.7-6.09,0.7
	c-2.72,0-5.23-0.31-7.53-0.94c-2.3-0.63-4.28-1.62-5.95-2.98s-2.97-3.11-3.88-5.25c-0.91-2.14-1.35-4.73-1.3-7.76h1.34
	c0,2.86,0.42,5.28,1.27,7.26c0.85,1.98,2.04,3.6,3.58,4.85c1.54,1.25,3.37,2.15,5.49,2.71c2.12,0.56,4.45,0.84,6.99,0.84
	c1.87,0,3.73-0.21,5.59-0.64c1.85-0.42,3.51-1.1,4.98-2.04c1.47-0.94,2.67-2.14,3.58-3.61c0.91-1.47,1.37-3.23,1.37-5.29
	c0-2.41-0.52-4.32-1.57-5.72c-1.05-1.4-2.39-2.52-4.02-3.34c-1.63-0.83-3.44-1.45-5.42-1.87c-1.99-0.42-3.89-0.86-5.72-1.3
	c-1.92-0.45-3.84-0.91-5.75-1.41c-1.92-0.49-3.65-1.17-5.19-2.04c-1.54-0.87-2.78-2.03-3.71-3.48c-0.94-1.45-1.4-3.33-1.4-5.65
	c0-2.36,0.49-4.34,1.47-5.92c0.98-1.58,2.25-2.84,3.81-3.78c1.56-0.94,3.31-1.61,5.25-2.01c1.94-0.4,3.87-0.6,5.79-0.6
	c2.36,0,4.54,0.26,6.52,0.77c1.98,0.51,3.72,1.34,5.22,2.48c1.49,1.14,2.69,2.63,3.58,4.48c0.89,1.85,1.41,4.11,1.54,6.79h-1.34
	C1094.39,1531.01,1093.93,1528.94,1093.11,1527.27z"/>
<path class="st2" d="M1135.33,1527.27c-0.83-1.67-1.92-3.03-3.28-4.08s-2.98-1.8-4.85-2.24c-1.87-0.45-3.88-0.67-6.02-0.67
	c-1.65,0-3.37,0.17-5.15,0.5c-1.78,0.33-3.4,0.93-4.85,1.77s-2.64,1.97-3.58,3.38c-0.94,1.41-1.41,3.18-1.41,5.32
	c0,2.14,0.48,3.86,1.44,5.15c0.96,1.29,2.21,2.34,3.75,3.14c1.54,0.8,3.29,1.43,5.25,1.87c1.96,0.45,3.97,0.91,6.02,1.41
	c2.23,0.58,4.34,1.14,6.32,1.67c1.98,0.53,3.71,1.25,5.18,2.14c1.47,0.89,2.64,2.07,3.51,3.55c0.87,1.47,1.3,3.46,1.3,5.95
	c0,2.28-0.49,4.22-1.47,5.82c-0.98,1.61-2.28,2.93-3.88,3.98c-1.61,1.05-3.41,1.81-5.42,2.28c-2.01,0.47-4.04,0.7-6.09,0.7
	c-2.72,0-5.23-0.31-7.53-0.94c-2.3-0.63-4.28-1.62-5.95-2.98s-2.97-3.11-3.88-5.25c-0.91-2.14-1.35-4.73-1.3-7.76h1.34
	c0,2.86,0.42,5.28,1.27,7.26c0.85,1.98,2.04,3.6,3.58,4.85c1.54,1.25,3.37,2.15,5.49,2.71c2.12,0.56,4.45,0.84,6.99,0.84
	c1.87,0,3.73-0.21,5.59-0.64c1.85-0.42,3.51-1.1,4.98-2.04c1.47-0.94,2.67-2.14,3.58-3.61c0.91-1.47,1.37-3.23,1.37-5.29
	c0-2.41-0.52-4.32-1.57-5.72c-1.05-1.4-2.39-2.52-4.02-3.34c-1.63-0.83-3.44-1.45-5.42-1.87c-1.99-0.42-3.89-0.86-5.72-1.3
	c-1.92-0.45-3.84-0.91-5.75-1.41c-1.92-0.49-3.65-1.17-5.19-2.04c-1.54-0.87-2.78-2.03-3.71-3.48c-0.94-1.45-1.4-3.33-1.4-5.65
	c0-2.36,0.49-4.34,1.47-5.92c0.98-1.58,2.25-2.84,3.81-3.78c1.56-0.94,3.31-1.61,5.25-2.01c1.94-0.4,3.87-0.6,5.79-0.6
	c2.36,0,4.54,0.26,6.52,0.77c1.98,0.51,3.72,1.34,5.22,2.48c1.49,1.14,2.69,2.63,3.58,4.48c0.89,1.85,1.41,4.11,1.54,6.79h-1.34
	C1136.61,1531.01,1136.15,1528.94,1135.33,1527.27z"/>
<path class="st2" d="M1145.47,1543.97c0-3.39,0.48-6.6,1.44-9.64c0.96-3.03,2.36-5.69,4.22-7.96c1.85-2.28,4.15-4.08,6.89-5.42
	c2.74-1.34,5.9-2.01,9.47-2.01c3.57,0,6.72,0.67,9.47,2.01c2.74,1.34,5.04,3.14,6.89,5.42s3.26,4.93,4.22,7.96
	c0.96,3.03,1.44,6.25,1.44,9.64c0,3.39-0.48,6.6-1.44,9.64c-0.96,3.04-2.36,5.69-4.22,7.96c-1.85,2.27-4.15,4.07-6.89,5.39
	c-2.74,1.31-5.9,1.97-9.47,1.97c-3.57,0-6.72-0.66-9.47-1.97c-2.74-1.31-5.04-3.11-6.89-5.39c-1.85-2.28-3.26-4.93-4.22-7.96
	C1145.95,1550.57,1145.47,1547.36,1145.47,1543.97z M1146.81,1543.97c0.04,3.44,0.55,6.6,1.51,9.5c0.96,2.9,2.32,5.4,4.08,7.49
	c1.76,2.1,3.91,3.74,6.46,4.92s5.42,1.77,8.63,1.77s6.09-0.59,8.63-1.77s4.69-2.82,6.46-4.92c1.76-2.09,3.12-4.59,4.08-7.49
	c0.96-2.9,1.46-6.07,1.51-9.5c-0.05-3.43-0.55-6.6-1.51-9.5c-0.96-2.9-2.32-5.4-4.08-7.49s-3.91-3.73-6.46-4.92
	c-2.54-1.18-5.42-1.77-8.63-1.77s-6.09,0.59-8.63,1.77c-2.54,1.18-4.7,2.82-6.46,4.92c-1.76,2.1-3.12,4.6-4.08,7.49
	C1147.35,1537.36,1146.85,1540.53,1146.81,1543.97z"/>
<path class="st2" d="M1234.93,1557.11c-1.11,2.43-2.55,4.52-4.31,6.26c-1.76,1.74-3.85,3.1-6.26,4.08
	c-2.41,0.98-5.13,1.47-8.16,1.47c-3.17,0-6.08-0.61-8.73-1.84c-2.66-1.23-4.93-2.92-6.83-5.08c-1.9-2.16-3.38-4.75-4.45-7.76
	c-1.07-3.01-1.61-6.3-1.61-9.87c0-2.9,0.41-5.86,1.24-8.87c0.83-3.01,2.13-5.74,3.91-8.2c1.78-2.45,4.1-4.46,6.96-6.02
	c2.86-1.56,6.31-2.34,10.37-2.34c3.17,0,5.93,0.52,8.3,1.57c2.36,1.05,4.34,2.36,5.92,3.95c1.58,1.58,2.78,3.27,3.58,5.05
	c0.8,1.78,1.23,3.41,1.27,4.89h-1.34c-0.13-1.74-0.65-3.45-1.54-5.12c-0.89-1.67-2.11-3.18-3.65-4.52
	c-1.54-1.34-3.37-2.42-5.49-3.25s-4.47-1.24-7.06-1.24c-3.93,0-7.24,0.79-9.94,2.38c-2.7,1.58-4.88,3.57-6.52,5.95
	c-1.65,2.39-2.84,4.98-3.58,7.8c-0.74,2.81-1.1,5.47-1.1,7.96c0,3.03,0.45,5.95,1.34,8.77c0.89,2.81,2.21,5.29,3.95,7.43
	c1.74,2.14,3.87,3.86,6.39,5.15c2.52,1.29,5.39,1.94,8.6,1.94c2.85,0,5.42-0.47,7.69-1.41c2.28-0.94,4.24-2.23,5.89-3.88
	c1.65-1.65,2.99-3.61,4.02-5.89c1.03-2.28,1.72-4.73,2.07-7.36h1.34C1236.8,1552.02,1236.04,1554.68,1234.93,1557.11z"/>
<path class="st2" d="M1245.03,1520.08v47.77h-1.34v-47.77H1245.03z"/>
<path class="st2" d="M1250.72,1567.85h-1.47l19.34-47.77h1.74l18.87,47.77h-1.47l-6.29-15.72h-24.36L1250.72,1567.85z
	 M1269.52,1521.42h-0.13l-11.78,29.38h23.29L1269.52,1521.42z"/>
<path class="st2" d="M1283.77,1520.08h35.66v1.34h-17.2v46.44h-1.34v-46.44h-17.13V1520.08z"/>
<path class="st2" d="M1324.59,1520.08v47.77h-1.34v-47.77H1324.59z"/>
<path class="st2" d="M1331.68,1543.97c0-3.39,0.48-6.6,1.44-9.64c0.96-3.03,2.36-5.69,4.22-7.96c1.85-2.28,4.15-4.08,6.89-5.42
	c2.74-1.34,5.9-2.01,9.47-2.01c3.57,0,6.72,0.67,9.47,2.01c2.74,1.34,5.04,3.14,6.89,5.42s3.26,4.93,4.22,7.96
	c0.96,3.03,1.44,6.25,1.44,9.64c0,3.39-0.48,6.6-1.44,9.64c-0.96,3.04-2.36,5.69-4.22,7.96c-1.85,2.27-4.15,4.07-6.89,5.39
	c-2.74,1.31-5.9,1.97-9.47,1.97c-3.57,0-6.72-0.66-9.47-1.97c-2.74-1.31-5.04-3.11-6.89-5.39c-1.85-2.28-3.26-4.93-4.22-7.96
	C1332.16,1550.57,1331.68,1547.36,1331.68,1543.97z M1333.02,1543.97c0.04,3.44,0.55,6.6,1.51,9.5c0.96,2.9,2.32,5.4,4.08,7.49
	c1.76,2.1,3.91,3.74,6.46,4.92s5.42,1.77,8.63,1.77c3.21,0,6.09-0.59,8.63-1.77s4.69-2.82,6.46-4.92c1.76-2.09,3.12-4.59,4.08-7.49
	c0.96-2.9,1.46-6.07,1.51-9.5c-0.05-3.43-0.55-6.6-1.51-9.5c-0.96-2.9-2.32-5.4-4.08-7.49s-3.91-3.73-6.46-4.92
	c-2.54-1.18-5.42-1.77-8.63-1.77c-3.21,0-6.09,0.59-8.63,1.77c-2.54,1.18-4.7,2.82-6.46,4.92c-1.76,2.1-3.12,4.6-4.08,7.49
	C1333.57,1537.36,1333.06,1540.53,1333.02,1543.97z"/>
<path class="st2" d="M1384.74,1520.08l32.65,46.1h0.13v-46.1h1.34v47.77h-2.01l-32.65-46.1h-0.13v46.1h-1.34v-47.77H1384.74z"/>
<path class="st2" d="M749.71,1521.63c-0.02,43.48-11.57,83.69-36.41,119.34c-44.12,63.32-105.44,95.17-182.51,94.45
	c-99.74-0.94-186.66-75.08-205.12-173.33c-2.51-13.37-4.16-26.82-3.78-40.46c7.86-0.24,15.66,0.45,23.45,1.32
	c71.13,9.34,125.14,44.78,162.05,106.3c0.37,0.62,0.79,1.2,1.18,1.8c14.39,26.41,23.29,54.56,27.15,84.67
	c2.63-15.1,5.92-29.9,9.82-44.56c1.24-3.45,2.48-6.89,3.73-10.34c2.18-5.42,4.37-10.84,6.55-16.25
	c7.24-13.11,14.32-26.3,23.57-38.18c36.21-46.54,83.4-74.24,141.79-82.78c1.61-0.23,3.19-0.61,4.79-0.92
	C733.88,1522.33,741.79,1521.98,749.71,1521.63z"/>
<path class="st0" d="M555.82,1644.56c-2.18,5.42-4.37,10.84-6.55,16.25c-10.08-17.66-17.97-36.09-21.46-56.33
	c-2-11.61-5.82-22.75-13.05-32.36c-1.15-1.53-1.89-3.99-5.04-3.64c5.03,11.44,7,23.31,8.62,35.22c3.37,24.8,12,47.44,27.21,67.45
	c-3.91,14.66-7.19,29.47-9.82,44.56c-3.86-30.11-12.77-58.26-27.15-84.67c6.05-20.41,3.85-40.32-3.79-59.85
	c-3.04-7.76-7.44-14.8-12.34-21.67c10.89-1.41,20.23,5.55,31.95,23.9c1.23-9.97,0.31-19.13-2.22-28.08
	c-6.7-23.7-20.54-41.99-42.22-53.89c-16.17-8.88-33.17-16.16-48.14-27.29c-10.52-7.82-19.84-16.77-28.82-26.18
	c-17.08-17.92-29.08-38.93-36.78-62.33c-2.91-8.85-6.15-18.15-6.18-27.25c-0.04-9.87-2.56-19.52-0.8-29.71
	c1.68-9.65,3.12-19.4,5.04-29.24c8.92,23.93,21.22,45.7,38.62,64.39c5.01,6.23,10.18,12.3,16.81,16.91c0.54,2.14,2.5,3.03,3.95,4.31
	c11,9.73,22.99,18.1,35.39,25.97c35.67,22.63,60.05,53.78,70.84,95.01c2.52,9.61,3.61,19.48,5.1,29.32
	c3.17-8.47,4.56-17.2,4.99-26.03c1.91-38.9-4.58-76.35-19.9-112.19c-7.33-17.15-12.18-35.06-16.74-53.07
	c-0.88-7.87-1.76-15.73-2.63-23.6c-1.73-25.29,1.48-49.82,11.17-73.37c4.12-10.02,9.27-19.48,16.15-28.15
	c-0.72,4.1-1.57,8.19-2.15,12.32c-4.14,29.41,1.95,57.6,10.32,85.5c6.69,22.31,15.57,43.9,21.3,66.55
	c12.37,48.94,8.3,96.67-9.38,143.59c2,0.65,2.25-0.96,2.81-1.93c19.39-33.74,45.13-61.87,75.41-86.13
	c16.09-12.89,29.69-28.09,39.57-46.37c4.48-7,8.08-14.41,10.48-22.39c4.77-11.12,6.47-22.86,6.97-34.84
	c0.08-1.98,0.17-3.95,0.26-5.93l-0.09,0.09c5.02,9.92,7.24,20.71,8.63,31.53c8.9,69.38-16.74,122.64-75.54,160.16
	c-18.53,11.82-36.72,24.16-50.9,41.2c-22.31,26.82-25.58,56.51-11.68,88.29C554.6,1641.94,555.22,1643.24,555.82,1644.56z
	 M509.34,1491.38c0.29,0.56,0.59,1.12,0.88,1.67c0.71-0.78,0.42-1.59,0.07-2.4c-14.36-26.06-34.94-46.32-58.82-63.63
	c-31.98-23.18-56.03-53.08-73.73-88.26c-0.48-0.95-0.22-3.16-2.81-2.55c1.31,4.32,2.5,8.58,3.88,12.77
	c12.08,36.48,34.88,65.14,65.35,87.8C466.97,1453.74,490.12,1470.19,509.34,1491.38z M549.97,1544.6
	c13.71-16.47,28.89-31.44,45.76-44.66c10.4-8.15,21.3-15.69,31.38-24.21c24.14-20.4,42.68-44.69,50.54-75.99
	c1.95-7.75,1.99-8.95,0.76-13.62c-6.25,21.33-18.64,38.48-33.52,54.07c-11.28,11.82-23.8,22.25-36.5,32.49
	c-24.51,19.74-45.61,42.35-59.37,71.08c-0.33,0.49-0.66,0.97-0.99,1.46C548.89,1545.69,549.54,1545.49,549.97,1544.6z
	 M550.04,1449.64c0.57,0.01,1.14,0.03,1.72,0.04c0.43-4.05,1.01-8.09,1.27-12.16c1.85-29.27-3.85-57.18-15.56-83.94
	c-7.61-17.39-14.53-35.02-18.56-53.63c-1.15-5.29-2.05-10.65-2.75-16.01c-0.68-5.15-0.95-10.35-1.4-15.53
	c-1.07,2.09-1.63,4.16-1.9,6.27c-3.52,26.87,1.34,52.57,11.35,77.43c9.11,22.62,18.39,45.16,22.92,69.27
	C548.88,1430.71,550.01,1440.11,550.04,1449.64z"/>
<path class="st3" d="M419.71,1370.75c-6.63-4.61-11.8-10.69-16.81-16.91c28.83-22.96,61.4-37.49,97.8-43.37
	c0.88,7.87,1.76,15.73,2.63,23.6C472.5,1339.56,444.69,1351.93,419.71,1370.75z"/>
<path class="st3" d="M676.37,1360.11c-2.4,7.97-6,15.39-10.48,22.39c-20.35-18.37-43.25-32.47-69.34-41.17
	c-2.22-0.74-3.19-1.99-3.75-4.06c-1.81-6.61-3.64-13.21-5.59-19.78c-1.1-3.72,0.24-3.87,3.4-3.01
	C622.68,1323.19,651.37,1338.16,676.37,1360.11z"/>
<path class="st3" d="M749.71,1521.63c-7.91,0.35-15.83,0.7-23.74,1.04c0.16-16.51-1.95-32.75-6.06-48.72
	c-0.51-1.98-0.92-3.72,0.61-5.55c5.66-6.78,10.41-14.21,15.43-22.83C745.26,1470.72,750.15,1495.67,749.71,1521.63z"/>
<path class="st3" d="M724.66,1419.97c-2.93,10.75-6.43,21.27-11.91,31.04c-5.02-10.75-9.91-21.57-16.46-31.51
	c-0.87-1.32-1.14-2.61-0.77-4.09c2.43-9.72,4.02-19.58,4.73-30.7C710.36,1396.04,717.38,1408.09,724.66,1419.97z"/>
<path class="st3" d="M345.34,1522.94c-7.79-0.87-15.6-1.57-23.45-1.32c-0.42-13.22,1.28-26.24,3.44-39.24
	c0.51-3.09,1.56-3.76,4.61-2.63c5.22,1.94,10.61,3.46,15.98,4.99c2.39,0.68,3.15,1.92,2.66,4.32
	C346.29,1500.24,346,1511.61,345.34,1522.94z"/>
<path class="st3" d="M328.36,1468.27c3.05-10.52,6.15-21.03,11.03-31.55c5.3,6.57,10.69,12.56,16.69,17.94
	c1.76,1.58,0.6,2.97,0.13,4.37c-2.27,6.83-4.45,13.68-5.77,20.77C343.08,1475.96,335.72,1472.12,328.36,1468.27z"/>
<path class="st3" d="M363.86,1439.57c-6.04-6.45-11.08-13.64-15.58-21.22c4.57-8.55,9.83-16.65,15.78-24.57
	c4.2,7.28,8.08,14.13,12.12,20.89c0.92,1.53,0.61,2.55-0.19,3.91C371.9,1425.54,367.9,1432.57,363.86,1439.57z"/>
<path class="st3" d="M568.29,1309.63c3.32,8.75,6.64,17.5,9.95,26.24c-8.18-1.24-16.26-3.23-24.57-3.57
	c-2.34-0.09-3.09-1.63-3.58-3.38c-1.93-6.91-3.77-13.85-5.86-21.58C552.64,1308.14,560.47,1308.89,568.29,1309.63z"/>
<path class="st4" d="M568.29,1309.63c-2.68-11.6-6.43-22.94-8.01-34.84c-0.67-5.02,0.26-8.26,4.51-10.79
	c2.14-1.27,4.04-2.93,6.54-4.77c1.03,9.26,1.65,18.01,3.02,26.64c3.19,20.08,9.24,39.37,16.52,58.34
	c7.23,18.85,11.27,38.2,6.8,58.45c-1.55,7.02-3.8,13.81-8.37,19.78c9.02-30.57,1.81-58.93-11.06-86.56
	C574.93,1327.13,571.61,1318.38,568.29,1309.63z"/>
<path class="st4" d="M363.86,1439.57c14.37,18.15,32.3,31.99,52.37,43.26c8.17,4.59,16.81,8.19,26.05,11.92
	c-2.88,1.56-4.99,0.27-7.01-0.27c-44.99-12.2-79.57-37.86-101.95-79.18c-0.6-1.11-1.17-2.25-1.68-3.4
	c-4.28-9.55-4.21-10.18,2.36-20.06c4.67,9.1,8.22,18.52,14.28,26.53C352.78,1425.93,357.83,1433.11,363.86,1439.57z"/>
<path class="st4" d="M724.66,1419.97c2.39-9.69,4.1-19.47,4.31-29.77c3.17,8.68,6.52,17.3,9.38,26.08c0.58,1.79-0.41,4.23-1.03,6.26
	c-11.63,38.14-35.26,66.72-69.41,86.86c-1.37,0.81-2.73,1.92-4.6,0.99c21.08-15.99,37.48-35.84,49.44-59.39
	C718.23,1441.24,721.74,1430.72,724.66,1419.97z"/>
<path class="st4" d="M328.36,1468.27c7.36,3.85,14.72,7.69,22.08,11.54c8.35,4.2,16.71,8.41,25.06,12.61
	c-0.17,0.41-0.35,0.82-0.52,1.24c-28.91-11.39-57.81-22.78-86.97-34.27c6.35-5.13,12.07-5.93,18.99-1.55
	C313.65,1462.04,321.2,1464.85,328.36,1468.27z"/>
<path class="st5" d="M683.6,1319.35c-0.23-0.17-0.45-0.33-0.68-0.5c0.14-0.11,0.28-0.22,0.42-0.33c0.06,0.31,0.12,0.61,0.17,0.92
	C683.51,1319.43,683.6,1319.35,683.6,1319.35z"/>
<path class="st1" d="M485.04,1629.72l-9.25,5.34v10.69l9.25,5.34l9.25-5.34v-10.69L485.04,1629.72z"/>
<path class="st1" d="M479.58,1672.91l-6.49,3.75v7.5l6.49,3.75l6.49-3.75v-7.5L479.58,1672.91z"/>
<path class="st1" d="M446.11,1653.63l-4.49,2.59v5.18l4.49,2.59l4.49-2.59v-5.18L446.11,1653.63z"/>
<path class="st1" d="M572,1661.73l-9.83,5.68v11.35l9.83,5.68l9.83-5.68v-11.35L572,1661.73z"/>
<path class="st1" d="M594.33,1625.87l-6.33,3.65v7.3l6.33,3.65l6.33-3.65v-7.3L594.33,1625.87z"/>
<path class="st1" d="M613.26,1657.49l-8.29,4.79v9.57l8.29,4.79l8.29-4.79v-9.57L613.26,1657.49z"/>
</svg>
