<?xml version="1.0" encoding="UTF-8" standalone="no"?>
<svg
   id="Layer_2"
   viewBox="0 0 799.99999 799.99998"
   version="1.1"
   sodipodi:docname="icon.svg"
   width="800"
   height="800"
   inkscape:version="1.2.2 (b0a8486541, 2022-12-01)"
   xmlns:inkscape="http://www.inkscape.org/namespaces/inkscape"
   xmlns:sodipodi="http://sodipodi.sourceforge.net/DTD/sodipodi-0.dtd"
   xmlns="http://www.w3.org/2000/svg"
   xmlns:svg="http://www.w3.org/2000/svg">
  <sodipodi:namedview
     id="namedview18"
     pagecolor="#ffffff"
     bordercolor="#666666"
     borderopacity="1.0"
     inkscape:showpageshadow="2"
     inkscape:pageopacity="0.0"
     inkscape:pagecheckerboard="0"
     inkscape:deskcolor="#d1d1d1"
     showgrid="false"
     inkscape:zoom="0.34891112"
     inkscape:cx="253.64626"
     inkscape:cy="338.19501"
     inkscape:window-width="1669"
     inkscape:window-height="674"
     inkscape:window-x="1743"
     inkscape:window-y="738"
     inkscape:window-maximized="1"
     inkscape:current-layer="Layer_2" />
  <defs
     id="defs4">
    <style
       id="style2">.cls-1{fill:#1c75bc;font-family:Oscine-Bold, Oscine;font-size:480px;font-weight:700;}.cls-2{fill:#9cc000;}.cls-3{fill:#604b47;}.cls-4{letter-spacing:-.05em;}.cls-5{letter-spacing:-.09em;}</style>
  </defs>
  <g
     id="Layer_1-2"
     transform="translate(0.749322,61.81)">
    <path
       class="cls-3"
       d="m 630.3,565.33 c -22.67,23.61 -14.89,50.18 0.74,63.8 15.78,13.75 44.77,14.96 63.95,-7.53 C 835.18,481.41 836.56,237.6 677.14,95.74 529.03,-36.05 313.59,-31.76 173.4,108.43 c 126.17,-126.17 330.73,-126.17 456.9,0 126.17,126.17 126.17,330.73 0,456.9 z"
       id="path6" />
    <path
       class="cls-2"
       d="M 168.21,111.05 C 190.88,87.44 183.1,60.87 167.47,47.25 151.69,33.5 122.7,32.29 103.52,54.78 c -140.2,140.18 -141.58,384 17.84,525.86 148.11,131.79 363.55,127.5 503.74,-12.69 -126.17,126.17 -330.73,126.17 -456.9,0 -126.17,-126.17 -126.17,-330.73 0,-456.9 z"
       id="path8" />
    <text
       class="cls-1"
       transform="translate(152.73,504.61)"
       id="text14"><tspan
         class="cls-5"
         x="0"
         y="0"
         id="tspan10">R</tspan><tspan
         class="cls-4"
         x="251.85001"
         y="0"
         id="tspan12">e</tspan></text>
  </g>
</svg>
