<?xml version="1.0" encoding="utf-8"?>
<!-- Generator: Adobe Illustrator 25.3.1, SVG Export Plug-In . SVG Version: 6.00 Build 0)  -->
<svg version="1.1" id="Layer_1" xmlns="http://www.w3.org/2000/svg" xmlns:xlink="http://www.w3.org/1999/xlink" x="0px" y="0px"
	 viewBox="0 0 200 200" style="enable-background:new 0 0 200 200;" xml:space="preserve">
<style type="text/css">
	.st0{fill:#EB6E23;}
	.st1{fill:none;}
	.st2{fill:#FFFFFF;}
	.st3{fill:#F9FBF7;}
</style>
<rect x="0" class="st0" width="200" height="200"/>
<circle class="st0" cx="100" cy="100" r="99.9"/>
<rect x="19.4" y="3.2" class="st1" width="161.9" height="164.6"/>
<path class="st2" d="M106.2,137.2c-0.6,1.6-1.3,3.3-2,4.9c-3-5.3-5.4-10.9-6.4-17.1c-0.6-3.5-1.7-6.9-3.9-9.8
	c-0.3-0.5-0.6-1.2-1.5-1.1c1.5,3.5,2.1,7.1,2.6,10.7c1,7.5,3.6,14.4,8.1,20.4c-1.2,4.4-2.1,8.9-2.9,13.5c-1.2-9.1-3.8-17.6-8.1-25.6
	c1.8-6.2,1.1-12.2-1.1-18.1c-0.9-2.3-2.2-4.5-3.7-6.6c3.3-0.4,6,1.7,9.5,7.2c0.4-3,0.1-5.8-0.7-8.5c-2-7.2-6.1-12.7-12.6-16.3
	c-4.8-2.7-9.9-4.9-14.3-8.3c-3.1-2.4-5.9-5.1-8.6-7.9c-5.1-5.4-8.7-11.8-11-18.9c-0.9-2.7-1.8-5.5-1.8-8.3c0-3-0.8-5.9-0.2-9
	c0.5-2.9,0.9-5.9,1.5-8.9c2.7,7.2,6.3,13.8,11.5,19.5c1.5,1.9,3,3.7,5,5.1c0.2,0.6,0.7,0.9,1.2,1.3c3.3,2.9,6.8,5.5,10.5,7.9
	c10.6,6.8,17.9,16.3,21.1,28.8c0.8,2.9,1.1,5.9,1.5,8.9c0.9-2.6,1.3-5.2,1.5-7.9c0.6-11.8-1.4-23.1-5.9-34c-2.2-5.2-3.6-10.6-5-16.1
	c-0.3-2.4-0.5-4.8-0.8-7.1c-0.5-7.7,0.4-15.1,3.3-22.2c1.2-3,2.8-5.9,4.8-8.5c-0.2,1.2-0.5,2.5-0.6,3.7c-1.2,8.9,0.6,17.4,3.1,25.9
	c2,6.8,4.6,13.3,6.4,20.2c3.7,14.8,2.5,29.3-2.8,43.5c0.6,0.2,0.7-0.3,0.8-0.6c5.8-10.2,13.4-18.7,22.5-26.1
	c4.8-3.9,8.8-8.5,11.8-14c1.3-2.1,2.4-4.4,3.1-6.8c1.4-3.4,1.9-6.9,2.1-10.6c0-0.6,0.1-1.2,0.1-1.8l0,0c1.5,3,2.2,6.3,2.6,9.5
	c2.6,21-5,37.1-22.5,48.5c-5.5,3.6-10.9,7.3-15.2,12.5c-6.7,8.1-7.6,17.1-3.5,26.7C105.8,136.4,106,136.8,106.2,137.2z M92.3,90.8
	c0.1,0.2,0.2,0.3,0.3,0.5c0.2-0.2,0.1-0.5,0-0.7c-4.3-7.9-10.4-14-17.5-19.3c-9.5-7-16.7-16.1-22-26.7c-0.1-0.3-0.1-1-0.8-0.8
	c0.4,1.3,0.7,2.6,1.2,3.9c3.6,11,10.4,19.7,19.5,26.6C79.7,79.4,86.6,84.4,92.3,90.8z M104.4,107c4.1-5,8.6-9.5,13.6-13.5
	c3.1-2.5,6.4-4.8,9.4-7.3c7.2-6.2,12.7-13.5,15.1-23c0.6-2.3,0.6-2.7,0.2-4.1c-1.9,6.5-5.6,11.7-10,16.4c-3.4,3.6-7.1,6.7-10.9,9.8
	c-7.3,6-13.6,12.8-17.7,21.5c-0.1,0.2-0.2,0.3-0.3,0.4C104.1,107.3,104.3,107.2,104.4,107z M104.4,78.2c0.2,0,0.3,0,0.5,0
	c0.1-1.2,0.3-2.5,0.4-3.7c0.6-8.9-1.1-17.3-4.6-25.4c-2.3-5.3-4.3-10.6-5.5-16.2c-0.3-1.6-0.6-3.2-0.8-4.8c-0.2-1.6-0.3-3.1-0.4-4.7
	c-0.3,0.6-0.5,1.3-0.6,1.9c-1.1,8.1,0.4,15.9,3.4,23.4c2.7,6.8,5.5,13.7,6.8,21C104.1,72.5,104.4,75.3,104.4,78.2z"/>
<g>
	<path class="st2" d="M65.6,54.3c-2-1.4-3.5-3.2-5-5.1c8.6-7,18.3-11.4,29.1-13.1c0.3,2.4,0.5,4.8,0.8,7.1
		C81.3,44.9,73.1,48.6,65.6,54.3z"/>
	<path class="st2" d="M142.1,51.1c-0.7,2.4-1.8,4.7-3.1,6.8c-6.1-5.6-12.9-9.8-20.7-12.5c-0.7-0.2-1-0.6-1.1-1.2c-0.5-2-1.1-4-1.7-6
		c-0.3-1.1,0.1-1.2,1-0.9C126.1,39.9,134.6,44.4,142.1,51.1z"/>
	<path class="st2" d="M163.9,100c-2.4,0.1-4.7,0.2-7.1,0.3c0.1-5-0.6-9.9-1.8-14.8c-0.2-0.6-0.3-1.1,0.2-1.7
		c1.7-2.1,3.1-4.3,4.6-6.9C162.6,84.6,164.1,92.1,163.9,100z"/>
	<path class="st2" d="M156.5,69.2c-0.9,3.3-1.9,6.4-3.6,9.4c-1.5-3.3-2.9-6.5-4.9-9.5c-0.3-0.4-0.3-0.8-0.2-1.2
		c0.7-2.9,1.2-5.9,1.4-9.3C152.2,61.9,154.3,65.6,156.5,69.2z"/>
	<path class="st2" d="M43.4,100.4c-2.3-0.3-4.6-0.5-7-0.4c-0.1-4,0.4-7.9,1-11.9c0.2-0.9,0.5-1.1,1.4-0.8c1.6,0.6,3.2,1.1,4.8,1.5
		c0.7,0.2,0.9,0.6,0.8,1.3C43.7,93.5,43.6,97,43.4,100.4z"/>
	<path class="st2" d="M38.4,83.8c0.9-3.2,1.8-6.4,3.3-9.6c1.6,2,3.2,3.8,5,5.4c0.5,0.5,0.2,0.9,0,1.3c-0.7,2.1-1.3,4.1-1.7,6.3
		C42.8,86.2,40.6,85,38.4,83.8z"/>
	<path class="st2" d="M49,75.1c-1.8-2-3.3-4.1-4.6-6.4c1.4-2.6,2.9-5,4.7-7.4c1.3,2.2,2.4,4.3,3.6,6.3c0.3,0.5,0.2,0.8-0.1,1.2
		C51.4,70.9,50.2,73,49,75.1z"/>
	<path class="st2" d="M109.9,35.8c1,2.6,2,5.3,3,7.9c-2.4-0.4-4.8-1-7.3-1.1c-0.7,0-0.9-0.5-1.1-1c-0.6-2.1-1.1-4.2-1.7-6.5
		C105.2,35.3,107.5,35.6,109.9,35.8z"/>
</g>
<g>
	<path class="st2" d="M109.9,35.8c-0.8-3.5-1.9-7-2.4-10.6c-0.2-1.5,0.1-2.5,1.3-3.3c0.6-0.4,1.2-0.9,1.9-1.4
		c0.3,2.8,0.5,5.5,0.9,8.1c1,6.1,2.8,11.9,4.9,17.7c2.2,5.7,3.4,11.6,2,17.7c-0.5,2.1-1.1,4.2-2.5,6c2.7-9.3,0.5-17.8-3.3-26.2
		C111.9,41.1,110.9,38.4,109.9,35.8z"/>
	<path class="st2" d="M49,75.1c4.3,5.5,9.6,9.7,15.6,13.1c2.4,1.4,5,2.5,7.8,3.6c-0.9,0.5-1.5,0.1-2.1-0.1
		c-13.4-3.7-23.7-11.5-30.4-24c-0.2-0.3-0.4-0.7-0.5-1c-1.3-2.9-1.3-3.1,0.7-6.1c1.4,2.8,2.5,5.6,4.3,8C45.7,71,47.2,73.2,49,75.1z"
		/>
	<path class="st2" d="M156.5,69.2c0.7-2.9,1.2-5.9,1.3-9c0.9,2.6,1.9,5.2,2.8,7.9c0.2,0.5-0.1,1.3-0.3,1.9
		c-3.5,11.6-10.5,20.2-20.7,26.3c-0.4,0.2-0.8,0.6-1.4,0.3c6.3-4.8,11.2-10.9,14.7-18C154.5,75.6,155.6,72.5,156.5,69.2z"/>
	<path class="st2" d="M38.4,83.8c2.2,1.2,4.4,2.3,6.6,3.5c2.5,1.3,5,2.5,7.5,3.8c-0.1,0.1-0.1,0.2-0.2,0.4
		c-8.6-3.4-17.2-6.9-25.9-10.4c1.9-1.6,3.6-1.8,5.7-0.5C34,81.9,36.3,82.8,38.4,83.8z"/>
</g>
<path class="st3" d="M92.6,90.6c0.1,0.2,0.2,0.5,0,0.7c-0.1-0.2-0.2-0.3-0.3-0.5C92.4,90.8,92.5,90.7,92.6,90.6z"/>
<path class="st3" d="M104.4,107c-0.1,0.3-0.3,0.3-0.6,0.2c0.1-0.2,0.2-0.3,0.3-0.4C104.2,106.8,104.3,106.9,104.4,107z"/>
<g>
	<path class="st2" d="M163.9,100c0,13.2-3.4,25.3-10.9,36.1c-13.2,19.2-31.4,28.8-54.4,28.6C69,164.5,43.1,142,37.6,112.2
		c-0.8-4.1-1.2-8.1-1.1-12.3c2.3-0.1,4.7,0.1,7,0.4c21.2,2.8,37.3,13.6,48.3,32.2c0.1,0.2,0.2,0.4,0.4,0.5c4.3,8,6.9,16.5,8.1,25.6
		c0.8-4.6,1.8-9.1,2.9-13.5c0.4-1,0.7-2.1,1.1-3.1c0.6-1.6,1.3-3.3,2-4.9c2.2-4,4.3-8,7-11.6c10.8-14.1,24.8-22.5,42.3-25.1
		c0.5-0.1,1-0.2,1.4-0.3C159.2,100.2,161.6,100.1,163.9,100z"/>
	<path class="st0" d="M84.9,132.2l-2.8,1.6v3.2l2.8,1.6l2.8-1.6v-3.2L84.9,132.2z"/>
	<path class="st0" d="M83.2,145.2l-1.9,1.1v2.3l1.9,1.1l1.9-1.1v-2.3L83.2,145.2z"/>
	<path class="st0" d="M73.2,139.4l-1.3,0.8v1.6l1.3,0.8l1.3-0.8v-1.6L73.2,139.4z"/>
	<path class="st0" d="M74.3,148l-1.3,0.8v1.6l1.3,0.8l1.3-0.8v-1.6L74.3,148z"/>
	<path class="st0" d="M118.6,150l-1.3,0.8v1.6l1.3,0.8l1.3-0.8v-1.6L118.6,150z"/>
	<path class="st0" d="M110.8,141.9l-2.9,1.7v3.4l2.9,1.7l2.9-1.7v-3.4L110.8,141.9z"/>
	<path class="st0" d="M117.4,131l-1.9,1.1v2.2l1.9,1.1l1.9-1.1v-2.2L117.4,131z"/>
	<path class="st0" d="M123.1,140.6l-2.5,1.5v2.9l2.5,1.5l2.5-1.5V142L123.1,140.6z"/>
</g>
</svg>
