<svg id="Layer_1" data-name="Layer 1" xmlns="http://www.w3.org/2000/svg" viewBox="0 0 92.2 107.52"><defs><style>.cls-1{fill:#225034;}</style></defs><path class="cls-1" d="M14,56.71c-3.66-2.11-7-4-10.32-5.94A6.44,6.44,0,0,1,0,44.56c.1-3.25.08-6.51,0-9.77a5.61,5.61,0,0,1,2.45-5.24c4.68-2.91,9.49-5.62,14.29-8.44.85,2.94.7,3.41-1.6,4.75C12,27.69,8.85,29.49,5.7,31.33c-1.92,1.12-1.94,2-.1,3Q24.91,45.47,44.19,56.61a5.12,5.12,0,0,0,5.8,0Q68.05,46.05,86.23,35.7c2.34-1.34,2-2.5,0-3.48-2.21-1-4.25-2.43-6.42-3.7,2.37-2.2,2.64-2.24,5-.86a33.07,33.07,0,0,0,2.87,1.68c3.33,1.49,4.74,4,4.49,7.62-.19,2.92-.11,5.86,0,8.79a6.4,6.4,0,0,1-3.65,6.17c-3.34,1.89-6.65,3.84-10.24,5.91,3.18,1.83,6.08,3.67,9.13,5.22,3.39,1.72,5.13,4.13,4.79,8.08-.25,2.91-.06,5.86,0,8.79a5.14,5.14,0,0,1-2.78,4.81C77.05,91.83,64.76,99,52.44,106a10.39,10.39,0,0,1-11-.12Q22.87,95.15,4.21,84.45C1.33,82.8-.2,80.62,0,77.18c.19-2.86.09-5.73,0-8.6a6.29,6.29,0,0,1,3.57-6C7,60.69,10.29,58.79,14,56.71ZM47,91.11a14.71,14.71,0,0,0,2.25-.82Q67.72,79.67,86.17,69c1.71-1,1.72-1.79,0-2.78-3.26-1.91-6.56-3.75-9.8-5.69a2.55,2.55,0,0,0-3,.08c-6.63,3.9-13.34,7.65-20,11.56-4.37,2.59-8.53,2.51-12.89-.09C33.32,67.76,26,63.65,18.71,59.43a2.37,2.37,0,0,0-2.83-.08c-3.16,1.95-6.43,3.72-9.64,5.59-2.07,1.21-2.08,1.91,0,3.09q19.14,11,38.29,22A20.43,20.43,0,0,0,47,91.11Z"/><path class="cls-1" d="M92.13,8.13c0,1.95,0,3.91,0,5.86a3.67,3.67,0,0,1-1.94,3.56C77.52,24.87,64.86,32.22,52.14,39.47a9.83,9.83,0,0,1-10.27-.11C35.74,35.79,29.69,32.1,23.6,28.47a4.67,4.67,0,0,1-2.47-4.35c0-3.45,0-6.9,0-10.35,0-2.49,1.36-3.24,3.55-2,6.59,3.81,13.2,7.6,19.74,11.51a4.77,4.77,0,0,0,5.43,0Q69.12,12.11,88.42,1A14,14,0,0,1,89.78.27c1.42-.64,2.3-.14,2.34,1.41C92.17,3.83,92.13,6,92.13,8.13Z"/></svg>