<?xml version="1.0" encoding="UTF-8" standalone="no"?>
<!-- Created with Inkscape (http://www.inkscape.org/) -->

<svg
   width="40.30875mm"
   height="45.929176mm"
   viewBox="0 0 40.30875 45.929176"
   version="1.1"
   id="svg1086"
   inkscape:version="1.1.2 (0a00cf5339, 2022-02-04, custom)"
   sodipodi:docname="icon.svg"
   xmlns:inkscape="http://www.inkscape.org/namespaces/inkscape"
   xmlns:sodipodi="http://sodipodi.sourceforge.net/DTD/sodipodi-0.dtd"
   xmlns="http://www.w3.org/2000/svg"
   xmlns:svg="http://www.w3.org/2000/svg">
  <sodipodi:namedview
     id="namedview1088"
     pagecolor="#ffffff"
     bordercolor="#666666"
     borderopacity="1.0"
     inkscape:pageshadow="2"
     inkscape:pageopacity="0.0"
     inkscape:pagecheckerboard="0"
     inkscape:document-units="mm"
     showgrid="false"
     fit-margin-top="0"
     fit-margin-left="0"
     fit-margin-right="0"
     fit-margin-bottom="0"
     inkscape:zoom="0.55856481"
     inkscape:cx="-72.507252"
     inkscape:cy="127.11148"
     inkscape:window-width="1691"
     inkscape:window-height="1352"
     inkscape:window-x="24"
     inkscape:window-y="60"
     inkscape:window-maximized="1"
     inkscape:current-layer="layer1" />
  <defs
     id="defs1083">
    <linearGradient
       x1="0"
       y1="0"
       x2="1"
       y2="0"
       gradientUnits="userSpaceOnUse"
       gradientTransform="matrix(0,-45.928843,45.928843,0,144.47353,160.33288)"
       spreadMethod="pad"
       id="linearGradient1035">
      <stop
         style="stop-opacity:1;stop-color:#754f24"
         offset="0"
         id="stop1019" />
      <stop
         style="stop-opacity:1;stop-color:#754f24"
         offset="0.07701135"
         id="stop1021" />
      <stop
         style="stop-opacity:1;stop-color:#88812b"
         offset="0.197152"
         id="stop1023" />
      <stop
         style="stop-opacity:1;stop-color:#83ad29"
         offset="0.40859542"
         id="stop1025" />
      <stop
         style="stop-opacity:1;stop-color:#83ad29"
         offset="0.601472"
         id="stop1027" />
      <stop
         style="stop-opacity:1;stop-color:#82b2da"
         offset="0.77929036"
         id="stop1029" />
      <stop
         style="stop-opacity:1;stop-color:#82b2da"
         offset="0.884301"
         id="stop1031" />
      <stop
         style="stop-opacity:1;stop-color:#82b2da"
         offset="1"
         id="stop1033" />
    </linearGradient>
  </defs>
  <g
     inkscape:label="Layer 1"
     inkscape:groupmode="layer"
     id="layer1"
     transform="translate(-124.3193,-114.4037)">
    <path
       d="m 154.94422,139.22792 c 0,0.10431 -0.0416,0.19184 -0.12523,0.26211 -0.0833,0.0707 -0.18521,0.10583 -0.30515,0.10583 -0.0265,0 -0.0667,-10e-4 -0.12136,-0.004 -0.0547,-0.002 -0.11113,-0.009 -0.16828,-0.0193 -0.0783,-0.0103 -0.16333,-0.0197 -0.25435,-0.0275 -0.0917,-0.008 -0.1711,-0.0117 -0.23883,-0.0117 -0.0526,0 -0.10583,0.001 -0.16051,0.004 -0.0547,0.003 -0.10302,0.007 -0.145,0.0117 -0.11465,0.0158 -0.20884,0.0276 -0.28187,0.0356 -0.073,0.008 -0.11465,0.0117 -0.12523,0.0117 -0.28152,0 -0.42227,-0.12266 -0.42227,-0.36794 0,-0.21911 0.12523,-0.32865 0.3757,-0.32865 0.0208,0.005 0.0416,0.008 0.0625,0.008 0.0208,0 0.0406,0.001 0.0585,0.004 0.0183,0.002 0.0381,0.004 0.0589,0.004 0.0261,0.005 0.0469,0.009 0.0624,0.0117 0.0159,0.003 0.0286,0.004 0.0392,0.004 0.0155,0.005 0.0261,0.008 0.0314,0.008 0.0363,0 0.0572,-0.0992 0.0628,-0.29722 0,-0.0627 0.002,-0.1265 0.008,-0.19198 0.005,-0.0651 0.008,-0.12911 0.008,-0.1918 l 0.008,-0.44623 v -0.5636 c 0,-0.23456 -0.013,-0.40957 -0.0392,-0.52437 -0.0155,-0.0781 -0.0445,-0.14979 -0.0861,-0.21523 -0.0416,-0.0652 -0.0914,-0.11853 -0.14852,-0.16055 v 0.008 c -0.15169,-0.10432 -0.31079,-0.15642 -0.47766,-0.15642 -0.3496,0 -0.60042,0.12266 -0.75141,0.36766 -0.10443,0.17777 -0.15664,0.49086 -0.15664,0.93941 v 0.98641 c 0,0.17734 0.006,0.29764 0.0198,0.35994 0.0127,0.0627 0.0349,0.0941 0.0663,0.0941 0.005,0 0.0208,-0.002 0.0469,-0.008 0.0261,-0.005 0.055,-0.0103 0.0861,-0.0154 0.0314,-0.0108 0.0614,-0.0183 0.09,-0.0234 0.0286,-0.005 0.0639,-0.008 0.10583,-0.008 0.23989,0 0.36019,0.11754 0.36019,0.35211 0,0.23495 -0.14112,0.35249 -0.42298,0.35249 -0.0261,0 -0.0769,-0.005 -0.1524,-0.0156 -0.0759,-0.0106 -0.16052,-0.0209 -0.25436,-0.0317 -0.10442,-0.0154 -0.21943,-0.0234 -0.34466,-0.0234 -0.0469,0 -0.10301,0.003 -0.16828,0.008 -0.0653,0.005 -0.14217,0.0131 -0.23071,0.0234 l -0.17251,0.0158 c -0.0466,0.0103 -0.091,0.0168 -0.133,0.0193 -0.0416,0.003 -0.0677,0.004 -0.078,0.004 -0.29245,0 -0.4385,-0.1203 -0.4385,-0.36008 0,-0.22461 0.11994,-0.33652 0.36018,-0.33652 0.0258,0 0.048,0.001 0.0663,0.004 0.0183,0.003 0.0377,0.007 0.0589,0.0117 0.0674,0.0156 0.13793,0.0234 0.21131,0.0234 0.0624,0 0.0967,-0.10679 0.1016,-0.32064 0,-0.13575 0.003,-0.27288 0.008,-0.4111 0.005,-0.1385 0.008,-0.2752 0.008,-0.41091 v -0.90029 l -0.0155,-0.25838 c -0.0106,-0.11465 -0.0208,-0.19706 -0.0314,-0.24666 -0.0102,-0.0492 -0.0286,-0.0795 -0.0547,-0.0899 -0.0106,0.005 -0.0342,0.009 -0.0706,0.0117 -0.0367,0.003 -0.0653,0.006 -0.0861,0.0117 -0.0314,0.005 -0.06,0.009 -0.0861,0.0117 -0.0261,0.003 -0.0522,0.004 -0.0783,0.004 -0.26071,0 -0.39123,-0.11507 -0.39123,-0.34448 0,-0.22987 0.15134,-0.34452 0.45402,-0.34452 0.0208,0 0.0378,-10e-4 0.0508,-0.004 0.0131,-0.003 0.03,0.001 0.0508,0.0117 l 0.25824,0.0314 c 0.0261,0 0.0561,-0.001 0.0903,-0.004 0.0339,-0.002 0.0667,-0.006 0.0977,-0.0117 0.0416,-0.005 0.0769,-0.009 0.10584,-0.0117 0.0286,-0.002 0.0639,-0.004 0.10548,-0.004 0.19297,0 0.30551,0.081 0.33655,0.24254 0.28187,-0.2504 0.63677,-0.37553 1.06468,-0.37553 0.2921,0 0.56621,0.073 0.82198,0.21911 h -0.008 c 0.27129,0.15642 0.4512,0.34177 0.5401,0.55576 0.0783,0.1826 0.11748,0.4148 0.11748,0.6966 v 1.40903 0.36795 c 0.005,0.0834 0.0233,0.13574 0.0547,0.15642 0.0261,0 0.06,-0.001 0.1016,-0.004 0.042,-0.002 0.0759,-0.006 0.10196,-0.0117 0.0261,-0.005 0.0494,-0.009 0.0705,-0.0117 0.0208,-0.002 0.0469,-0.004 0.078,-0.004 0.0942,0 0.17745,0.0324 0.25082,0.0978 0.073,0.0651 0.10936,0.14196 0.10936,0.23083 z m -7.17603,-2.754 c 0.21912,-0.18782 0.44344,-0.2818 0.67304,-0.2818 0.22447,0 0.42788,0.0861 0.61055,0.25838 0.17251,0.17226 0.25858,0.37578 0.25858,0.61044 h -1.8397 c 0,-0.20849 0.0991,-0.40417 0.29753,-0.58702 z m 1.92564,1.46375 c -0.0889,0 -0.16334,0.0234 -0.22331,0.0707 -0.06,0.0468 -0.10548,0.10954 -0.13688,0.18768 l -0.0705,0.21125 c -0.0469,0.16192 -0.14852,0.29492 -0.30508,0.39923 -0.15657,0.10446 -0.33158,0.15682 -0.52451,0.15682 -0.29242,0 -0.53509,-0.11229 -0.728,-0.33695 -0.20355,-0.2191 -0.3054,-0.50337 -0.3054,-0.85298 0,-0.005 0.0105,-0.008 0.0313,-0.008 h 2.35627 c 0.0885,0 0.15769,-0.004 0.20743,-0.0117 0.0497,-0.008 0.0875,-0.0299 0.1136,-0.0664 0.0261,-0.0365 0.0416,-0.0886 0.0469,-0.15638 0.005,-0.0679 0.008,-0.16193 0.008,-0.28222 0,-0.50091 -0.16192,-0.92082 -0.48507,-1.26023 -0.16192,-0.1615 -0.34466,-0.28416 -0.54822,-0.36795 -0.20337,-0.0834 -0.43557,-0.12499 -0.69659,-0.12499 -0.5636,0 -1.02027,0.2008 -1.37005,0.60251 -0.3442,0.40721 -0.51646,0.91885 -0.51646,1.53444 0,0.61045 0.16178,1.10106 0.48535,1.47172 0.32893,0.3707 0.77484,0.55577 1.33847,0.55577 0.43836,0 0.83231,-0.13021 1.18227,-0.39134 0.36512,-0.2715 0.54751,-0.5843 0.54751,-0.93955 0,-0.26074 -0.13547,-0.39137 -0.40676,-0.39137 z m -4.06739,2.0822 c -0.2063,0.0992 -0.48919,0.14897 -0.84941,0.14897 -0.33913,0 -0.60788,-0.0484 -0.80631,-0.14509 -0.1983,-0.0965 -0.29736,-0.23083 -0.29736,-0.40308 0,-0.16676 0.10185,-0.3011 0.30522,-0.40309 0.2037,-0.10171 0.4855,-0.15268 0.84544,-0.15268 0.34974,0 0.62233,0.0496 0.81798,0.14884 0.19569,0.0992 0.29383,0.23495 0.29383,0.40693 0,0.167 -0.10322,0.3 -0.30939,0.3992 z m -1.49115,-3.24831 c 0.0102,-0.16714 0.0807,-0.30565 0.21124,-0.41518 0.13035,-0.10957 0.28706,-0.16426 0.46976,-0.16426 0.19805,0 0.3652,0.0586 0.50091,0.17597 0.13575,0.11754 0.20341,0.26776 0.20341,0.45032 0,0.1826 -0.0651,0.33006 -0.19554,0.44235 -0.13049,0.11232 -0.30276,0.16813 -0.51661,0.16813 -0.19833,0 -0.36008,-0.0558 -0.48535,-0.16813 -0.12542,-0.11229 -0.18782,-0.26497 -0.18782,-0.45819 z m 1.6437,1.72974 c -0.30798,-0.094 -0.70182,-0.14086 -1.18195,-0.14086 h -0.10167 c -0.0262,0.005 -0.0484,0.008 -0.0666,0.008 -0.0183,0 -0.0351,0 -0.0509,0 h -0.0469 c -0.43339,0 -0.64999,-0.094 -0.64999,-0.2818 0,-0.0575 0.0146,-0.10569 0.0433,-0.14499 0.0287,-0.039 0.0612,-0.0586 0.0979,-0.0586 0.0206,0 0.0703,0.0131 0.14852,0.0393 0.15134,0.0731 0.30137,0.12499 0.45021,0.15643 0.1487,0.0313 0.29877,0.0469 0.45022,0.0469 0.41726,0 0.7644,-0.12238 1.04111,-0.36792 0.28689,-0.25054 0.43064,-0.56088 0.43064,-0.93129 0,-0.2194 -0.0485,-0.41618 -0.14499,-0.59119 -0.0967,-0.17459 -0.23604,-0.33002 -0.41892,-0.46577 0.0157,-0.22945 0.10696,-0.34449 0.27411,-0.34449 0.0207,0 0.043,0.004 0.0666,0.0117 0.0236,0.008 0.0456,0.0172 0.0664,0.0275 -0.0522,0.0417 -0.0849,0.0824 -0.0977,0.12126 -0.0132,0.0393 -0.0196,0.0824 -0.0196,0.12925 0,0.10432 0.043,0.1946 0.12912,0.27012 0.086,0.0758 0.18383,0.11328 0.2934,0.11328 0.13572,0 0.25439,-0.052 0.3562,-0.15642 0.10185,-0.10432 0.15258,-0.2322 0.15258,-0.38336 0,-0.21403 -0.0872,-0.38905 -0.26211,-0.52476 -0.17487,-0.13533 -0.39508,-0.20355 -0.66146,-0.20355 -0.2818,0 -0.50229,0.0616 -0.66146,0.18397 -0.15917,0.12266 -0.25961,0.29379 -0.30138,0.5129 -0.0522,-0.0106 -0.10569,-0.0182 -0.1604,-0.0234 -0.0549,-0.005 -0.10831,-0.008 -0.16041,-0.008 -0.42291,0 -0.77513,0.11744 -1.05696,0.35211 -0.28702,0.2559 -0.4305,0.5636 -0.4305,0.92396 0,0.10432 0.009,0.2008 0.0274,0.28938 0.0183,0.0889 0.0561,0.17738 0.11356,0.26624 -0.16714,0.0783 -0.30014,0.1826 -0.39934,0.31324 -0.0992,0.13024 -0.14856,0.27904 -0.14856,0.44608 0,0.30798 0.15653,0.54543 0.46962,0.71216 -0.36544,0.19843 -0.54804,0.48302 -0.54804,0.85329 0,0.38104 0.17226,0.6784 0.51679,0.89257 0.34424,0.21371 0.822,0.32064 1.43245,0.32064 0.30262,0 0.57672,-0.0285 0.82201,-0.086 0.24528,-0.0576 0.45378,-0.14083 0.62618,-0.25055 0.17226,-0.10939 0.30399,-0.24239 0.39521,-0.39892 0.0914,-0.1567 0.13713,-0.33404 0.13713,-0.53248 0,-0.25054 -0.0875,-0.47241 -0.26239,-0.6653 -0.17502,-0.19294 -0.41092,-0.33652 -0.70845,-0.43064 z m -5.67959,-1.44036 c 0,-0.20849 0.0991,-0.40417 0.29754,-0.58702 0.21911,-0.18782 0.44358,-0.2818 0.67317,-0.2818 0.22447,0 0.42788,0.0861 0.61058,0.25838 0.17227,0.17226 0.25827,0.37578 0.25827,0.61044 z m -2.4263,-0.73586 c -0.0991,0.0575 -0.22309,0.0992 -0.37179,0.12542 -0.14884,0.0262 -0.32219,0.0393 -0.52049,0.0393 h -0.7046 c -0.0417,0 -0.0665,-0.004 -0.0744,-0.0121 -0.008,-0.008 -0.0117,-0.0324 -0.0117,-0.074 v -0.86929 c 0,-0.031 0.001,-0.0675 0.004,-0.10953 0.002,-0.0416 0.004,-0.0806 0.004,-0.11716 0,-0.14605 0.0497,-0.24003 0.1488,-0.2818 0.13053,-0.0575 0.39399,-0.0861 0.79072,-0.0861 0.69924,0 1.04884,0.25051 1.04884,0.75142 0,0.308 -0.10431,0.51911 -0.31309,0.6339 z m 4.08588,-0.7046 c -0.20338,-0.0834 -0.43586,-0.12498 -0.6966,-0.12498 -0.5636,0 -1.0203,0.20079 -1.37005,0.6025 -0.34448,0.40721 -0.51646,0.91885 -0.51646,1.53444 0,0.11642 0.008,0.22737 0.0195,0.33486 l -0.004,-0.007 c 0,0 -0.004,0.58977 -0.0825,0.74069 -0.0962,0.18535 -0.28749,0.18507 -0.39342,0.16852 -2.9e-4,-3.5e-4 -7.1e-4,-7e-4 -0.001,-0.001 -0.0156,-7e-4 -0.03,-0.004 -0.0442,-0.008 -0.002,-7.1e-4 -0.005,-0.001 -0.007,-0.002 -0.10665,-0.0361 -0.16041,-0.17844 -0.16041,-0.42789 0,-0.042 -0.002,-0.10128 -2.5e-4,-0.14012 l 0.008,-0.29835 c 0,-0.20369 -0.0171,-0.37691 -0.0508,-0.52063 -0.0342,-0.14333 -0.0824,-0.26211 -0.14499,-0.35623 -0.0364,-0.0572 -0.0821,-0.10679 -0.13684,-0.14884 -0.055,-0.0416 -0.11631,-0.0806 -0.18422,-0.11712 0.0419,-0.0158 0.0796,-0.0285 0.11366,-0.0393 0.0338,-0.0103 0.0692,-0.0258 0.10569,-0.0468 0.42789,-0.20356 0.64178,-0.57398 0.64178,-1.11168 0,-0.91295 -0.59214,-1.36977 -1.77698,-1.36977 -0.0781,0 -0.16302,0.001 -0.25439,0.004 -0.0912,0.003 -0.18383,0.007 -0.27781,0.0117 l -0.57146,0.0314 h -0.047 c -0.0886,0.005 -0.17085,0.009 -0.24666,0.0117 -0.0754,0.003 -0.14979,0.004 -0.22282,0.004 -0.0732,0 -0.13973,-0.001 -0.19967,-0.004 -0.0599,-0.002 -0.11631,-0.007 -0.16827,-0.0117 -0.0576,-0.005 -0.11864,-0.0117 -0.18398,-0.0197 -0.0653,-0.008 -0.12925,-0.014 -0.19166,-0.0193 -0.0211,-0.005 -0.0431,-0.008 -0.0667,-0.008 h -0.0508 c -0.30801,0 -0.46178,0.12263 -0.46178,0.36795 0,0.0889 0.0362,0.1681 0.10953,0.23866 0.0731,0.0703 0.15657,0.10583 0.25041,0.10583 0.026,0 0.0575,-10e-4 0.0941,-0.004 0.0362,-0.002 0.0703,-0.007 0.10184,-0.0117 0.0259,-0.005 0.0624,-0.009 0.10926,-0.0117 0.047,-0.002 0.0707,-0.007 0.0707,-0.0117 0.1615,0.0154 0.24253,0.1695 0.24253,0.46192 v 3.01375 c 0,0.3025 -0.0836,0.45381 -0.25051,0.45381 -0.0262,0 -0.0522,-0.001 -0.0783,-0.004 -0.0262,-0.002 -0.0522,-0.006 -0.0783,-0.0117 -0.0262,0 -0.0522,-0.001 -0.0783,-0.004 -0.0262,-0.003 -0.047,-0.004 -0.0627,-0.004 -0.0208,0 -0.0364,-10e-4 -0.0467,-0.004 -0.0108,-0.003 -0.0185,-0.004 -0.0237,-0.004 -0.23993,0 -0.35994,0.11507 -0.35994,0.34452 0,0.25079 0.15116,0.37592 0.45406,0.37592 0.0834,0.0154 0.14192,0.0207 0.17596,0.0154 0.0339,-0.005 0.0797,-0.008 0.13699,-0.008 0.047,-0.005 0.10308,-0.0145 0.16841,-0.0276 0.0652,-0.0131 0.13035,-0.0244 0.19551,-0.0351 0.0653,-0.0103 0.12788,-0.0207 0.188,-0.0313 0.0599,-0.0103 0.10583,-0.0156 0.13695,-0.0156 0.0573,0 0.11744,0.003 0.17998,0.008 0.0627,0.005 0.13575,0.0131 0.21925,0.0238 l 0.39907,0.0547 c 0.0209,0.005 0.0471,0.008 0.0784,0.008 0.0103,0 0.0207,0.003 0.0314,0.008 0.31309,0 0.46948,-0.12513 0.46948,-0.37592 0,-0.23978 -0.12263,-0.35994 -0.36781,-0.35994 -0.0626,0 -0.13585,0.008 -0.21921,0.0234 -0.0418,0.0106 -0.0862,0.0158 -0.133,0.0158 -0.12527,0 -0.20878,-0.0992 -0.25065,-0.29768 v 0.008 c 0,-0.0262 -0.001,-0.0899 -0.004,-0.19156 -0.003,-0.10196 -0.004,-0.2442 -0.004,-0.42676 v -0.57947 c 0,-0.12513 0.0364,-0.18782 0.10954,-0.18782 h 0.6966 c 0.36547,0 0.60014,0.0496 0.70474,0.1488 0.10418,0.0783 0.15642,0.2715 0.15642,0.57919 v 0.16468 l -0.008,0.2504 v 0.2267 c 0,0.66833 0.33651,1.00224 1.00996,1.00224 0.33377,0 0.59338,-0.09 0.77873,-0.27009 0.0606,-0.059 0.11038,-0.12721 0.15102,-0.20232 0.0116,-0.0172 0.0216,-0.0333 0.0309,-0.0492 0.0139,0.0168 0.0263,0.0351 0.0409,0.0519 0.32868,0.3707 0.77488,0.55577 1.33851,0.55577 0.43836,0 0.83231,-0.13021 1.18195,-0.39134 0.36516,-0.27149 0.54804,-0.5843 0.54804,-0.93955 0,-0.26073 -0.13589,-0.39137 -0.40707,-0.39137 -0.0888,0 -0.16316,0.0234 -0.2231,0.0707 -0.0601,0.0468 -0.10583,0.10953 -0.13698,0.18768 l -0.0704,0.21124 c -0.047,0.16193 -0.14884,0.29492 -0.3054,0.39924 -0.15653,0.10445 -0.3314,0.15681 -0.52433,0.15681 -0.29256,0 -0.5351,-0.11229 -0.72817,-0.33694 -0.20338,-0.21911 -0.30522,-0.50338 -0.30522,-0.85298 0,-0.005 0.0105,-0.008 0.0314,-0.008 h 2.35617 c 0.0886,0 0.15765,-0.004 0.20739,-0.0117 0.0495,-0.008 0.0873,-0.0299 0.11353,-0.0664 0.0261,-0.0365 0.0416,-0.0886 0.0469,-0.15639 0.005,-0.0679 0.008,-0.16192 0.008,-0.28222 0,-0.50091 -0.16192,-0.92082 -0.48521,-1.26023 -0.16192,-0.1615 -0.34448,-0.28416 -0.54804,-0.36795 z m 2.89884,-7.62215 c 0.4917,0.18662 0.86526,0.0455 1.04842,-0.0593 0.358,-0.20496 0.57189,-0.56832 0.63568,-1.0795 0.006,-0.0423 0.008,-0.085 0.007,-0.127 l -0.0286,-2.32692 c 6.53592,0.90099 11.3919,6.43114 11.3919,13.10485 0,3.53395 -1.37654,6.8567 -3.87596,9.35644 -7.1e-4,7.1e-4 -0.001,0.002 -0.001,0.002 -0.59867,0.5975 -1.2573,1.14088 -1.95757,1.61396 -0.2667,0.18094 -0.41098,0.47515 -0.41098,0.77473 0,0.17982 0.0519,0.3616 0.16016,0.52201 0.28857,0.42732 0.86889,0.5395 1.29645,0.25093 0.79834,-0.53908 1.54905,-1.15867 2.23168,-1.84122 7e-4,-7e-4 0.002,-0.001 0.003,-0.002 2.8515,-2.85224 4.42242,-6.64393 4.42242,-10.6766 0,-7.62304 -5.55272,-13.93811 -13.02318,-14.95729 l 3.5e-4,-0.002 -0.25068,-0.036 c -0.0163,-0.002 -0.0329,-0.004 -0.0497,-0.006 l -0.3339,-0.03 c -0.0113,-0.001 -0.0224,-0.003 -0.0341,-0.004 -0.003,-7e-4 -0.006,0 -0.009,0 l -0.42224,-0.0381 c -0.26278,-0.0233 -0.52366,0.0653 -0.71755,0.24483 -0.19346,0.17957 -0.30455,0.41522 -0.29929,0.69674 l 0.0265,2.16499 -5.77985,-4.51095 5.75318,-4.17654 v 1.86055 c 0,0.48155 0.36667,0.88442 0.84624,0.92957 l 0.31446,0.0293 c 0.0316,0.006 0.062,0.0134 0.0947,0.0155 2.80264,0.18803 5.55544,1.05056 7.96068,2.49378 0.44202,0.26529 1.01529,0.12206 1.28093,-0.32032 0.26423,-0.44239 0.12136,-1.01495 -0.32032,-1.28129 -2.37737,-1.42663 -5.06271,-2.33504 -7.81914,-2.6603 l 2.6e-4,-0.002 -0.49032,-0.0543 v -2.24755 c 0,-0.11254 -0.0201,-0.22366 -0.0595,-0.32879 -0.15201,-0.40357 -0.40047,-0.67592 -0.73836,-0.80786 -0.33486,-0.13123 -0.70157,-0.0988 -1.09029,0.0963 -0.0453,0.0226 -0.0888,0.049 -0.12997,0.0787 l -7.70363,5.59258 c -0.23713,0.17216 -0.3799,0.44556 -0.38516,0.73907 0,0.006 0,0.0109 0,0.0166 0,0.28716 0.13215,0.5588 0.35955,0.7359 l 7.82793,6.10975 c 0.0824,0.0642 0.17363,0.11324 0.26927,0.1464 z m 12.88708,22.3563 c -2.6e-4,7.1e-4 -0.001,0.001 -0.002,0.002 -0.004,0.004 -0.037,0.0375 -0.0416,0.042 -0.17181,0.17748 -0.25612,0.4021 -0.25612,0.62755 0,0.2413 0.0963,0.483 0.28363,0.66891 0.36301,0.35884 0.96167,0.34463 1.32503,-0.0145 7.1e-4,-0.001 0.0162,-0.0165 0.0173,-0.0176 0.004,-0.004 0.007,-0.009 0.0109,-0.0134 0.005,-0.004 0.01,-0.008 0.0148,-0.012 7.1e-4,-7.1e-4 0.0162,-0.0163 0.0169,-0.0176 0.36301,-0.36231 0.35666,-0.94368 -0.005,-1.30817 -0.36266,-0.36407 -0.95815,-0.35913 -1.32292,0.002 -0.004,0.004 -0.0353,0.0353 -0.0409,0.041 z m 4.0072,-6.11438 -0.0437,0.11081 c -0.0448,0.11314 -0.066,0.22959 -0.066,0.34396 0,0.3707 0.2219,0.72072 0.58702,0.86597 0.47837,0.18989 1.01988,-0.0434 1.21003,-0.52134 l 0.0462,-0.11755 c 0.18804,-0.48009 -0.0469,-1.01988 -0.52564,-1.20756 -0.47872,-0.18866 -1.01952,0.047 -1.20791,0.52571 z m 0.96379,-3.46851 -0.0198,0.11356 c -0.01,0.055 -0.0145,0.11078 -0.0145,0.16507 0,0.44234 0.31644,0.83471 0.76729,0.91584 0.50659,0.0903 0.99024,-0.24694 1.08126,-0.75283 l 0.0222,-0.1295 c 0.0861,-0.50521 -0.25471,-0.98778 -0.762,-1.07459 -0.50695,-0.0862 -0.98813,0.25477 -1.07457,0.76245 z m -7.79427,11.87937 c -0.27728,0.17776 -0.42863,0.47763 -0.42863,0.78465 0,0.1724 0.048,0.34674 0.14782,0.50204 0.27799,0.4331 0.85408,0.5588 1.28693,0.2807 l 0.11854,-0.0779 c 0.42651,-0.28582 0.5401,-0.86335 0.254,-1.29233 -0.28646,-0.42718 -0.86502,-0.54073 -1.29223,-0.25396 z m 5.18195,-5.20527 -0.0593,0.0911 c -0.10689,0.15946 -0.15839,0.33944 -0.15839,0.51787 0,0.29987 0.14464,0.59451 0.41239,0.77432 0.42722,0.28649 1.00578,0.17296 1.29259,-0.25439 l 0.0751,-0.11423 c 0.2794,-0.43007 0.15733,-1.00789 -0.27376,-1.28873 -0.43109,-0.28004 -1.00824,-0.15766 -1.2887,0.27407 z m 2.85856,-10.3015 c 0,0.01 0,0.0195 2.6e-4,0.0299 l 0.003,0.11204 c 0.0113,0.514 0.43674,0.92259 0.95109,0.91116 0.508,-0.0106 0.91157,-0.42539 0.91157,-0.93046 0,-0.007 0,-0.0138 0,-0.0204 l -0.004,-0.13158 c -0.0159,-0.51404 -0.44626,-0.91737 -0.96026,-0.90125 -0.50412,0.0158 -0.9017,0.42926 -0.9017,0.9306 z m -1.75084,-7.3352 c 0,0.13229 0.0279,0.26599 0.0871,0.39299 l 0.0512,0.11042 c 0.21695,0.46637 0.77081,0.66887 1.23754,0.45191 0.46672,-0.21766 0.66851,-0.77258 0.45156,-1.23754 l -0.0515,-0.11078 c -0.21696,-0.46637 -0.77047,-0.66851 -1.23719,-0.45155 -0.33938,0.15769 -0.5387,0.49389 -0.5387,0.84455 z m -4.50673,-6.04944 c 0,0.25753 0.10583,0.51294 0.31327,0.69745 l 0.0808,0.0727 c 0.37959,0.34678 0.96873,0.32032 1.31586,-0.0593 0.34749,-0.37888 0.32103,-0.96837 -0.0593,-1.31586 l -0.10125,-0.091 c -0.38453,-0.34113 -0.97296,-0.30621 -1.31445,0.0787 -0.15734,0.1771 -0.23495,0.39794 -0.23495,0.61736 z m 2.55975,2.79824 c 0,0.19403 0.0607,0.39017 0.18663,0.55809 l 0.0561,0.0762 c 0.29633,0.42016 0.87771,0.52105 1.29786,0.22472 0.42016,-0.29563 0.52106,-0.87736 0.22472,-1.29787 -0.0293,-0.0409 -0.0586,-0.0811 -0.0885,-0.121 -0.30833,-0.41134 -0.89218,-0.4953 -1.30422,-0.18591 -0.24377,0.18238 -0.37254,0.46213 -0.37254,0.74577 z m 3.91408,5.92314 c 0.50023,-0.11854 1.00224,0.19121 1.12077,0.69176 l 0.0296,0.12636 c 0.1143,0.49926 -0.19896,1.00017 -0.70097,1.11524 -0.50165,0.11465 -1.00083,-0.19953 -1.11513,-0.70072 l -0.0265,-0.11205 c -0.0169,-0.0719 -0.025,-0.14428 -0.025,-0.21526 0,-0.42202 0.28857,-0.80444 0.7172,-0.90533 z m -18.68919,14.25783 c -0.4917,-0.18697 -0.86529,-0.0455 -1.04827,0.0593 -0.35814,0.20506 -0.57175,0.56761 -0.63571,1.07886 -0.006,0.0426 -0.009,0.0857 -0.007,0.1276 l 0.0286,2.32629 c -6.53602,-0.90072 -11.39169,-6.43075 -11.39169,-13.10432 0,-3.53399 1.3764,-6.85656 3.87586,-9.35704 7.1e-4,0 7.1e-4,-7.1e-4 0.001,-0.001 0.59877,-0.59831 1.25734,-1.14158 1.9575,-1.61431 0.2668,-0.18062 0.41081,-0.47484 0.41081,-0.7747 0,-0.17991 -0.0518,-0.36159 -0.15985,-0.52211 -0.28871,-0.42721 -0.86899,-0.53975 -1.29674,-0.25082 -0.79802,0.53939 -1.54905,1.15887 -2.23118,1.84114 -0.001,7.1e-4 -0.002,0.001 -0.003,0.002 -2.85143,2.85256 -4.42214,6.64429 -4.42214,10.67714 0,7.62247 5.55254,13.93789 13.02304,14.95678 l -2.7e-4,0.002 0.2504,0.036 c 0.0164,0.002 0.0331,0.005 0.0497,0.005 l 0.3339,0.0303 c 0.0113,10e-4 0.0227,0.003 0.034,0.004 0.003,0 0.006,-7.1e-4 0.01,0 l 0.4221,0.0378 c 0.26293,0.0237 0.52377,-0.0652 0.71755,-0.24448 0.19346,-0.17984 0.30452,-0.41546 0.29944,-0.69701 l -0.0266,-2.16461 5.77998,4.51086 -5.75338,4.17657 v -1.8609 c 0,-0.48151 -0.36686,-0.88445 -0.84639,-0.92922 l -0.31446,-0.0296 c -0.0316,-0.005 -0.062,-0.0134 -0.0945,-0.0156 -2.80264,-0.18771 -5.55568,-1.0505 -7.96064,-2.49414 -0.4422,-0.26483 -1.01561,-0.12125 -1.28104,0.32068 -0.2643,0.44235 -0.12139,1.01494 0.32039,1.28104 2.37727,1.42653 5.06279,2.33535 7.81915,2.66058 l -2.7e-4,0.002 0.49015,0.0547 v 2.24744 c 0,0.11261 0.0201,0.22366 0.0598,0.32854 0.15173,0.40432 0.40019,0.67592 0.73808,0.80822 0.335,0.1312 0.70168,0.0988 1.09044,-0.0961 0.0455,-0.0224 0.0886,-0.0493 0.12982,-0.0789 l 7.70368,-5.59223 c 0.23707,-0.17251 0.37994,-0.44634 0.38488,-0.73942 0,-0.006 0,-0.0109 0,-0.0165 0,-0.2872 -0.13194,-0.5588 -0.35948,-0.7359 l -7.82764,-6.10978 c -0.0825,-0.0642 -0.17378,-0.11285 -0.26942,-0.14608 z m -12.88729,-22.35655 c 7.1e-4,-7.1e-4 0.001,-0.001 0.002,-0.002 0.004,-0.004 0.0373,-0.0374 0.0415,-0.042 0.17197,-0.17709 0.25604,-0.40216 0.25604,-0.62724 0,-0.2413 -0.096,-0.4833 -0.28346,-0.66886 -0.36297,-0.35948 -0.96174,-0.34502 -1.32499,0.0145 -7.1e-4,7.1e-4 -0.0162,0.0162 -0.0171,0.0176 -0.004,0.004 -0.007,0.009 -0.0109,0.0134 -0.005,0.004 -0.0103,0.007 -0.0149,0.0116 -10e-4,10e-4 -0.0163,0.0166 -0.0171,0.0176 -0.36297,0.36195 -0.35648,0.94403 0.005,1.30845 0.36226,0.36407 0.95758,0.35913 1.32263,-0.002 0.004,-0.005 0.0354,-0.0356 0.0406,-0.0413 z m -4.00692,6.11434 0.0437,-0.11077 c 0.0447,-0.11324 0.0661,-0.22931 0.0661,-0.34396 0,-0.37042 -0.2221,-0.72037 -0.58716,-0.86572 -0.47833,-0.1905 -1.02002,0.043 -1.21006,0.5207 l -0.0463,0.11748 c -0.18785,0.48048 0.0471,1.02023 0.52585,1.20791 0.47858,0.18838 1.01946,-0.0469 1.20784,-0.52564 z m -0.96378,3.46876 0.0198,-0.11366 c 0.01,-0.0554 0.0145,-0.11053 0.0145,-0.16539 0,-0.44192 -0.31641,-0.83456 -0.76743,-0.9157 -0.50645,-0.0903 -0.99028,0.24659 -1.08123,0.75282 l -0.0223,0.12954 c -0.0863,0.50533 0.25481,0.98806 0.76221,1.07446 0.50712,0.0861 0.98778,-0.25453 1.07446,-0.76207 z m 7.79444,-11.87969 c 0.27715,-0.17744 0.42845,-0.47801 0.42845,-0.78457 0,-0.17251 -0.0481,-0.34643 -0.14802,-0.50236 -0.27782,-0.43251 -0.85397,-0.55809 -1.28665,-0.28011 l -0.1184,0.0773 c -0.42675,0.28646 -0.54045,0.8636 -0.25438,1.29223 0.28649,0.42721 0.86529,0.54116 1.29247,0.2547 z m -5.18223,5.20559 0.0597,-0.091 c 0.10682,-0.15946 0.15822,-0.33973 0.15822,-0.51823 0,-0.29951 -0.14499,-0.59444 -0.41275,-0.774 -0.42703,-0.28681 -1.00566,-0.17286 -1.29229,0.25435 l -0.075,0.11395 c -0.27975,0.43039 -0.15737,1.00789 0.27351,1.28835 0.4312,0.2801 1.00806,0.15804 1.28863,-0.27341 z m -2.85835,10.30154 c 0,-0.0101 0,-0.0197 -3.5e-4,-0.0301 l -0.003,-0.1119 c -0.0113,-0.51442 -0.43671,-0.92259 -0.95099,-0.91158 -0.50796,0.0106 -0.91143,0.42542 -0.91143,0.93088 0,0.007 0,0.0138 0,0.02 l 0.004,0.1319 c 0.0158,0.51372 0.44623,0.91747 0.96051,0.90096 0.50394,-0.0158 0.90163,-0.42926 0.90163,-0.93017 z m 1.7508,7.3346 c 0,-0.13162 -0.028,-0.26571 -0.0871,-0.39232 l -0.0514,-0.11081 c -0.21703,-0.46634 -0.77085,-0.66848 -1.23747,-0.45159 -0.46659,0.21731 -0.66834,0.77269 -0.4517,1.23761 l 0.0515,0.11039 c 0.21703,0.46633 0.77058,0.6689 1.23748,0.45187 0.33912,-0.15808 0.53865,-0.49417 0.53865,-0.84515 z m 4.5066,6.04971 c 0,-0.25756 -0.10584,-0.51332 -0.31334,-0.69715 l -0.0808,-0.0729 c -0.37948,-0.34686 -0.96848,-0.3204 -1.31586,0.0593 -0.34727,0.37923 -0.32081,0.96834 0.0591,1.31572 l 0.10132,0.0911 c 0.38474,0.34148 0.97328,0.30621 1.31463,-0.0782 0.15751,-0.17724 0.23495,-0.398 0.23495,-0.61779 z m -2.55955,-2.79784 c 0,-0.19442 -0.0611,-0.39053 -0.18672,-0.55809 l -0.0562,-0.0766 c -0.2963,-0.42016 -0.8774,-0.52102 -1.29798,-0.22475 -0.41973,0.29601 -0.52105,0.87739 -0.22475,1.29798 0.0293,0.0412 0.059,0.0814 0.0889,0.121 0.30843,0.41134 0.89214,0.49484 1.3039,0.18616 0.2442,-0.18274 0.37292,-0.46207 0.37292,-0.74567 z m -3.91407,-5.92321 c -0.50048,0.1185 -1.00252,-0.19113 -1.12088,-0.69176 l -0.0296,-0.12665 c -0.11451,-0.49953 0.19914,-1.00019 0.70086,-1.11551 0.50148,-0.11427 1.00076,0.19966 1.11528,0.70142 l 0.0262,0.11176 c 0.0172,0.0719 0.0254,0.144 0.0254,0.21523 0,0.42224 -0.28872,0.80437 -0.71717,0.90551"
       style="display:inline;fill:url(#linearGradient1035);fill-opacity:1;fill-rule:nonzero;stroke:none;stroke-width:0.0352777"
       id="path1037" />
  </g>
</svg>
