<svg xmlns="http://www.w3.org/2000/svg" width="284.697" height="79.828" viewBox="0 0 284.697 79.828">
  <g id="Layer_2_1_" transform="translate(0 0.047)" opacity="0.8">
    <g id="Layer_1-2" transform="translate(0 0.525)">
      <path id="Path_1" data-name="Path 1" d="M169.939,18.848,198.745,3.124a15.41,15.41,0,0,1,8.931-.755l29.31,15.473a8.736,8.736,0,0,1,2.767,5.912l.252,31.448a9.214,9.214,0,0,1-1.761,4.654L208.432,76.588c-3.019,1.006-5.535,1.006-7.673-.126l-29.687-16.1a6.4,6.4,0,0,1-3.271-5.535l.252-31.2A10.086,10.086,0,0,1,169.939,18.848Z" transform="translate(43.282 -0.136)" fill="#fff"/>
      <path id="Path_2" data-name="Path 2" d="M214.2,72.443a1.612,1.612,0,0,0-2.138-.629l-4.78,2.516a6.484,6.484,0,0,1-6.415,0l-27.3-14.844a6.679,6.679,0,0,1-3.522-5.912V24.39c0-2.516.5-4.151,2.642-5.409l13.083-7.17-1.635,5.409a1.649,1.649,0,0,0,1.006,2.013h0c.126,0,.377.126.5.126a1.625,1.625,0,0,0,1.51-1.132l2.893-9.309A1.649,1.649,0,0,0,189.04,6.9l-9.183-2.893a1.515,1.515,0,0,0-1.887,1.258,1.6,1.6,0,0,0,.881,1.761l5.912,1.887L172.058,15.71a9.953,9.953,0,0,0-5.158,8.68V53.448a9.953,9.953,0,0,0,5.158,8.68l27.3,14.969a9.928,9.928,0,0,0,9.56,0l4.78-2.516a1.544,1.544,0,0,0,.5-2.139Z" transform="translate(43.05 0.36)" stroke="#000" stroke-miterlimit="10" stroke-width="1"/>
      <path id="Path_3" data-name="Path 3" d="M230.522,16.6l-27.3-14.844a9.928,9.928,0,0,0-9.56,0l-3.9,2.138a1.612,1.612,0,0,0-.629,2.138,1.612,1.612,0,0,0,2.138.629l3.9-2.138a6.484,6.484,0,0,1,6.415,0l27.3,14.969a6.679,6.679,0,0,1,3.522,5.912V54.459a6.679,6.679,0,0,1-3.522,5.912l-11.573,6.415,1.635-5.409a1.523,1.523,0,0,0-1.132-1.887A1.775,1.775,0,0,0,215.93,60.5l-2.893,9.309a1.649,1.649,0,0,0,1.006,2.013l9.183,2.893c.126,0,.377.126.5.126a1.486,1.486,0,0,0,1.51-1.635,1.762,1.762,0,0,0-1.132-1.51l-5.912-1.887,12.076-6.667a9.953,9.953,0,0,0,5.158-8.68V25.275A9.383,9.383,0,0,0,230.522,16.6Z" transform="translate(48.741 -0.525)" stroke="#000" stroke-miterlimit="10" stroke-width="1"/>
      <path id="Path_4" data-name="Path 4" d="M203.934,55.17h-11.2a1.1,1.1,0,0,1-1.132-1.006h0V27.747a1.027,1.027,0,0,0-1.132-1.006h-.126l-2.39.5a1.037,1.037,0,0,1-1.258-.881V21.08a1.067,1.067,0,0,1,.881-1.006l16.1-3.774h.252a1.1,1.1,0,0,1,1.132,1.006V54.038a1.027,1.027,0,0,1-1.132,1.006Z" transform="translate(48.157 3.544)"/>
      <path id="Path_5" data-name="Path 5" d="M95.59,50.212a16.251,16.251,0,0,1-6.541,3.774,29.554,29.554,0,0,1-9.435,1.384c-5.283,0-9.435-1.51-12.579-4.529S62.254,43.671,62,38.387V35.117a19.377,19.377,0,0,1,2.139-9.56,15.821,15.821,0,0,1,5.912-6.29A17.628,17.628,0,0,1,79.111,17c5.032,0,8.806,1.132,11.573,3.145a12.845,12.845,0,0,1,4.78,9.435H86.155a6.681,6.681,0,0,0-2.138-4.4A7.778,7.778,0,0,0,79.362,23.8a6.066,6.066,0,0,0-5.535,2.893,14.4,14.4,0,0,0-2.013,8.177v2.264c0,3.774.629,6.541,2.013,8.428a7.429,7.429,0,0,0,6.415,2.893,8.4,8.4,0,0,0,5.535-1.51V41.155H79.111V34.991H95.464Z" transform="translate(15.989 3.722)"/>
      <path id="Path_6" data-name="Path 6" d="M14.844,41.552H9.686V54.635H0V17.4H15.724c4.78,0,8.428,1.006,11.07,2.893a9.752,9.752,0,0,1,4.025,8.3,11.381,11.381,0,0,1-1.635,6.415A11.519,11.519,0,0,1,23.9,39.162l8.3,15.1v.377H21.888ZM9.686,34.634h6.038a5.572,5.572,0,0,0,4.151-1.384,4.738,4.738,0,0,0,1.384-3.774A4.738,4.738,0,0,0,19.875,25.7a5.572,5.572,0,0,0-4.151-1.384H9.686Z" transform="translate(0 3.828)"/>
      <path id="Path_7" data-name="Path 7" d="M58.381,38.911h-15.1v8.931H61.149v6.793H33.6V17.4H61.149v6.919H43.286v7.8h15.1Z" transform="translate(8.667 3.828)"/>
      <path id="Path_8" data-name="Path 8" d="M123.881,38.911h-15.1v8.931h17.863v6.793H99.1V17.4h27.549v6.919H108.66v7.8h15.1Z" transform="translate(25.562 3.828)"/>
      <path id="Path_9" data-name="Path 9" d="M162.935,54.635h-9.56L139.16,31.489V54.635H129.6V17.4h9.56l14.089,23.146V17.4h9.56V54.635Z" transform="translate(33.429 3.828)"/>
    </g>
  </g>
</svg>
