<svg xmlns="http://www.w3.org/2000/svg" width="152.128" height="161" viewBox="0 0 152.128 161">
  <g id="Group_994" data-name="Group 994" transform="translate(23.568 -990.895)">
    <path id="Path_2992" data-name="Path 2992" d="M172.012,1154.379q0,19.535,0,39.069c0,3.551-1.613,5.155-5.179,5.156q-8.631,0-17.261,0c-3.36-.005-4.87-1.531-4.87-4.9,0-18.2-.022-36.4.037-54.6.005-1.552-.432-1.968-1.923-1.87-1.979.131-3.974.062-5.961.025-3.217-.06-4.784-1.635-4.835-4.865-.036-2.3,0-4.6-.01-6.9a4.6,4.6,0,0,1,2.738-4.5c5.974-3.109,11.881-6.349,17.811-9.542a11.094,11.094,0,0,1,5.558-1.371c2.928.05,5.858.009,8.787.014,3.465.005,5.11,1.633,5.11,5.065Q172.015,1134.767,172.012,1154.379ZM166.988,1159H166.9c0-1.149-.024-2.3.007-3.448.028-1.052-.395-1.531-1.491-1.487a35.805,35.805,0,0,1-4.234-.011c-1.4-.11-1.939.4-1.739,1.775a4.066,4.066,0,0,1,0,1.1c-.151,1.157.3,1.65,1.488,1.515.454-.051,1.084-.238,1.094.659.008.718-.137,1.1-.93,1.326A6.222,6.222,0,0,1,155.022,1150a6,6,0,0,1,7.364-.87c1.19.749,1.978.687,2.752-.455a6.2,6.2,0,0,1,.961-1.029c.86-.794.591-1.4-.227-2.036a11.509,11.509,0,0,0-13.729-.081,11.266,11.266,0,0,0-3.388,13.658c2.565,5.553,8.7,7.838,15.2,5.664,3.036-1.015,3.036-1.015,3.036-4.124Z" transform="translate(-106.718 -81.754)" fill="#fff"/>
    <path id="Path_2993" data-name="Path 2993" d="M14.476,1025.879c-3.4-1.106-6.514-2.12-9.627-3.129-.745-.242-1.505-.441-2.238-.714a3.3,3.3,0,0,1-2.13-4.148,3.169,3.169,0,0,1,3.994-2.118c3.306.96,6.572,2.062,9.852,3.111,2.933.938,5.868,1.869,8.792,2.833a3.235,3.235,0,0,1,2.325,4.407q-2.862,9.438-5.858,18.835a3.211,3.211,0,0,1-4.214,2.188,3.267,3.267,0,0,1-2.034-4.2c.831-2.855,1.776-5.678,2.637-8.525a3.759,3.759,0,0,0,.361-1.98c-2.685,1.462-5.28,2.873-7.872,4.289-6,3.28-12.015,6.546-18.006,9.848a13.346,13.346,0,0,0-7.4,12.381q-.044,29.42,0,58.84a13.227,13.227,0,0,0,7.263,12.3q27.739,15.234,55.536,30.365a13.253,13.253,0,0,0,13.2.017c3.047-1.611,6.044-3.315,9.076-4.953,2.1-1.135,4.044-.695,5,1.088.932,1.738.275,3.543-1.777,4.686-3.1,1.727-6.193,3.485-9.354,5.1a19.644,19.644,0,0,1-19.221-.1q-28.029-15.194-55.947-30.591c-6.566-3.635-10.22-9.446-10.294-17-.164-16.735-.075-33.472-.084-50.208,0-3.452-.078-6.907.051-10.354a19.557,19.557,0,0,1,10.649-17.291c8.485-4.728,17.039-9.331,25.563-13.99C13.212,1026.6,13.7,1026.317,14.476,1025.879Z" transform="translate(0 -16.967)" fill="#98c21f"/>
    <path id="Path_2994" data-name="Path 2994" d="M213.655,1126.581c8.571-4.666,17.216-9.2,25.681-14.053a12.374,12.374,0,0,0,6.322-11.236q.081-29.895-.012-59.79a12.745,12.745,0,0,0-7-11.645q-27.86-15.319-55.792-30.5a13.156,13.156,0,0,0-13.185.038c-2.439,1.306-4.856,2.654-7.291,3.969-2.086,1.127-4.024.69-5-1.1s-.291-3.591,1.842-4.77c2.467-1.364,4.921-2.753,7.422-4.053,6.447-3.353,12.972-3.427,19.355.034q27.95,15.154,55.8,30.488c6.806,3.757,10.473,9.741,10.514,17.528q.159,30.207-.06,60.416c-.065,7.625-3.931,13.323-10.519,17.026-8.328,4.681-16.755,9.184-25.139,13.765-.226.123-.445.259-.962.562,2.618.854,4.993,1.633,7.37,2.4,1.39.449,2.8.846,4.174,1.33a3.34,3.34,0,1,1-2.1,6.337q-9.176-2.9-18.328-5.878c-2.189-.715-2.969-2.317-2.283-4.562q2.814-9.2,5.69-18.384c.682-2.177,2.362-3.163,4.281-2.606,1.848.537,2.727,2.415,2.085,4.558-.869,2.9-1.783,5.782-2.657,8.678-.142.471-.515.928-.2,1.469l-.187.044c.025.012.059.041.073.033A.628.628,0,0,0,213.655,1126.581Z" transform="translate(-123.827)" fill="#522b1c"/>
    <path id="Path_2995" data-name="Path 2995" d="M347.345,1227.613c0-3.652.032-6.941-.019-10.229-.015-1,.275-1.41,1.317-1.4,4.158.042,3.672-.327,3.676,3.557.005,5.6.013,11.192-.015,16.787,0,.617.385,1.485-.489,1.791-.8.281-1.354-.357-1.873-.88q-5.088-5.119-10.173-10.239c-.321-.323-.66-.628-1.26-1.2,0,3.467.025,6.622-.019,9.775-.01.736.445,1.882-.394,2.136a7.386,7.386,0,0,1-4.157-.034c-.447-.13-.405-.677-.405-1.1q0-9.727,0-19.455c0-.483-.016-.981.478-1.235.635-.326,1.113.078,1.529.473,2.427,2.3,4.837,4.622,7.257,6.931C344.221,1224.657,345.657,1226.012,347.345,1227.613Z" transform="translate(-244.961 -154.261)" fill="#fff"/>
    <path id="Path_2996" data-name="Path 2996" d="M44.468,1227.343c0-3.187.008-6.374-.005-9.56,0-.733.01-1.385,1.014-1.362,3.287.074,6.584-.205,9.862.149a6.431,6.431,0,0,1,5.715,5.225A6.229,6.229,0,0,1,58,1228.751c-1.342.715-1.208,1.272-.576,2.333,1.067,1.791,2.024,3.648,3,5.491.783,1.478.644,1.7-.967,1.736-3.693.07-3.693.07-5.345-3.233-.7-1.4-1.477-2.766-2.071-4.208a1.632,1.632,0,0,0-2.107-1.053c-.954.2-.484,1.027-.5,1.554-.064,1.826-.046,3.656-.018,5.484.016,1.064-.437,1.454-1.509,1.476-3.439.072-3.439.106-3.439-3.308Zm7.593-1.592c.574,0,1.148.024,1.721,0a2.332,2.332,0,0,0,2.458-2.454A2.259,2.259,0,0,0,53.808,1221c-.781-.03-1.564-.006-2.347-.006-2.1,0-2.1,0-2.1,2.043C49.362,1225.753,49.362,1225.753,52.061,1225.751Z" transform="translate(-46.667 -154.682)" fill="#fff"/>
    <path id="Path_2997" data-name="Path 2997" d="M269.671,1227.31c0-3.138.038-6.278-.02-9.415-.021-1.114.4-1.464,1.466-1.454,3.766.038,7.534.045,11.3,0,1.125-.014,1.433.425,1.4,1.487-.116,3.76.574,3.243-3.19,3.287-1.622.019-3.244.028-4.865-.007-.743-.016-1.108.119-1.14,1.008-.1,2.719-.143,2.718,2.561,2.718,1.255,0,2.512.019,3.766-.005.991-.02,1.379.431,1.429,1.417.162,3.217.187,3.215-2.951,3.215-.733,0-1.467-.038-2.2.01-.819.053-2-.416-2.377.223-.562.953-.219,2.235-.167,3.372.033.734.711.455,1.116.46,2.144.028,4.291.052,6.434,0,1.091-.028,1.6.239,1.593,1.476-.009,3.25.047,3.251-3.2,3.251h-8.789c-2.168,0-2.168,0-2.169-2.091Q269.67,1231.783,269.671,1227.31Z" transform="translate(-201.141 -154.717)" fill="#fff"/>
    <path id="Path_2998" data-name="Path 2998" d="M116.386,1227.415c0-3.19.031-6.38-.018-9.569-.016-1.014.329-1.4,1.347-1.392q5.726.048,11.452,0c1.01-.009,1.387.346,1.363,1.377-.093,3.911.5,3.35-3.269,3.393-1.569.017-3.14.052-4.706-.014-.97-.041-1.346.308-1.234,1.259a4.385,4.385,0,0,1,0,1.1c-.154,1.119.331,1.452,1.414,1.4,1.617-.08,3.241-.01,4.862-.023.969-.008,1.425.4,1.406,1.417-.073,3.916.451,3.126-3.069,3.209-.836.02-1.673,0-2.51,0-2.33.02-2.092-.281-2.09,2.093,0,2.277-.245,1.961,2.021,1.98,1.935.017,3.871.035,5.8-.009,1.008-.023,1.395.348,1.37,1.377-.1,4.058.5,3.282-3.269,3.337-3.033.044-6.069-.076-9.1.045-1.518.061-1.847-.492-1.8-1.881C116.449,1233.482,116.386,1230.448,116.386,1227.415Z" transform="translate(-95.984 -154.729)" fill="#fff"/>
    <path id="Path_2999" data-name="Path 2999" d="M337.15,1422.989a.64.64,0,0,1-.106.09c-.014.008-.048-.021-.073-.033l.187-.044Z" transform="translate(-247.322 -296.408)" fill="#fefefe"/>
  </g>
</svg>
