<?xml version="1.0" encoding="utf-8"?>
<!-- Generator: Adobe Illustrator 25.3.1, SVG Export Plug-In . SVG Version: 6.00 Build 0)  -->
<svg version="1.1" id="Layer_1" xmlns="http://www.w3.org/2000/svg" xmlns:xlink="http://www.w3.org/1999/xlink" x="0px" y="0px"
	 viewBox="0 0 200 200" style="enable-background:new 0 0 200 200;" xml:space="preserve">
<style type="text/css">
	.st0{fill:#FFFFFF;}
	.st1{fill:#EB6E23;}
	.st2{fill:none;}
	.st3{fill:#F9FBF7;}
</style>
<rect x="-7.9" y="-21.32" class="st0" width="220.6" height="235.74"/>
<g>
	<circle class="st1" cx="100" cy="100" r="97"/>
	<path class="st0" d="M100,6c51.83,0,94,42.17,94,94s-42.17,94-94,94S6,151.83,6,100S48.17,6,100,6 M100,0C44.77,0,0,44.77,0,100
		s44.77,100,100,100s100-44.77,100-100S155.23,0,100,0L100,0z"/>
</g>
<rect x="21.7" y="6.02" class="st2" width="157.23" height="159.81"/>
<path class="st0" d="M105.98,136.14c-0.63,1.6-1.27,3.19-1.9,4.78c-2.91-5.19-5.2-10.62-6.21-16.57c-0.57-3.42-1.69-6.69-3.78-9.52
	c-0.33-0.45-0.55-1.18-1.46-1.07c1.45,3.36,2.03,6.86,2.49,10.36c0.97,7.3,3.48,13.95,7.87,19.84c-1.13,4.31-2.08,8.67-2.84,13.11
	c-1.12-8.85-3.69-17.13-7.86-24.9c1.75-6,1.11-11.85-1.1-17.6c-0.88-2.28-2.15-4.35-3.57-6.37c3.16-0.41,5.85,1.64,9.24,7.03
	c0.36-2.93,0.09-5.63-0.64-8.26c-1.94-6.97-5.94-12.35-12.21-15.85c-4.68-2.61-9.59-4.75-13.93-8.03c-3.04-2.3-5.74-4.93-8.34-7.7
	c-4.94-5.27-8.42-11.45-10.65-18.33c-0.85-2.6-1.78-5.34-1.79-8.02c-0.01-2.9-0.74-5.74-0.23-8.74c0.49-2.83,0.91-5.71,1.46-8.6
	c2.58,7.04,6.14,13.44,11.17,18.93c1.45,1.83,2.94,3.61,4.86,4.98c0.16,0.63,0.72,0.89,1.14,1.27c3.19,2.86,6.65,5.33,10.24,7.64
	c10.32,6.65,17.38,15.82,20.49,27.94c0.73,2.82,1.04,5.73,1.47,8.62c0.92-2.49,1.31-5.06,1.44-7.66c0.56-11.43-1.32-22.45-5.76-33
	c-2.12-5.05-3.53-10.31-4.84-15.6c-0.25-2.32-0.51-4.63-0.76-6.94c-0.51-7.43,0.43-14.65,3.23-21.57c1.19-2.95,2.68-5.73,4.68-8.28
	c-0.2,1.21-0.46,2.41-0.62,3.62c-1.15,8.63,0.61,16.93,3.04,25.13c1.94,6.56,4.51,12.91,6.17,19.58c3.57,14.4,2.41,28.43-2.72,42.23
	c0.57,0.19,0.65-0.28,0.81-0.56c5.61-9.93,13.06-18.19,21.82-25.32c4.66-3.79,8.59-8.26,11.44-13.64c1.3-2.06,2.34-4.24,3.03-6.58
	c1.38-3.27,1.87-6.72,2.02-10.25c0.02-0.58,0.05-1.16,0.08-1.74l-0.02,0.01c1.45,2.92,2.09,6.09,2.49,9.27
	c2.57,20.41-4.84,36.07-21.86,47.1c-5.36,3.48-10.63,7.11-14.73,12.12c-6.46,7.89-7.4,16.62-3.38,25.97
	C105.63,135.37,105.8,135.76,105.98,136.14z M92.54,91.09c0.09,0.17,0.17,0.33,0.25,0.5c0.2-0.23,0.12-0.47,0.02-0.71
	c-4.16-7.67-10.11-13.62-17.02-18.71c-9.25-6.82-16.21-15.61-21.33-25.96c-0.14-0.28-0.07-0.94-0.82-0.75
	c0.38,1.27,0.72,2.52,1.12,3.76c3.5,10.73,10.09,19.16,18.91,25.82C80.27,80.03,86.98,84.86,92.54,91.09z M104.29,106.75
	c3.96-4.84,8.36-9.24,13.24-13.13c3.01-2.4,6.17-4.62,9.08-7.12c6.98-6,12.35-13.14,14.62-22.35c0.56-2.28,0.57-2.63,0.21-4
	c-1.81,6.27-5.4,11.32-9.7,15.91c-3.26,3.48-6.89,6.55-10.56,9.56c-7.09,5.81-13.2,12.46-17.18,20.9c-0.1,0.15-0.19,0.28-0.29,0.43
	C103.97,107.07,104.17,107.01,104.29,106.75z M104.31,78.82c0.17,0,0.33,0.01,0.5,0.01c0.13-1.19,0.29-2.38,0.37-3.57
	c0.54-8.61-1.11-16.82-4.5-24.68c-2.2-5.11-4.21-10.3-5.37-15.77c-0.33-1.56-0.59-3.13-0.8-4.7c-0.19-1.51-0.27-3.05-0.4-4.57
	c-0.31,0.61-0.47,1.23-0.56,1.84c-1.02,7.9,0.39,15.46,3.28,22.77c2.64,6.65,5.32,13.28,6.63,20.38
	C103.97,73.25,104.3,76.02,104.31,78.82z"/>
<g>
	<path class="st0" d="M66.6,55.62c-1.92-1.35-3.41-3.15-4.86-4.98c8.34-6.75,17.77-11.03,28.3-12.76c0.25,2.32,0.51,4.63,0.76,6.94
		C81.87,46.45,73.83,50.09,66.6,55.62z"/>
	<path class="st0" d="M140.86,52.48c-0.69,2.35-1.73,4.53-3.03,6.58c-5.89-5.41-12.52-9.56-20.06-12.11
		c-0.64-0.21-0.93-0.58-1.08-1.19c-0.53-1.95-1.05-3.89-1.62-5.81c-0.32-1.09,0.07-1.14,0.98-0.89
		C125.32,41.63,133.63,46.04,140.86,52.48z"/>
	<path class="st0" d="M162.08,99.99c-2.29,0.11-4.58,0.2-6.87,0.31c0.05-4.86-0.56-9.63-1.75-14.33c-0.15-0.58-0.26-1.09,0.18-1.64
		c1.64-2,3.01-4.18,4.46-6.71C160.79,85.02,162.21,92.36,162.08,99.99z"/>
	<path class="st0" d="M154.84,70.09c-0.85,3.16-1.86,6.25-3.45,9.13c-1.45-3.17-2.86-6.34-4.76-9.26c-0.25-0.39-0.33-0.77-0.22-1.2
		c0.7-2.85,1.16-5.76,1.37-9.03C150.7,63.05,152.73,66.6,154.84,70.09z"/>
	<path class="st0" d="M45.08,100.38c-2.26-0.25-4.51-0.46-6.79-0.39c-0.12-3.89,0.37-7.71,0.99-11.54c0.15-0.91,0.45-1.11,1.33-0.77
		c1.51,0.57,3.07,1.02,4.63,1.47c0.69,0.2,0.92,0.56,0.77,1.28C45.36,93.7,45.27,97.05,45.08,100.38z"/>
	<path class="st0" d="M40.16,84.3c0.88-3.1,1.78-6.18,3.19-9.28c1.54,1.93,3.1,3.69,4.83,5.28c0.51,0.47,0.18,0.88,0.04,1.29
		c-0.66,2.01-1.29,4.02-1.67,6.11C44.43,86.56,42.3,85.43,40.16,84.3z"/>
	<path class="st0" d="M50.44,75.86c-1.74-1.9-3.2-4.01-4.51-6.24c1.32-2.51,2.84-4.9,4.57-7.23c1.22,2.14,2.34,4.16,3.51,6.15
		c0.26,0.45,0.18,0.75-0.06,1.15C52.77,71.73,51.61,73.8,50.44,75.86z"/>
	<path class="st0" d="M109.59,37.64c0.96,2.57,1.92,5.14,2.88,7.71c-2.37-0.36-4.7-0.95-7.11-1.05c-0.67-0.03-0.9-0.48-1.03-0.99
		c-0.56-2.04-1.09-4.07-1.69-6.34C105.06,37.2,107.32,37.43,109.59,37.64z"/>
</g>
<g>
	<path class="st0" d="M109.59,37.64c-0.78-3.41-1.86-6.75-2.32-10.25c-0.19-1.48,0.08-2.43,1.31-3.18c0.61-0.37,1.17-0.86,1.89-1.4
		c0.29,2.72,0.48,5.3,0.88,7.83c0.93,5.9,2.68,11.58,4.78,17.15c2.09,5.54,3.26,11.24,1.97,17.19c-0.45,2.06-1.1,4.06-2.43,5.81
		c2.61-8.99,0.53-17.33-3.2-25.46C111.51,42.79,110.55,40.21,109.59,37.64z"/>
	<path class="st0" d="M50.44,75.86c4.16,5.34,9.35,9.41,15.16,12.72c2.37,1.35,4.86,2.41,7.54,3.51c-0.83,0.46-1.44,0.08-2.03-0.08
		C58.1,88.43,48.08,80.88,41.62,68.72c-0.18-0.33-0.34-0.66-0.49-1c-1.24-2.81-1.22-2.99,0.68-5.9c1.35,2.68,2.38,5.44,4.13,7.8
		C47.24,71.85,48.7,73.96,50.44,75.86z"/>
	<path class="st0" d="M154.84,70.09c0.69-2.85,1.19-5.73,1.25-8.76c0.92,2.55,1.89,5.08,2.72,7.68c0.17,0.53-0.12,1.25-0.3,1.84
		c-3.36,11.22-10.2,19.62-20.08,25.55c-0.4,0.23-0.79,0.56-1.33,0.29c6.1-4.7,10.84-10.54,14.31-17.46
		C152.97,76.35,153.99,73.25,154.84,70.09z"/>
	<path class="st0" d="M40.16,84.3c2.13,1.13,4.26,2.26,6.39,3.39c2.42,1.24,4.83,2.47,7.25,3.71c-0.05,0.12-0.1,0.24-0.16,0.36
		c-8.37-3.35-16.72-6.7-25.17-10.08c1.84-1.51,3.49-1.74,5.49-0.46C35.92,82.46,38.1,83.29,40.16,84.3z"/>
</g>
<path class="st3" d="M92.81,90.88c0.1,0.24,0.19,0.48-0.02,0.71c-0.09-0.17-0.17-0.33-0.25-0.5C92.63,91.03,92.72,90.96,92.81,90.88
	z"/>
<path class="st3" d="M104.29,106.75c-0.13,0.26-0.31,0.32-0.56,0.18c0.1-0.15,0.19-0.28,0.28-0.43
	C104.11,106.58,104.2,106.66,104.29,106.75z"/>
<g>
	<path class="st0" d="M162.08,99.99c-0.01,12.79-3.35,24.61-10.54,35.09c-12.77,18.62-30.51,27.99-52.81,27.78
		c-28.86-0.27-54.01-22.08-59.35-50.98c-0.73-3.94-1.21-7.89-1.09-11.9c2.27-0.07,4.53,0.14,6.79,0.39
		c20.58,2.75,36.2,13.17,46.89,31.27c0.11,0.19,0.22,0.35,0.34,0.53c4.16,7.76,6.74,16.04,7.86,24.9c0.76-4.44,1.71-8.8,2.84-13.11
		c0.36-1.01,0.72-2.03,1.08-3.04c0.63-1.6,1.27-3.19,1.9-4.78c2.09-3.86,4.14-7.73,6.82-11.23c10.48-13.68,24.13-21.84,41.03-24.35
		c0.47-0.07,0.93-0.18,1.38-0.27C157.5,100.2,159.79,100.09,162.08,99.99z"/>
	<path class="st1" d="M85.29,131.22l-2.68,1.57v3.15l2.68,1.57l2.68-1.57v-3.15L85.29,131.22z"/>
	<path class="st1" d="M83.71,143.93l-1.88,1.1v2.21l1.88,1.1l1.88-1.1v-2.21L83.71,143.93z"/>
	<path class="st1" d="M74.02,138.26l-1.3,0.76v1.53l1.3,0.76l1.3-0.76v-1.53L74.02,138.26z"/>
	<path class="st1" d="M75.02,146.65l-1.3,0.76v1.53l1.3,0.76l1.3-0.76v-1.53L75.02,146.65z"/>
	<path class="st1" d="M118.07,148.53l-1.3,0.76v1.53l1.3,0.76l1.3-0.76v-1.53L118.07,148.53z"/>
	<path class="st1" d="M110.47,140.64l-2.84,1.68v3.34l2.84,1.68l2.84-1.68v-3.34L110.47,140.64z"/>
	<path class="st1" d="M116.93,130.08l-1.83,1.07v2.15l1.83,1.07l1.83-1.07v-2.15L116.93,130.08z"/>
	<path class="st1" d="M122.41,139.4l-2.4,1.41v2.81l2.4,1.41l2.4-1.41v-2.81L122.41,139.4z"/>
</g>
</svg>
