<?xml version="1.0" encoding="utf-8"?>
<!-- Generator: Adobe Illustrator 25.3.1, SVG Export Plug-In . SVG Version: 6.00 Build 0)  -->
<svg version="1.1" id="Layer_1" xmlns="http://www.w3.org/2000/svg" xmlns:xlink="http://www.w3.org/1999/xlink" x="0px" y="0px"
	 viewBox="0 0 200 200" style="enable-background:new 0 0 200 200;" xml:space="preserve">
<style type="text/css">
	.st0{fill:#EB6E23;}
	.st1{fill:#FFFFFF;}
	.st2{fill:none;}
	.st3{fill:#F9FBF7;}
</style>
<g>
	<path class="st0" d="M30.52,198C14.79,198,2,185.21,2,169.49V30.52C2,14.79,14.79,2,30.52,2h138.97C185.21,2,198,14.79,198,30.52
		v138.97c0,15.72-12.79,28.51-28.51,28.51H30.52z"/>
	<path class="st1" d="M169.49,4C184.11,4,196,15.89,196,30.51v138.97c0,14.62-11.89,26.51-26.51,26.51H30.51
		C15.89,196,4,184.11,4,169.49V30.51C4,15.89,15.89,4,30.51,4H169.49 M169.49,0H30.51C13.66,0,0,13.66,0,30.51v138.97
		C0,186.34,13.66,200,30.51,200h138.97c16.85,0,30.51-13.66,30.51-30.51V30.51C200,13.66,186.34,0,169.49,0L169.49,0z"/>
</g>
<rect x="18.6" y="4.58" class="st2" width="161.42" height="164.07"/>
<path class="st1" d="M105.13,138.17c-0.65,1.64-1.3,3.27-1.95,4.91c-2.99-5.33-5.34-10.9-6.38-17.01c-0.59-3.51-1.73-6.87-3.88-9.77
	c-0.34-0.46-0.56-1.21-1.5-1.1c1.49,3.45,2.08,7.04,2.56,10.64c1,7.49,3.57,14.32,8.08,20.37c-1.16,4.43-2.14,8.9-2.92,13.46
	c-1.15-9.09-3.79-17.59-8.07-25.56c1.8-6.16,1.14-12.17-1.13-18.07c-0.9-2.34-2.21-4.47-3.67-6.54c3.24-0.42,6.01,1.68,9.49,7.22
	c0.37-3.01,0.09-5.78-0.66-8.48c-1.99-7.16-6.1-12.68-12.54-16.27c-4.8-2.68-9.85-4.88-14.3-8.24c-3.12-2.36-5.89-5.06-8.56-7.91
	c-5.07-5.41-8.64-11.76-10.93-18.82c-0.87-2.67-1.83-5.48-1.84-8.23c-0.01-2.98-0.76-5.89-0.24-8.97c0.5-2.91,0.93-5.86,1.5-8.83
	c2.65,7.23,6.3,13.8,11.47,19.44c1.49,1.88,3.02,3.71,4.99,5.11c0.16,0.65,0.74,0.91,1.17,1.3c3.27,2.94,6.83,5.47,10.51,7.84
	c10.6,6.83,17.84,16.24,21.04,28.69c0.75,2.9,1.07,5.88,1.51,8.85c0.94-2.56,1.35-5.19,1.48-7.86c0.57-11.74-1.36-23.05-5.91-33.88
	c-2.18-5.18-3.62-10.59-4.97-16.02c-0.26-2.38-0.52-4.75-0.78-7.13c-0.52-7.63,0.44-15.04,3.32-22.15c1.22-3.03,2.75-5.88,4.8-8.5
	c-0.21,1.24-0.47,2.47-0.64,3.72C95,19.24,96.81,27.76,99.3,36.18c1.99,6.74,4.63,13.25,6.33,20.1c3.67,14.78,2.47,29.19-2.79,43.36
	c0.59,0.19,0.67-0.29,0.83-0.58c5.76-10.19,13.41-18.68,22.4-26c4.78-3.89,8.82-8.48,11.75-14c1.33-2.11,2.4-4.35,3.11-6.76
	c1.42-3.36,1.92-6.9,2.07-10.52c0.02-0.6,0.05-1.19,0.08-1.79L143.06,40c1.49,3,2.15,6.25,2.56,9.52
	c2.64,20.95-4.97,37.03-22.44,48.36c-5.5,3.57-10.91,7.3-15.12,12.44c-6.63,8.1-7.6,17.06-3.47,26.66
	C104.77,137.38,104.95,137.78,105.13,138.17z M91.33,91.92c0.09,0.17,0.17,0.34,0.26,0.51c0.21-0.24,0.12-0.48,0.02-0.73
	c-4.27-7.87-10.38-13.98-17.47-19.21c-9.5-7-16.64-16.03-21.9-26.65c-0.14-0.29-0.07-0.96-0.84-0.77c0.39,1.3,0.74,2.59,1.15,3.86
	c3.59,11.02,10.36,19.67,19.41,26.51C78.74,80.56,85.62,85.52,91.33,91.92z M103.4,107.99c4.07-4.97,8.58-9.49,13.59-13.48
	c3.09-2.46,6.33-4.74,9.32-7.31c7.17-6.16,12.68-13.49,15.01-22.95c0.58-2.34,0.59-2.7,0.22-4.11c-1.86,6.44-5.54,11.62-9.96,16.33
	c-3.35,3.57-7.07,6.72-10.84,9.81c-7.28,5.96-13.55,12.79-17.64,21.46c-0.1,0.15-0.2,0.29-0.3,0.44
	C103.07,108.32,103.27,108.26,103.4,107.99z M103.42,79.32c0.17,0,0.34,0.01,0.51,0.01c0.13-1.22,0.3-2.44,0.38-3.67
	c0.55-8.84-1.14-17.27-4.62-25.34c-2.26-5.25-4.32-10.57-5.51-16.19c-0.34-1.6-0.61-3.21-0.82-4.83c-0.2-1.55-0.28-3.13-0.41-4.69
	c-0.32,0.63-0.48,1.26-0.57,1.89c-1.05,8.11,0.4,15.87,3.37,23.38c2.71,6.83,5.46,13.63,6.81,20.92
	C103.07,73.6,103.41,76.44,103.42,79.32z"/>
<g>
	<path class="st1" d="M64.7,55.5c-1.97-1.39-3.5-3.23-4.99-5.11c8.56-6.93,18.24-11.32,29.05-13.1c0.26,2.38,0.52,4.75,0.78,7.13
		C80.38,46.08,72.12,49.82,64.7,55.5z"/>
	<path class="st1" d="M140.94,52.28c-0.71,2.41-1.78,4.65-3.11,6.76c-6.05-5.55-12.85-9.81-20.6-12.43
		c-0.66-0.22-0.95-0.6-1.11-1.22c-0.54-2-1.08-3.99-1.66-5.97c-0.33-1.12,0.07-1.17,1.01-0.91
		C124.99,41.14,133.52,45.66,140.94,52.28z"/>
	<path class="st1" d="M162.73,101.05c-2.35,0.11-4.7,0.21-7.05,0.32c0.05-4.99-0.58-9.89-1.8-14.71c-0.15-0.6-0.27-1.12,0.18-1.68
		c1.68-2.05,3.09-4.29,4.58-6.89C161.4,85.68,162.86,93.22,162.73,101.05z"/>
	<path class="st1" d="M155.29,70.36c-0.87,3.24-1.91,6.42-3.54,9.37c-1.49-3.25-2.94-6.51-4.89-9.51c-0.26-0.4-0.34-0.79-0.23-1.23
		c0.72-2.93,1.19-5.91,1.41-9.27C151.04,63.13,153.13,66.77,155.29,70.36z"/>
	<path class="st1" d="M42.61,101.45c-2.32-0.26-4.63-0.47-6.97-0.4c-0.12-3.99,0.38-7.92,1.02-11.85c0.15-0.93,0.46-1.14,1.37-0.79
		c1.55,0.59,3.15,1.05,4.75,1.51c0.71,0.21,0.94,0.58,0.79,1.31C42.89,94.6,42.8,98.03,42.61,101.45z"/>
	<path class="st1" d="M37.56,84.94c0.9-3.18,1.83-6.35,3.28-9.53c1.58,1.98,3.18,3.79,4.96,5.42c0.52,0.48,0.18,0.9,0.04,1.32
		c-0.68,2.06-1.32,4.13-1.71,6.27C41.94,87.27,39.75,86.11,37.56,84.94z"/>
	<path class="st1" d="M48.11,76.28c-1.79-1.95-3.29-4.12-4.63-6.41c1.36-2.58,2.92-5.03,4.69-7.42c1.25,2.2,2.4,4.27,3.6,6.31
		c0.27,0.46,0.18,0.77-0.06,1.18C50.5,72.04,49.31,74.16,48.11,76.28z"/>
	<path class="st1" d="M108.84,37.04c0.99,2.64,1.97,5.28,2.96,7.92c-2.43-0.37-4.83-0.98-7.3-1.08c-0.69-0.03-0.92-0.49-1.06-1.02
		c-0.57-2.09-1.12-4.18-1.74-6.51C104.19,36.59,106.51,36.82,108.84,37.04z"/>
</g>
<g>
	<path class="st1" d="M108.84,37.04c-0.8-3.5-1.91-6.93-2.38-10.52c-0.2-1.52,0.08-2.49,1.34-3.26c0.63-0.38,1.2-0.88,1.94-1.44
		c0.3,2.79,0.49,5.44,0.9,8.04c0.95,6.06,2.75,11.89,4.91,17.61c2.15,5.69,3.35,11.54,2.02,17.65c-0.46,2.12-1.13,4.17-2.49,5.97
		c2.68-9.23,0.54-17.79-3.29-26.14C110.81,42.33,109.82,39.68,108.84,37.04z"/>
	<path class="st1" d="M48.11,76.28c4.27,5.48,9.6,9.66,15.56,13.06c2.43,1.39,4.99,2.47,7.74,3.6c-0.85,0.47-1.48,0.08-2.08-0.08
		c-13.36-3.68-23.64-11.43-30.28-23.91c-0.18-0.34-0.35-0.68-0.5-1.03c-1.27-2.88-1.25-3.07,0.7-6.06c1.39,2.75,2.44,5.59,4.24,8.01
		C44.82,72.16,46.32,74.33,48.11,76.28z"/>
	<path class="st1" d="M155.29,70.36c0.71-2.93,1.22-5.88,1.28-8.99c0.94,2.62,1.94,5.22,2.79,7.88c0.17,0.54-0.12,1.28-0.31,1.89
		c-3.45,11.52-10.47,20.14-20.62,26.23c-0.41,0.24-0.81,0.58-1.37,0.3c6.26-4.83,11.13-10.82,14.69-17.93
		C153.38,76.78,154.42,73.6,155.29,70.36z"/>
	<path class="st1" d="M37.56,84.94c2.19,1.16,4.37,2.32,6.56,3.48c2.48,1.27,4.96,2.54,7.44,3.81c-0.05,0.12-0.1,0.25-0.16,0.37
		c-8.59-3.44-17.17-6.88-25.84-10.35c1.89-1.55,3.58-1.79,5.64-0.47C33.2,83.06,35.44,83.91,37.56,84.94z"/>
</g>
<path class="st3" d="M91.61,91.7c0.1,0.25,0.19,0.49-0.02,0.73c-0.09-0.17-0.17-0.34-0.26-0.51C91.42,91.85,91.52,91.78,91.61,91.7z
	"/>
<path class="st3" d="M103.4,107.99c-0.13,0.27-0.32,0.33-0.58,0.18c0.1-0.15,0.2-0.29,0.29-0.44
	C103.21,107.82,103.3,107.9,103.4,107.99z"/>
<g>
	<path class="st1" d="M162.73,101.05c-0.01,13.13-3.44,25.27-10.82,36.03c-13.11,19.12-31.32,28.74-54.22,28.52
		c-29.63-0.28-55.45-22.67-60.93-52.34c-0.75-4.04-1.24-8.1-1.12-12.22c2.33-0.07,4.65,0.14,6.97,0.4
		c21.13,2.82,37.17,13.52,48.14,32.1c0.11,0.19,0.23,0.36,0.35,0.54c4.27,7.97,6.92,16.47,8.07,25.56
		c0.78-4.56,1.76-9.03,2.92-13.46c0.37-1.04,0.74-2.08,1.11-3.12c0.65-1.64,1.3-3.27,1.95-4.91c2.15-3.96,4.25-7.94,7-11.53
		c10.76-14.05,24.77-22.42,42.12-25c0.48-0.07,0.95-0.18,1.42-0.28C158.03,101.27,160.38,101.16,162.73,101.05z"/>
	<path class="st0" d="M83.89,133.12l-2.75,1.61v3.23l2.75,1.61l2.75-1.61v-3.23L83.89,133.12z"/>
	<path class="st0" d="M82.27,146.17l-1.93,1.13v2.27l1.93,1.13l1.93-1.13v-2.27L82.27,146.17z"/>
	<path class="st0" d="M72.32,140.34l-1.33,0.78v1.57l1.33,0.78l1.33-0.78v-1.57L72.32,140.34z"/>
	<path class="st0" d="M73.35,148.96l-1.33,0.78v1.57l1.33,0.78l1.33-0.78v-1.57L73.35,148.96z"/>
	<path class="st0" d="M117.54,150.89l-1.33,0.78v1.57l1.33,0.78l1.33-0.78v-1.57L117.54,150.89z"/>
	<path class="st0" d="M109.74,142.79l-2.92,1.72v3.43l2.92,1.72l2.92-1.72v-3.43L109.74,142.79z"/>
	<path class="st0" d="M116.37,131.95l-1.88,1.1v2.21l1.88,1.1l1.88-1.1v-2.21L116.37,131.95z"/>
	<path class="st0" d="M122,141.51l-2.46,1.45v2.89l2.46,1.45l2.46-1.45v-2.89L122,141.51z"/>
</g>
</svg>
