<?xml version="1.0" encoding="utf-8"?>
<!-- Generator: Adobe Illustrator 25.2.1, SVG Export Plug-In . SVG Version: 6.00 Build 0)  -->
<svg version="1.1" id="Layer_3" xmlns="http://www.w3.org/2000/svg" xmlns:xlink="http://www.w3.org/1999/xlink" x="0px" y="0px"
	 viewBox="0 0 1000 1000" style="enable-background:new 0 0 1000 1000;" xml:space="preserve">
<style type="text/css">
	.st0{fill:#FFE2AC;}
	.st1{fill:none;}
	.st2{fill:#62C42D;}
	.st3{fill:#008C48;}
	.st4{fill:#220700;}
	.st5{fill:#FFFFFF;}
	.st6{fill:#FD6A12;}
</style>
<polygon class="st0" points="500,61.65 134.93,272.42 122.27,279.74 122.27,723.21 500,938.86 877.73,723.21 877.73,279.74 "/>
<path class="st1" d="M500,61.65L500,61.65 M877.73,279.74l-12.67-7.31"/>
<path class="st2" d="M713.42,282.63c-0.32-0.24-0.65-0.47-0.97-0.71c0.2-0.16,0.4-0.32,0.59-0.48c0.08,0.43,0.16,0.87,0.25,1.3
	C713.29,282.75,713.42,282.63,713.42,282.63z"/>
<path class="st3" d="M907.64,257.57L506.13,25.76L500,22.22l-6.13,3.54L92.36,257.57l-6.13,3.54v7.08v463.62v7.08l6.13,3.54
	l401.51,231.81l6.13,3.54l6.13-3.54l401.51-231.81l6.13-3.54v-7.08V268.19v-7.08L907.64,257.57z M894.71,272.11v455.78L500,955.78
	L105.29,727.89V272.11L500,44.22L894.71,272.11z"/>
<g>
	<path class="st3" d="M730.14,304.1c0.04,0.08,0.08,0.17,0.12,0.25c0.01-0.13,0.01-0.26,0.02-0.39L730.14,304.1z"/>
</g>
<path class="st4" d="M876.89,572.8c0.07-3,0.12-6,0.12-9.01c0-0.89-0.01-1.78-0.02-2.68c-0.06,0-0.11,0-0.17,0
	c-203.95,0-370.07,161.95-376.79,364.27c-5.59-203.33-172.17-366.45-376.86-366.45c-0.05,0-0.1,0-0.15,0v0
	c-0.02,1.62-0.03,3.24-0.03,4.86c0,0.22,0.01,0.44,0.01,0.66l-0.73,159L500,938.36l377.73-214.91L876.89,572.8z"/>
<g>
	<path class="st5" d="M498.56,900.82c0.48,0,0.96,0.02,1.44,0.02c0.55,0,1.1-0.02,1.65-0.02
		c14.45-147.16,113.51-269.48,247.88-317.67C722.19,470.71,620.85,387.22,500,387.22c-120.13,0-220.99,82.49-249.04,193.92
		C385.75,629.69,484.9,752.87,498.56,900.82z"/>
	<path class="st5" d="M646.08,855.25l-39.63,22.55C620.38,871.44,633.63,863.88,646.08,855.25z"/>
	<path class="st5" d="M393.54,877.79l-39.63-22.55C366.37,863.88,379.62,871.44,393.54,877.79z"/>
</g>
<g>
	<path class="st3" d="M293.61,488.58c13.96,14.65,28.48,28.57,44.84,40.75c23.29,17.32,49.75,28.65,74.91,42.47
		c33.73,18.53,55.28,46.99,65.7,83.87c3.94,13.94,5.37,28.2,3.45,43.7c-18.24-28.56-32.77-39.38-49.72-37.2
		c7.63,10.69,14.47,21.64,19.2,33.73c9.56,24.42,13.64,49.22,9.99,74.49c21.98,44.9,35.29,94.8,37.77,147.54
		c0.13,0.95,0.28,1.9,0.4,2.86l0.08-0.33c1.97-42.84,11.1-83.82,26.22-121.77c-19.04-47.49-13.14-91.91,20.36-132.18
		c22.05-26.51,50.37-45.72,79.21-64.11c91.51-58.38,131.41-141.26,117.56-249.24c-2.15-16.75-5.59-33.45-13.31-48.82
		c-0.13,2.94-0.26,5.89-0.38,8.83c-0.25,6.15-0.71,12.29-1.49,18.39c-7.15,55.97-44.03,108.21-87.25,142.82
		c-47.12,37.74-87.17,81.52-117.35,134.03c-0.87,1.51-1.26,4-4.37,3c27.51-73.02,33.84-147.3,14.59-223.46
		c-10.53-41.65-27.44-81.41-38.6-122.9c-11.94-44.4-15.24-87.6-7.26-132.9c-10.71,13.5-18.72,28.22-25.14,43.81
		c-9.99,24.29-15.62,50.24-17.32,76.42c-2.04,31.42,2.31,61.81,8.73,92.42c6.53,31.18,20.79,59.95,31.25,89.87
		c16.74,47.86,23.56,98.78,21.08,149.38c-0.67,13.74-2.83,27.32-7.77,40.5c-2.31-15.31-4.02-30.67-7.94-45.63
		c-16.79-64.16-54.73-112.64-110.23-147.86c-14.98-9.59-29.75-19.62-43.63-30.76c-43.74-35.1-79.12-81.32-100.14-133.35
		c-0.83-2.05-4.11-7.42-3.7-9.53c-4.28,22.04-8.81,44.27-8.41,66.78C226.03,384.96,251.8,444.72,293.61,488.58z"/>
</g>
<g>
	<g>
		<path class="st6" d="M592.84,276.53c0.26-18.35-1.17-36.68,0.84-55.07c0.85-7.76,3.43-12.25,10.72-14.48
			c3.66-1.12,7.12-2.89,11.54-4.73c-1.87,14.22-4.16,27.54-5.29,40.96c-2.62,31.22-0.67,62.3,3.24,93.36
			c3.88,30.86,2.8,61.3-11.35,89.95c-4.91,9.94-10.77,19.26-19.81,26.5c24.75-42.41,24.4-87.5,15.32-133.57
			C596.32,305.15,594.58,290.84,592.84,276.53z"/>
		<path class="st6" d="M239.46,476.4c21.18,28.71,48.07,50.94,78.37,69.34c12.35,7.5,25.45,13.49,39.48,19.71
			c-4.51,2.25-7.7,0.16-10.78-0.79C277.9,543.53,226,502.22,193.7,437.41c-0.87-1.74-1.68-3.52-2.41-5.33
			c-6.1-14.93-5.96-15.89,4.68-30.77c6.71,14.26,11.68,28.95,20.6,41.59C223.11,454.82,230.5,466.15,239.46,476.4z"/>
		<path class="st6" d="M822.26,445.92c6.15-14.1,11.28-28.51,14.27-44.1c2.57,14,5.41,27.97,7.48,42.04
			c0.42,2.87-1.72,6.32-3.19,9.25c-27.56,54.91-70.86,92.17-127.96,113.89c-2.29,0.87-4.64,2.21-7.24,0.31
			c36.17-18.81,66.23-44.71,90.5-77.35C806.97,476.56,815.03,461.48,822.26,445.92z"/>
		<path class="st6" d="M216.99,533.3c11.34,5.92,22.68,11.85,34.02,17.77c12.87,6.48,25.74,12.95,38.61,19.43
			c-0.27,0.64-0.54,1.27-0.81,1.91c-44.53-17.55-89.07-35.1-134-52.8c9.78-7.91,18.59-9.13,29.26-2.39
			C194.34,523.7,205.96,528.02,216.99,533.3z"/>
	</g>
</g>
<path class="st5" d="M457.26,571.28c0.63,0.55,1.23,1.1,1.97,1.36c0.46,0.16-0.83-4.5-1.03-4.89c-1.07-2.18-2.68-4.23-4.03-6.26
	c-2.7-4.07-5.49-8.08-8.37-12.03c-5.76-7.89-11.87-15.53-18.31-22.87c-12.88-14.69-27.08-28.23-42.37-40.4
	c-16.12-12.83-33.32-23.85-48.84-37.49c-15.2-13.36-29.25-28.01-42-43.71c-5.49-6.76-10.74-13.72-15.74-20.86
	c-6.99-9.98-13.51-20.3-19.53-30.9c-3-5.29-5.54-10.91-8.65-16.13c-1.04-1.75-6.11-6.74-4.51-1.38
	c11.6,38.65,30.29,74.46,56.95,104.85c27.91,31.82,63.15,53.88,96.52,79.26c10.52,8,20.84,16.28,30.78,25.01
	c4.97,4.36,9.84,8.83,14.58,13.43C448.91,562.33,452.81,567.43,457.26,571.28z"/>
<path class="st5" d="M474.89,273.59c-1.7-8.25-3.02-16.6-4.04-24.96c-0.97-8.02-1.31-16.12-1.93-24.19c-1.7,3.23-2.6,6.45-3.06,9.73
	c-5.89,41.77,1.28,81.83,16.47,120.66c12.02,30.72,24.64,61.37,31.58,93.73c2.22,10.36,3.95,20.83,5.17,31.36
	c0.63,5.43,1.13,10.88,1.49,16.34c0.15,2.3-0.22,4.64,0.18,6.93c0.51,2.9,3.25,3.66,3.67,0.3c4.1-32.41,2.37-65.78-5.33-97.55
	c-3.98-16.62-9.45-32.89-16.14-48.61C491.38,330.15,480.88,302.62,474.89,273.59z"/>
<path class="st5" d="M522.33,654.5c21.33-25.63,44.96-48.93,71.21-69.5c16.19-12.68,33.15-24.42,48.84-37.68
	c37.56-31.74,66.42-69.55,78.65-118.26c3.03-12.07,3.1-13.93,1.18-21.19c-9.72,33.19-29.01,59.89-52.17,84.15
	c-17.56,18.4-37.04,34.63-56.81,50.55c-38.14,30.72-70.97,65.9-92.39,110.61c-0.52,0.76-1.03,1.51-1.55,2.27
	C520.65,656.2,521.66,655.89,522.33,654.5z"/>
<path class="st3" d="M519.7,834.75"/>
<path class="st5" d="M511.25,845.68c1.6-6.35,3.36-12.63,5.28-18.84c-13.41-24.9-23.81-50.89-28.68-79.15
	c-3.12-18.07-9.06-35.41-20.31-50.35c-1.79-2.37-2.95-6.21-7.84-5.67c7.83,17.8,10.89,36.27,13.41,54.82
	C478.02,782.73,490.2,815.98,511.25,845.68z"/>
</svg>
