<?xml version="1.0" standalone="no"?>
<!DOCTYPE svg PUBLIC "-//W3C//DTD SVG 20010904//EN"
 "http://www.w3.org/TR/2001/REC-SVG-20010904/DTD/svg10.dtd">
<svg version="1.0" xmlns="http://www.w3.org/2000/svg"
 width="260.000000pt" height="260.000000pt" viewBox="0 0 260.000000 260.000000"
 preserveAspectRatio="xMidYMid meet">
<metadata>
Created by potrace 1.11, written by Peter Selinger 2001-2013
</metadata>
<g transform="translate(0.000000,260.000000) scale(0.100000,-0.100000)"
fill="#000000" stroke="none">
<path d="M160 2075 l0 -365 405 0 405 0 0 -40 0 -40 -402 -2 -403 -3 -3 -527
-2 -528 410 0 410 0 0 -40 0 -40 -408 -2 -407 -3 -3 -154 c-1 -88 2 -159 7
-164 6 -6 427 -7 1135 -2 l1126 7 0 154 0 154 -35 0 c-35 0 -35 0 -35 45 l0
45 -245 0 -245 0 0 -45 0 -45 -40 0 -40 0 0 45 0 45 -39 0 c-40 0 -40 0 -43
-42 -3 -43 -3 -43 -43 -43 l-40 0 -3 248 -2 247 404 0 404 0 6 323 c4 177 6
504 4 727 l-3 405 -160 0 -160 0 -3 -202 -2 -203 -245 0 -245 0 0 205 0 205
-730 0 -730 0 0 -365z m1140 -5 l0 -40 -405 0 -405 0 0 40 0 40 405 0 405 0 0
-40z m810 -405 l0 -45 -405 0 -405 0 0 45 0 45 405 0 405 0 0 -45z m-810 -730
l0 -45 -405 0 -405 0 0 45 0 45 405 0 405 0 0 -45z"/>
<path d="M1710 850 l0 -40 40 0 40 0 0 40 0 40 -40 0 -40 0 0 -40z"/>
<path d="M1870 850 l0 -40 243 2 242 3 3 38 3 37 -245 0 -246 0 0 -40z"/>
<path d="M1710 690 l0 -40 40 0 40 0 0 40 0 40 -40 0 -40 0 0 -40z"/>
<path d="M1870 690 l0 -40 245 0 245 0 0 40 0 40 -245 0 -245 0 0 -40z"/>
</g>
</svg>
