<?xml version="1.0" encoding="UTF-8"?><svg id="Layer_2" xmlns="http://www.w3.org/2000/svg" viewBox="0 0 1785.15 287.17"><defs><style>.cls-1,.cls-2{fill:#0273bf;}.cls-3{fill:#9cc000;}.cls-4{fill:#604b47;}.cls-2{font-family:Oscine-XBold, Oscine;font-size:63.92px;font-weight:700;letter-spacing:-.03em;}</style></defs><g id="Layer_1-2"><g><path class="cls-1" d="M50.8,153.41c-3.95,0-7.15,3.2-7.15,7.15v49.52c0,4.16-.77,6.91-2.3,8.27-1.54,1.36-4.66,2.03-9.35,2.03H11.66c-4.7,0-7.82-.68-9.35-2.03-1.54-1.36-2.3-4.11-2.3-8.27V37.63c0-4.16,.77-6.91,2.3-8.27,1.53-1.36,4.65-2.03,9.35-2.03h63.17c21.33,0,37.05,4.79,47.18,14.37,10.12,9.58,15.18,24.49,15.18,44.74v7.86c0,22.6-7.64,38.85-22.91,48.76-3.15,2.04-4.27,6.11-2.45,9.4l31.87,57.61c.9,1.45,1.36,2.98,1.36,4.61,0,3.8-3.08,5.69-9.22,5.69h-26.3c-3.98,0-6.96-.68-8.95-2.03-1.99-1.36-3.98-4.11-5.96-8.27l-25.7-52.66c-1.2-2.46-3.69-4.01-6.42-4.01h-11.71Zm-7.15-44.29c0,3.95,3.2,7.15,7.15,7.15h16.71c16.63,0,24.94-7.5,24.94-22.5v-6.51c0-14.82-8.32-22.23-24.94-22.23h-16.71c-3.95,0-7.15,3.2-7.15,7.15v36.95Z"/><path class="cls-1" d="M188.43,158.83v1.09c0,10.67,1.72,18.39,5.15,23.18,3.43,4.79,10.03,7.18,19.79,7.18,4.7,0,8.63-.63,11.79-1.9,3.16-1.26,5.74-3.8,7.73-7.59,.9-1.8,1.99-3.16,3.25-4.07,1.26-.9,3.7-1.36,7.32-1.36h21.15c3.61,0,6.05,.68,7.32,2.03,1.26,1.36,1.9,3.48,1.9,6.37,0,3.98-.95,7.82-2.85,11.52-1.9,3.71-4.02,6.91-6.37,9.62-5.79,6.69-13.42,11.57-22.91,14.64s-19.57,4.61-30.23,4.61c-20.97,0-37.14-5.29-48.53-15.86-11.39-10.57-17.08-26.34-17.08-47.31v-25.76c0-20.24,5.83-36.1,17.49-47.58,11.66-11.48,27.88-17.22,48.67-17.22,19.34,0,34.79,5.65,46.36,16.95,11.57,11.3,17.35,27.43,17.35,48.4v12.74c0,4.34-.77,7.14-2.3,8.41-1.54,1.27-4.66,1.9-9.35,1.9h-75.65Zm21.96-55.31c-6.51,0-11.66,2.03-15.45,6.1-2.93,3.14-4.83,7.86-5.72,14.16-.45,3.18,1.98,6.04,5.19,6.04h32.34c3.15,0,5.58-2.77,5.21-5.9-.7-6.09-2.34-10.76-4.91-14.03-3.35-4.25-8.91-6.37-16.67-6.37Z"/><path class="cls-1" d="M334.38,235.56c1.8,1.8,4.07,3.16,6.78,4.07,2.71,.9,6.6,1.36,11.66,1.36,7.77,0,13.83-2.17,18.17-6.51,3.25-3.62,4.88-8.23,4.88-13.83v-6.15c0-2.44-2.69-3.84-4.74-2.52-2.77,1.78-5.98,3.23-9.63,4.33-5.96,1.81-12.57,2.71-19.79,2.71-17.89,0-31.72-5.33-41.48-16-9.76-10.66-14.64-25.76-14.64-45.28v-22.5c0-20.24,5.83-36.1,17.49-47.58,11.66-11.48,27.88-17.22,48.67-17.22s37.87,5.29,49.62,15.86c11.75,10.57,17.62,25.62,17.62,45.14v77.82c0,20.78-5.33,36.2-16,46.23-10.67,10.03-27.3,15.05-49.89,15.05-20.43,0-35.93-2.8-46.5-8.41-10.57-5.6-15.86-13.74-15.86-24.4,0-2.17,.68-3.89,2.03-5.15,1.36-1.27,3.03-1.9,5.02-1.9h25.49c3.07,0,5.33,.41,6.78,1.22,1.45,.81,2.89,2.03,4.34,3.66Zm-5.69-79.44c0,19.34,7.59,29.01,22.78,29.01,7.77,0,13.78-2.48,18.03-7.46,4.25-4.97,6.37-12.15,6.37-21.56v-22.78c0-19.34-7.69-29.01-23.05-29.01-7.77,0-13.74,2.53-17.89,7.59-4.16,5.06-6.24,12.2-6.24,21.42v22.78Z"/><path class="cls-1" d="M473.96,158.83v1.09c0,10.67,1.72,18.39,5.15,23.18,3.43,4.79,10.03,7.18,19.79,7.18,4.7,0,8.63-.63,11.79-1.9,3.16-1.26,5.74-3.8,7.73-7.59,.9-1.8,1.99-3.16,3.25-4.07,1.26-.9,3.7-1.36,7.32-1.36h21.15c3.61,0,6.05,.68,7.32,2.03,1.26,1.36,1.9,3.48,1.9,6.37,0,3.98-.95,7.82-2.85,11.52-1.9,3.71-4.02,6.91-6.37,9.62-5.79,6.69-13.42,11.57-22.91,14.64s-19.57,4.61-30.23,4.61c-20.97,0-37.14-5.29-48.53-15.86-11.39-10.57-17.08-26.34-17.08-47.31v-25.76c0-20.24,5.83-36.1,17.49-47.58,11.66-11.48,27.88-17.22,48.67-17.22,19.34,0,34.79,5.65,46.36,16.95,11.57,11.3,17.35,27.43,17.35,48.4v12.74c0,4.34-.77,7.14-2.3,8.41-1.54,1.27-4.65,1.9-9.35,1.9h-75.65Zm21.96-55.31c-6.51,0-11.66,2.03-15.46,6.1-3,3.21-4.92,8.09-5.78,14.62-.39,2.96,1.98,5.58,4.97,5.58h32.91c2.94,0,5.29-2.53,4.98-5.46-.67-6.31-2.33-11.13-4.95-14.47-3.35-4.25-8.91-6.37-16.67-6.37Z"/><path class="cls-1" d="M656.59,70.44c15,0,26.52,4.34,34.57,13.01,8.04,8.68,12.06,21.15,12.06,37.42v89.2c0,4.16-.77,6.91-2.3,8.27-1.54,1.36-4.65,2.03-9.35,2.03h-19.79c-4.7,0-7.82-.68-9.35-2.03-1.54-1.36-2.3-4.11-2.3-8.27v-81.88c0-13.56-6.33-20.33-18.98-20.33-7.23,0-12.88,2.03-16.95,6.1s-6.1,9.72-6.1,16.95v79.17c0,4.16-.77,6.91-2.3,8.27-1.54,1.36-4.66,2.03-9.35,2.03h-19.79c-4.7,0-7.82-.68-9.35-2.03-1.54-1.36-2.3-4.11-2.3-8.27V84.54c0-4.16,.77-6.91,2.3-8.27,1.53-1.36,4.65-2.03,9.35-2.03h18.98c4.7,0,7.82,.68,9.35,2.03,1.53,1.36,2.3,4.11,2.3,8.27h0c0,1.77,2.2,2.64,3.38,1.32,3.54-3.98,7.93-7.31,13.16-10,7.05-3.61,14.64-5.42,22.78-5.42Z"/></g><g><path class="cls-1" d="M1112.34,170.01c1.78,6.23,4.67,10.67,8.67,13.34s9.74,4,17.21,4c16.18,0,24.28-6.31,24.28-18.94,0-5.51-1.83-10.05-5.47-13.61-3.65-3.56-9.65-6.58-18.01-9.07l-22.14-6.67c-30.95-9.25-46.42-27.3-46.42-54.16v-4.27c0-11.38,2.75-21.25,8.27-29.61,5.51-8.36,13.25-14.85,23.21-19.48,9.96-4.62,21.61-6.94,34.95-6.94,10.85,0,20.28,1.2,28.28,3.6,8,2.4,15.29,6.27,21.88,11.61,5.16,4.09,9.34,9.52,12.54,16.27,3.2,6.76,4.8,13.43,4.8,20.01,0,3.56-.76,6-2.27,7.34-1.51,1.33-4.49,2-8.94,2h-21.08c-3.92,0-6.63-.62-8.14-1.87-1.51-1.24-2.63-3.64-3.33-7.2-2.67-10.67-10.67-16.01-24.01-16.01-14.59,0-21.88,6.23-21.88,18.68,0,6.23,1.82,11.03,5.47,14.41,3.64,3.38,10.45,6.58,20.41,9.6l22.14,6.67c29.88,8.72,44.82,25.79,44.82,51.22v4.8c0,17.97-6.18,32.01-18.54,42.15-12.36,10.14-29.48,15.21-51.36,15.21-23.3,0-40.91-5.34-52.83-16.01-4.98-4.62-8.94-10.18-11.87-16.67-2.93-6.49-4.4-13.12-4.4-19.88,0-3.56,.75-6,2.27-7.34,1.51-1.33,4.49-2,8.94-2h20.54c3.91,0,6.67,.53,8.27,1.6s2.84,3.47,3.74,7.2Z"/><path class="cls-1" d="M1280.95,188.95c6.22,0,10.85-1.33,13.87-4,3.02-2.67,5.16-7.2,6.4-13.61,.35-2.49,1.33-4.22,2.93-5.2,1.6-.98,4.27-1.47,8-1.47h18.41c4.44,0,7.42,.67,8.94,2,1.51,1.33,2.27,3.78,2.27,7.34,0,14.23-4.98,25.61-14.94,34.15-11.03,9.6-26.5,14.41-46.42,14.41s-35.26-5.16-46.02-15.47c-10.76-10.31-16.14-24.99-16.14-44.02v-28.81c0-20.1,5.42-35.62,16.27-46.56,10.85-10.94,26.15-16.41,45.89-16.41,20.81,0,36.37,4.8,46.69,14.41,9.78,8.72,14.67,20.1,14.67,34.15,0,3.56-.76,6-2.27,7.34-1.51,1.33-4.49,2-8.94,2h-18.41c-3.74,0-6.36-.49-7.87-1.47-1.51-.98-2.54-2.71-3.07-5.2-1.25-6.4-3.38-10.94-6.4-13.61-3.03-2.67-7.56-4-13.61-4-7.29,0-12.54,2.31-15.74,6.94-3.2,4.63-4.8,12.36-4.8,23.21v23.48c0,10.85,1.55,18.63,4.67,23.34,3.11,4.71,8.31,7.07,15.61,7.07Z"/><path class="cls-1" d="M1417.55,222.57c-20.63,0-36.73-5.34-48.29-16.01-11.56-10.67-17.34-25.35-17.34-44.02v-28.01c0-19.56,5.82-34.99,17.47-46.29,11.65-11.29,27.7-16.94,48.16-16.94s36.73,5.34,48.29,16.01c11.56,10.67,17.34,25.35,17.34,44.02v28.01c0,19.57-5.83,35-17.47,46.29-11.65,11.3-27.71,16.94-48.16,16.94Zm-.8-33.35c7.64,0,13.56-2.44,17.74-7.34,4.18-4.89,6.27-11.96,6.27-21.21v-27.48c0-19.03-7.47-28.55-22.41-28.55-7.65,0-13.57,2.45-17.74,7.34-4.18,4.89-6.27,11.96-6.27,21.21v27.48c0,19.03,7.47,28.55,22.41,28.55Z"/><path class="cls-1" d="M1539.47,92.64c5.87-11.74,15.74-17.61,29.61-17.61h5.87c3.56,0,5.91,.63,7.07,1.87,1.15,1.25,1.73,3.83,1.73,7.74v19.21c0,3.91-.58,6.49-1.73,7.74-1.16,1.25-3.51,1.87-7.07,1.87h-6.67c-18.85,0-28.28,9.7-28.28,29.08v66.17c0,4.09-.76,6.8-2.27,8.14-1.51,1.33-4.58,2-9.2,2h-19.48c-4.63,0-7.7-.67-9.2-2-1.51-1.33-2.27-4.04-2.27-8.14V85.17c0-4.09,.75-6.8,2.27-8.14,1.51-1.33,4.58-2,9.2-2h18.94c4.62,0,7.69,.67,9.21,2,1.51,1.33,2.27,4.05,2.27,8.14v7.47Z"/><path class="cls-1" d="M1631.31,158.27v1.07c0,10.5,1.69,18.1,5.07,22.81,3.38,4.71,9.87,7.07,19.48,7.07,4.62,0,8.49-.62,11.61-1.87,3.11-1.24,5.64-3.74,7.6-7.47,.89-1.78,1.96-3.11,3.2-4,1.24-.89,3.64-1.33,7.2-1.33h20.81c3.56,0,5.96,.67,7.2,2,1.24,1.33,1.87,3.43,1.87,6.27,0,3.92-.93,7.7-2.8,11.34-1.87,3.65-3.96,6.8-6.27,9.47-5.69,6.58-13.21,11.38-22.54,14.41-9.34,3.02-19.25,4.54-29.75,4.54-20.63,0-36.55-5.2-47.76-15.61-11.21-10.41-16.81-25.92-16.81-46.56v-25.34c0-19.92,5.74-35.53,17.21-46.82,11.47-11.29,27.43-16.94,47.89-16.94,19.03,0,34.24,5.56,45.62,16.67,11.38,11.12,17.08,26.99,17.08,47.62v12.54c0,4.27-.76,7.03-2.27,8.27-1.51,1.25-4.58,1.87-9.21,1.87h-74.43Zm21.61-54.43c-6.4,0-11.47,2-15.21,6-3.73,4-5.78,10.63-6.14,19.88h42.95c-.18-8.89-1.91-15.43-5.2-19.61-3.29-4.18-8.76-6.27-16.41-6.27Z"/></g><text class="cls-2" transform="translate(1702.38 65.02)"><tspan x="0" y="0">TM</tspan></text><g><path class="cls-4" d="M985.21,240.02c-9.62,10.02-6.32,21.31,.31,27.09s19.01,6.35,27.15-3.2c59.52-59.52,60.11-163.04-7.58-223.26-62.88-55.96-154.35-54.13-213.87,5.39,53.57-53.57,140.42-53.57,193.99,0,53.57,53.57,53.57,140.42,0,193.99Z"/><path class="cls-3" d="M789.01,47.15c9.62-10.02,6.32-21.31-.31-27.09-6.7-5.84-19.01-6.35-27.15,3.2-59.52,59.52-60.11,163.04,7.58,223.26,62.88,55.96,154.35,54.13,213.87-5.39-53.57,53.57-140.42,53.57-193.99,0-53.57-53.57-53.57-140.42,0-193.99Z"/></g></g></svg>